<?xml version="1.0" encoding="utf-8"?>
<!-- Generator: Adobe Illustrator 22.1.0, SVG Export Plug-In . SVG Version: 6.00 Build 0)  -->
<svg version="1.1" id="Layer_1" xmlns="http://www.w3.org/2000/svg" xmlns:xlink="http://www.w3.org/1999/xlink" x="0px" y="0px"
	 viewBox="0 0 1080 434" style="enable-background:new 0 0 1080 434;" xml:space="preserve">
<style type="text/css">
	.st0{fill:#FFFFFF;}
</style>
<g>
	<path d="M1018.8,430H61.3c-31.9,0-57.8-25.9-57.8-57.8V63.8C3.5,31.9,29.4,6,61.3,6h957.5c31.9,0,57.8,25.9,57.8,57.8v308.5
		C1076.5,404.1,1050.6,430,1018.8,430z"/>
	<g>
		<g>
			<path class="st0" d="M355.9,170.6c-8.5,12.4-18.4,22.9-23.5,35.3c-10.6,26.1-0.9,53.6,23.5,69.8c8.4,5.5,9.9,10.5,5,18.3
				c-9.6,15.3-18.1,31.5-29.2,45.7c-12.4,15.8-27,19-45.4,11c-19.6-8.5-38.3-8.5-57.5,0.5c-13.5,6.3-27.1,5.5-37.7-5.3
				c-39.4-40.2-58.7-87.8-47.2-144.2c8.3-40.6,50.5-67.6,91.5-48.6c15.7,7.2,29.2,3.3,43.8-2.1C310.2,139.7,338.3,147.4,355.9,170.6
				z"/>
			<path class="st0" d="M306.7,80.7c4.6,31.6-22.5,62.5-52.6,61.2C247,114.9,274.6,82.4,306.7,80.7z"/>
		</g>
		<g>
			<g>
				<path class="st0" d="M424.1,128.9c3.8-0.6,8.4-1,13.4-1c9,0,15.5,2.1,19.7,6.1c4.3,4,6.9,9.6,6.9,17.5c0,7.9-2.5,14.4-7,18.9
					c-4.5,4.5-12.1,7-21.5,7c-4.5,0-8.2-0.2-11.4-0.6V128.9z M430.4,172c1.6,0.3,3.9,0.4,6.4,0.4c13.4,0,20.7-7.5,20.7-20.7
					c0.1-11.5-6.4-18.8-19.7-18.8c-3.2,0-5.7,0.3-7.4,0.6V172z"/>
				<path class="st0" d="M503.9,159.2c0,12.9-9,18.6-17.4,18.6c-9.5,0-16.8-6.9-16.8-18c0-11.7,7.7-18.6,17.3-18.6
					C497.1,141.2,503.9,148.5,503.9,159.2z M476.2,159.5c0,7.7,4.4,13.4,10.6,13.4c6.1,0,10.6-5.7,10.6-13.6c0-5.9-3-13.4-10.5-13.4
					C479.4,146,476.2,152.9,476.2,159.5z"/>
				<path class="st0" d="M514,142l4.6,17.8c1,3.9,1.9,7.5,2.6,11.1h0.2c0.8-3.5,1.9-7.3,3.1-11l5.7-17.8h5.3l5.4,17.5
					c1.3,4.2,2.3,7.9,3.1,11.4h0.2c0.6-3.5,1.5-7.2,2.7-11.3l5-17.5h6.3L547,177h-5.8l-5.3-16.7c-1.2-3.9-2.2-7.4-3.1-11.5h-0.1
					c-0.9,4.2-1.9,7.8-3.2,11.6l-5.6,16.6H518L507.5,142H514z"/>
				<path class="st0" d="M564.6,151.5c0-3.6-0.1-6.6-0.3-9.5h5.6l0.4,5.8h0.1c1.7-3.3,5.8-6.6,11.6-6.6c4.8,0,12.3,2.9,12.3,14.9
					V177H588v-20.1c0-5.6-2.1-10.3-8.1-10.3c-4.2,0-7.4,3-8.5,6.5c-0.3,0.8-0.4,1.9-0.4,3v21h-6.4V151.5z"/>
				<path class="st0" d="M604.6,125.7h6.4V177h-6.4V125.7z"/>
				<path class="st0" d="M653.3,159.2c0,12.9-9,18.6-17.4,18.6c-9.5,0-16.8-6.9-16.8-18c0-11.7,7.7-18.6,17.3-18.6
					C646.5,141.2,653.3,148.5,653.3,159.2z M625.6,159.5c0,7.7,4.4,13.4,10.6,13.4c6.1,0,10.6-5.7,10.6-13.6c0-5.9-3-13.4-10.5-13.4
					C628.8,146,625.6,152.9,625.6,159.5z"/>
				<path class="st0" d="M680.7,177l-0.5-4.4h-0.2c-1.9,2.7-5.7,5.2-10.7,5.2c-7.1,0-10.7-5-10.7-10c0-8.4,7.5-13.1,21-13V154
					c0-2.9-0.8-8.1-7.9-8.1c-3.2,0-6.6,1-9.1,2.6l-1.4-4.2c2.9-1.9,7.1-3.1,11.5-3.1c10.7,0,13.3,7.3,13.3,14.3v13.1
					c0,3,0.1,6,0.6,8.4H680.7z M679.7,159.1c-6.9-0.1-14.8,1.1-14.8,7.9c0,4.1,2.7,6.1,6,6.1c4.5,0,7.4-2.9,8.4-5.8
					c0.2-0.6,0.4-1.4,0.4-2V159.1z"/>
				<path class="st0" d="M726.3,125.7v42.2c0,3.1,0.1,6.6,0.3,9h-5.7l-0.3-6.1h-0.1c-1.9,3.9-6.2,6.9-11.9,6.9
					c-8.4,0-14.9-7.1-14.9-17.8c-0.1-11.6,7.1-18.8,15.7-18.8c5.3,0,9,2.5,10.5,5.3h0.1v-20.9H726.3z M719.9,156.2
					c0-0.8-0.1-1.9-0.3-2.7c-0.9-4-4.4-7.4-9.2-7.4c-6.6,0-10.5,5.8-10.5,13.5c0,7.1,3.5,12.9,10.3,12.9c4.3,0,8.2-2.8,9.3-7.6
					c0.2-0.9,0.3-1.7,0.3-2.7V156.2z"/>
				<path class="st0" d="M783.8,159.2c0,12.9-9,18.6-17.4,18.6c-9.5,0-16.8-6.9-16.8-18c0-11.7,7.7-18.6,17.3-18.6
					C777,141.2,783.8,148.5,783.8,159.2z M756,159.5c0,7.7,4.4,13.4,10.6,13.4c6.1,0,10.6-5.7,10.6-13.6c0-5.9-3-13.4-10.5-13.4
					C759.3,146,756,152.9,756,159.5z"/>
				<path class="st0" d="M791.8,151.5c0-3.6-0.1-6.6-0.3-9.5h5.6l0.4,5.8h0.1c1.7-3.3,5.8-6.6,11.6-6.6c4.8,0,12.3,2.9,12.3,14.9
					V177h-6.4v-20.1c0-5.6-2.1-10.3-8.1-10.3c-4.2,0-7.4,3-8.5,6.5c-0.3,0.8-0.4,1.9-0.4,3v21h-6.4V151.5z"/>
				<path class="st0" d="M854.8,132v10h9.1v4.8h-9.1v18.8c0,4.3,1.2,6.8,4.8,6.8c1.7,0,2.9-0.2,3.7-0.4l0.3,4.8
					c-1.2,0.5-3.2,0.9-5.6,0.9c-3,0-5.3-0.9-6.9-2.7c-1.8-1.9-2.5-5-2.5-9.1v-19.1h-5.4V142h5.4v-8.4L854.8,132z"/>
				<path class="st0" d="M871,125.7h6.4v21.8h0.1c1-1.8,2.6-3.4,4.5-4.5c1.9-1.1,4.1-1.8,6.5-1.8c4.7,0,12.2,2.9,12.2,14.9V177h-6.4
					v-20.1c0-5.6-2.1-10.4-8.1-10.4c-4.1,0-7.4,2.9-8.5,6.4c-0.4,0.9-0.4,1.8-0.4,3V177H871V125.7z"/>
				<path class="st0" d="M914.6,160.6c0.1,8.6,5.6,12.1,12,12.1c4.5,0,7.3-0.8,9.7-1.8l1.1,4.5c-2.2,1-6.1,2.2-11.6,2.2
					c-10.8,0-17.2-7.1-17.2-17.6s6.2-18.8,16.4-18.8c11.4,0,14.4,10,14.4,16.5c0,1.3-0.1,2.3-0.2,3H914.6z M933.3,156.1
					c0.1-4-1.7-10.3-8.8-10.3c-6.4,0-9.2,5.9-9.7,10.3H933.3z"/>
			</g>
			<g>
				<path class="st0" d="M440.3,274.6l-8.9,27h-11.5l29.2-85.8h13.4l29.3,85.8h-11.8l-9.2-27H440.3z M468.4,266l-8.4-24.7
					c-1.9-5.6-3.2-10.7-4.5-15.7h-0.3c-1.3,5.1-2.7,10.3-4.3,15.5l-8.4,24.8H468.4z"/>
				<path class="st0" d="M503.6,260.1c0-7.9-0.3-14.3-0.5-20.1h10.1l0.5,10.6h0.3c4.6-7.5,11.8-12,21.9-12
					c14.9,0,26.1,12.6,26.1,31.3c0,22.2-13.5,33.1-28,33.1c-8.1,0-15.3-3.6-19-9.7h-0.3v33.5h-11.1V260.1z M514.6,276.5
					c0,1.7,0.3,3.2,0.5,4.6c2,7.8,8.8,13.1,16.8,13.1c11.8,0,18.7-9.7,18.7-23.8c0-12.3-6.5-22.9-18.3-22.9
					c-7.6,0-14.8,5.5-16.9,13.9c-0.4,1.4-0.8,3.1-0.8,4.6V276.5z"/>
				<path class="st0" d="M576,260.1c0-7.9-0.3-14.3-0.5-20.1h10.1l0.5,10.6h0.3c4.6-7.5,11.8-12,21.9-12c14.9,0,26.1,12.6,26.1,31.3
					c0,22.2-13.5,33.1-28,33.1c-8.1,0-15.3-3.6-19-9.7h-0.3v33.5H576V260.1z M587.1,276.5c0,1.7,0.3,3.2,0.5,4.6
					c2,7.8,8.8,13.1,16.8,13.1c11.8,0,18.7-9.7,18.7-23.8c0-12.3-6.5-22.9-18.3-22.9c-7.6,0-14.8,5.5-16.9,13.9
					c-0.4,1.4-0.8,3.1-0.8,4.6V276.5z"/>
				<path class="st0" d="M674.3,288.1c5,3.1,12.2,5.6,19.9,5.6c11.3,0,18-6,18-14.6c0-8-4.6-12.6-16.2-17.1
					c-14-5-22.7-12.2-22.7-24.3c0-13.4,11.1-23.3,27.8-23.3c8.8,0,15.2,2,19,4.2l-3.1,9c-2.8-1.5-8.5-4.1-16.3-4.1
					c-11.7,0-16.2,7-16.2,12.9c0,8,5.2,12,17.1,16.6c14.5,5.6,21.9,12.6,21.9,25.2c0,13.2-9.8,24.7-30,24.7
					c-8.3,0-17.3-2.4-21.9-5.5L674.3,288.1z"/>
				<path class="st0" d="M751.3,222.3V240h16v8.5h-16v33.2c0,7.6,2.2,12,8.4,12c2.9,0,5.1-0.4,6.5-0.8l0.5,8.4
					c-2.2,0.9-5.6,1.5-9.9,1.5c-5.2,0-9.4-1.7-12.1-4.7c-3.2-3.3-4.3-8.8-4.3-16v-33.6h-9.5V240h9.5v-14.8L751.3,222.3z"/>
				<path class="st0" d="M835,270.3c0,22.8-15.8,32.7-30.7,32.7c-16.7,0-29.5-12.2-29.5-31.7c0-20.6,13.5-32.7,30.6-32.7
					C823,238.6,835,251.4,835,270.3z M786.1,270.9c0,13.5,7.8,23.7,18.7,23.7c10.7,0,18.7-10.1,18.7-23.9c0-10.4-5.2-23.7-18.5-23.7
					C791.8,247,786.1,259.2,786.1,270.9z"/>
				<path class="st0" d="M849.1,259.2c0-7.3-0.1-13.5-0.5-19.2h9.8l0.4,12.1h0.5c2.8-8.3,9.5-13.5,17.1-13.5c1.3,0,2.2,0.1,3.2,0.4
					v10.6c-1.1-0.3-2.3-0.4-3.8-0.4c-7.9,0-13.5,6-15,14.4c-0.3,1.5-0.5,3.3-0.5,5.2v32.8h-11.1V259.2z"/>
				<path class="st0" d="M895.7,272.8c0.3,15.2,9.9,21.4,21.1,21.4c8,0,12.9-1.4,17.1-3.2l1.9,8c-3.9,1.8-10.7,3.8-20.5,3.8
					c-19,0-30.3-12.5-30.3-31.1c0-18.6,10.9-33.2,28.9-33.2c20.1,0,25.5,17.7,25.5,29c0,2.3-0.3,4.1-0.4,5.2H895.7z M928.5,264.8
					c0.1-7.1-2.9-18.2-15.5-18.2c-11.3,0-16.3,10.4-17.2,18.2H928.5z"/>
			</g>
		</g>
	</g>
</g>
</svg>
