<?xml version="1.0" encoding="utf-8"?>
<!-- Generator: Adobe Illustrator 23.0.0, SVG Export Plug-In . SVG Version: 6.00 Build 0)  -->
<svg version="1.1" id="Layer_1" xmlns="http://www.w3.org/2000/svg" xmlns:xlink="http://www.w3.org/1999/xlink" x="0px" y="0px"
	 viewBox="0 0 1088.8 290.8" style="enable-background:new 0 0 1088.8 290.8;" xml:space="preserve">
<style type="text/css">
	.st0{fill:#212121;}
	.st1{fill:#212121;stroke:#231F20;stroke-width:3;stroke-miterlimit:10;}
</style>
<title>Artboard</title>
<desc>Created with Sketch.</desc>
<g id="Artboard">
	<path id="Combined-Shape-Copy-3" class="st0" d="M157.58,147.67L157.58,147.67v-22.04c0-27.05-16.03-45.57-44.78-45.57
		c-28.87,0-45.91,18.52-45.91,45.57v91.49H52v-92.5c0-34.66,23.07-58.76,60.8-58.76s59.66,24.1,59.66,58.76v7.84l0,0v32.84
		c0,27.05,17.16,45.57,45.91,45.57c28.87,0,45.91-18.52,45.91-45.57v-91.5h14.88v92.4c0,34.66-23.07,58.76-60.8,58.76
		s-60.8-24.1-60.8-58.76v-18.52H157.58z"/>
</g>
<g>
	<path class="st1" d="M347.02,105.96h7.84l30.02,78.98h-10.61l-6.63-18.45h-33.28l-6.75,18.45H317L347.02,105.96z M364.51,158.06
		l-13.51-37.98l-13.51,37.98H364.51z"/>
	<path class="st1" d="M401.16,154.92v-48.96h9.89v47.87c0,14.47,5.19,22.42,19.05,22.42s19.05-8.08,19.05-22.67v-47.63h9.89v48.35
		c0,19.54-9.17,31.48-28.94,31.48C410.22,185.79,401.16,173.98,401.16,154.92z"/>
	<path class="st1" d="M486.3,105.96h21.83c26.41,0,40.52,14.35,40.52,40.03c0,24.6-14.47,38.83-40.63,38.83h-21.7L486.3,105.96
		L486.3,105.96z M507.04,175.78c19.78,0,31.72-9.04,31.72-30.26c0-20.86-9.65-30.63-30.87-30.63h-11.81v60.77h10.98L507.04,175.78
		L507.04,175.78z"/>
	<path class="st1" d="M572.4,105.96h9.89v78.98h-9.89V105.96z"/>
	<path class="st1" d="M606.04,145.4c0-21.46,11.7-40.39,36.78-40.39c25.2,0,36.9,18.93,36.9,40.39s-11.7,40.39-36.9,40.39
		C617.61,185.79,606.04,166.86,606.04,145.4z M669.34,145.4c0-17-7.6-31.59-26.53-31.59c-18.69,0-26.41,14.59-26.41,31.59
		s7.72,31.72,26.41,31.72C661.62,177.11,669.34,162.39,669.34,145.4z"/>
	<path class="st1" d="M779.55,105.96v78.98h-9.52v-65.71l-23.75,59.09h-9.65l-23.75-59.09v65.6h-9.52v-78.86h13.51l24.6,61.38
		l24.6-61.38C766.06,105.96,779.55,105.96,779.55,105.96z"/>
	<path class="st1" d="M808.61,105.96h51.85v9.04h-42.09v25.8h38.22v9.17h-38.22v25.68h42.09v9.28h-51.85V105.96z"/>
	<path class="st1" d="M877.59,163.48l9.76-2.41c1.44,10.61,9.04,15.92,18.81,15.92c9.89,0,16.04-5.79,16.04-13.27
		c0-19.3-39.79-12.9-39.79-37.98c0-12.9,10.37-20.62,23.03-20.62c9.65,0,17.73,3.98,22.91,13.02l-8.2,5.06
		c-3.38-6.15-8.44-9.28-15.07-9.28c-7.36,0-12.9,4.7-12.9,11.46c0,17.49,39.79,11.46,39.79,37.5c0,13.99-11.46,22.91-26.04,22.91
		C892.17,185.67,879.99,178.07,877.59,163.48z"/>
	<path class="st1" d="M954.52,105.96h9.89v34.73h39.19v-34.73h9.88v78.98h-9.89v-35.09H964.4v35.09h-9.89L954.52,105.96
		L954.52,105.96z"/>
</g>
</svg>
