<?xml version="1.0" encoding="utf-8"?>
<!-- Generator: Adobe Illustrator 22.1.0, SVG Export Plug-In . SVG Version: 6.00 Build 0)  -->
<svg version="1.1" id="Layer_1" xmlns="http://www.w3.org/2000/svg" xmlns:xlink="http://www.w3.org/1999/xlink" x="0px" y="0px"
	 viewBox="0 0 587.8 290.8" style="enable-background:new 0 0 587.8 290.8;" xml:space="preserve">
<style type="text/css">
	.st0{fill:#FFCB0F;stroke:#FFCB0F;}
	.st1{fill:#212121;}
</style>
<title>Artboard</title>
<desc>Created with Sketch.</desc>
<g id="Artboard">
	<path id="Combined-Shape-Copy-3" class="st0" d="M290.5,83.5L290.5,83.5l0-19.4c0-23.8-14.1-40.1-39.4-40.1
		c-25.4,0-40.4,16.3-40.4,40.1v80.5h-13.1V63.2c0-30.5,20.3-51.7,53.5-51.7s52.5,21.2,52.5,51.7v6.9h0V99
		c0,23.8,15.1,40.1,40.4,40.1c25.4,0,40.4-16.3,40.4-40.1V18.5h13.1v81.3c0,30.5-20.3,51.7-53.5,51.7s-53.5-21.2-53.5-51.7V83.5z"/>
</g>
<g>
	<path class="st1" d="M27.7,190h6.5l24.9,65.5h-8.8l-5.5-15.3H17.2l-5.6,15.3H2.8L27.7,190z M42.2,233.2L31,201.7l-11.2,31.5H42.2z"
		/>
	<path class="st1" d="M72.6,230.6V190h8.2v39.7c0,12,4.3,18.6,15.8,18.6c11.5,0,15.8-6.7,15.8-18.8V190h8.2v40.1
		c0,16.2-7.6,26.1-24,26.1C80.1,256.2,72.6,246.4,72.6,230.6z"/>
	<path class="st1" d="M143.2,190h18.1c21.9,0,33.6,11.9,33.6,33.2c0,20.4-12,32.2-33.7,32.2h-18V190z M160.4,247.9
		c16.4,0,26.3-7.5,26.3-25.1c0-17.3-8-25.4-25.6-25.4h-9.8v50.4H160.4z"/>
	<path class="st1" d="M214.6,190h8.2v65.5h-8.2V190z"/>
	<path class="st1" d="M242.5,222.7c0-17.8,9.7-33.5,30.5-33.5c20.9,0,30.6,15.7,30.6,33.5c0,17.8-9.7,33.5-30.6,33.5
		C252.1,256.2,242.5,240.5,242.5,222.7z M295,222.7c0-14.1-6.3-26.2-22-26.2c-15.5,0-21.9,12.1-21.9,26.2c0,14.1,6.4,26.3,21.9,26.3
		C288.6,249,295,236.8,295,222.7z"/>
	<path class="st1" d="M386.4,190v65.5h-7.9V201l-19.7,49h-8l-19.7-49v54.4h-7.9V190h11.2l20.4,50.9l20.4-50.9H386.4z"/>
	<path class="st1" d="M410.5,190h43v7.5h-34.9v21.4h31.7v7.6h-31.7v21.3h34.9v7.7h-43V190z"/>
	<path class="st1" d="M467.7,237.7l8.1-2c1.2,8.8,7.5,13.2,15.6,13.2c8.2,0,13.3-4.8,13.3-11c0-16-33-10.7-33-31.5
		c0-10.7,8.6-17.1,19.1-17.1c8,0,14.7,3.3,19,10.8l-6.8,4.2c-2.8-5.1-7-7.7-12.5-7.7c-6.1,0-10.7,3.9-10.7,9.5
		c0,14.5,33,9.5,33,31.1c0,11.6-9.5,19-21.6,19C479.8,256.1,469.7,249.8,467.7,237.7z"/>
	<path class="st1" d="M531.5,190h8.2v28.8h32.5V190h8.2v65.5h-8.2v-29.1h-32.5v29.1h-8.2V190z"/>
</g>
</svg>
