<?xml version="1.0" encoding="UTF-8"?>
<svg width="200px" height="141px" viewBox="0 0 200 141" version="1.1" xmlns="http://www.w3.org/2000/svg" xmlns:xlink="http://www.w3.org/1999/xlink">
    <!-- Generator: Sketch 52.2 (67145) - http://www.bohemiancoding.com/sketch -->
    <title>Artboard</title>
    <desc>Created with Sketch.</desc>
    <g id="Artboard" stroke="none" stroke-width="1" fill="none" fill-rule="evenodd">
        <path d="M93,72.9683878 L92.9722471,72.9683878 L92.9722471,53.5280866 C92.9722471,29.7677184 78.8370636,13.4692841 53.5478962,13.4692841 C28.1629364,13.4692841 13.1235452,29.7677184 13.1235452,53.5280866 L13.1235452,134 L0,134 L1.45204317e-14,52.7426199 C1.45204317e-14,22.2076013 20.3079678,1 53.5478962,1 C86.7878245,1 106,22.2076013 106,52.7426199 L106,59.6547931 L106.027753,59.6547931 L106.027753,88.4719134 C106.027753,112.232282 121.162936,128.530716 146.452104,128.530716 C171.837064,128.530716 186.876455,112.232282 186.876455,88.4719134 L186.876455,8 L200,8 L200,89.2573801 C200,119.792399 179.692032,141 146.452104,141 C113.212175,141 93,119.792399 93,89.2573801 L93,72.9683878 Z" id="Combined-Shape-Copy-3" stroke="#FFCB0F" fill="#FFCB0F"></path>
    </g>
</svg>