<?xml version="1.0" encoding="utf-8"?>
<!-- Generator: Adobe Illustrator 23.0.0, SVG Export Plug-In . SVG Version: 6.00 Build 0)  -->
<svg version="1.1" id="Layer_1" xmlns="http://www.w3.org/2000/svg" xmlns:xlink="http://www.w3.org/1999/xlink" x="0px" y="0px"
	 viewBox="0 0 773.8 513.8" style="enable-background:new 0 0 773.8 513.8;" xml:space="preserve">
<style type="text/css">
	.st0{fill:#FFCB0F;stroke:#FFCB0F;stroke-width:1.8607;}
	.st1{fill:#212121;}
</style>
<title>Artboard</title>
<desc>Created with Sketch.</desc>
<g id="Artboard">
	<path id="Combined-Shape-Copy-3" class="st0" d="M373.78,174.8L373.78,174.8v-36.1c0-44.28-26.24-74.61-73.31-74.61
		c-47.26,0-75.17,30.33-75.17,74.61v149.78h-24.37V137.03c0-56.75,37.77-96.2,99.55-96.2s97.68,39.45,97.68,96.2v12.84l0,0v53.77
		c0,44.28,28.1,74.61,75.17,74.61c47.26,0,75.17-30.33,75.17-74.61V53.86h24.37v151.27c0,56.75-37.77,96.2-99.55,96.2
		s-99.55-39.45-99.55-96.2V174.8z"/>
</g>
<g>
	<path class="st1" d="M67.17,360.37h7.88l30.17,79.36H94.55l-6.66-18.54H54.45l-6.78,18.54H37L67.17,360.37z M84.74,412.71
		l-13.57-38.16L57.6,412.71H84.74z"/>
	<path class="st1" d="M121.57,409.56v-49.19h9.93v48.1c0,14.54,5.21,22.54,19.14,22.54s19.14-8.12,19.14-22.78v-47.86h9.93v48.58
		c0,19.63-9.21,31.62-29.08,31.62C130.65,440.57,121.57,428.7,121.57,409.56z"/>
	<path class="st1" d="M207.1,360.37h21.93c26.53,0,40.71,14.42,40.71,40.22c0,24.72-14.54,39.01-40.83,39.01H207.1V360.37z
		 M227.94,430.52c19.87,0,31.86-9.09,31.86-30.41c0-20.96-9.69-30.77-31.02-30.77h-11.87v61.06h11.03V430.52z"/>
	<path class="st1" d="M293.61,360.37h9.93v79.36h-9.93V360.37z"/>
	<path class="st1" d="M327.41,399.99c0-21.57,11.75-40.59,36.95-40.59c25.32,0,37.07,19.02,37.07,40.59s-11.75,40.59-37.07,40.59
		S327.41,421.55,327.41,399.99z M391.02,399.99c0-17.08-7.63-31.74-26.65-31.74c-18.78,0-26.53,14.66-26.53,31.74
		s7.75,31.86,26.53,31.86C383.27,431.85,391.02,417.07,391.02,399.99z"/>
	<path class="st1" d="M501.76,360.37v79.36h-9.57V373.7l-23.87,59.37h-9.69l-23.87-59.37v65.91h-9.57v-79.24h13.57l24.72,61.67
		l24.72-61.67H501.76z"/>
	<path class="st1" d="M530.96,360.37h52.1v9.09h-42.28v25.93h38.41v9.21h-38.41v25.81h42.28v9.33h-52.1V360.37z"/>
	<path class="st1" d="M600.26,418.16l9.81-2.42c1.45,10.66,9.09,15.99,18.9,15.99c9.93,0,16.11-5.82,16.11-13.33
		c0-19.39-39.98-12.96-39.98-38.16c0-12.96,10.42-20.72,23.14-20.72c9.69,0,17.81,4,23.02,13.08l-8.24,5.09
		c-3.39-6.18-8.48-9.33-15.14-9.33c-7.39,0-12.96,4.73-12.96,11.51c0,17.57,39.98,11.51,39.98,37.68
		c0,14.05-11.51,23.02-26.17,23.02C614.92,440.45,602.68,432.82,600.26,418.16z"/>
	<path class="st1" d="M677.55,360.37h9.93v34.89h39.38v-34.89h9.93v79.36h-9.93v-35.26h-39.38v35.26h-9.93V360.37z"/>
</g>
</svg>
