<?xml version="1.0" encoding="utf-8"?>
<!-- Generator: Adobe Illustrator 23.0.0, SVG Export Plug-In . SVG Version: 6.00 Build 0)  -->
<svg version="1.1" id="Layer_1" xmlns="http://www.w3.org/2000/svg" xmlns:xlink="http://www.w3.org/1999/xlink" x="0px" y="0px"
	 viewBox="0 0 1088.8 290.8" style="enable-background:new 0 0 1088.8 290.8;" xml:space="preserve">
<style type="text/css">
	.st0{fill:#212121;}
</style>
<title>Artboard</title>
<desc>Created with Sketch.</desc>
<g id="Artboard">
	<path id="Combined-Shape-Copy-3" class="st0" d="M123.07,147.55L123.07,147.55v-20.89c0-25.64-15.19-43.19-42.44-43.19
		c-27.36,0-43.51,17.56-43.51,43.19v86.72H23v-87.68C23,92.84,44.87,70,80.63,70s56.55,22.84,56.55,55.7v7.43l0,0v31.13
		c0,25.64,16.26,43.19,43.51,43.19c27.36,0,43.51-17.56,43.51-43.19V77.53h14.11v87.58c0,32.86-21.87,55.7-57.63,55.7
		s-57.63-22.84-57.63-55.7v-17.56H123.07z"/>
</g>
<g>
	<path class="st0" d="M297.73,103.03h8.42l32.25,84.85h-11.4l-7.12-19.82h-35.76l-7.25,19.82h-11.4L297.73,103.03z M316.52,159
		l-14.51-40.8L287.5,159H316.52z"/>
	<path class="st0" d="M355.9,155.63v-52.59h10.62v51.43c0,15.54,5.57,24.09,20.46,24.09c14.89,0,20.46-8.68,20.46-24.35v-51.17
		h10.62v51.94c0,20.99-9.85,33.81-31.09,33.81C365.62,188.79,355.9,176.1,355.9,155.63z"/>
	<path class="st0" d="M447.36,103.03h23.45c28.37,0,43.53,15.42,43.53,43c0,26.43-15.54,41.71-43.65,41.71h-23.32L447.36,103.03
		L447.36,103.03z M469.64,178.04c21.25,0,34.07-9.71,34.07-32.51c0-22.41-10.37-32.91-33.16-32.91h-12.69v65.28h11.79L469.64,178.04
		L469.64,178.04z"/>
	<path class="st0" d="M539.86,103.03h10.62v84.85h-10.62V103.03z"/>
	<path class="st0" d="M576,145.4c0-23.06,12.57-43.4,39.51-43.4c27.08,0,39.64,20.34,39.64,43.4s-12.57,43.4-39.64,43.4
		S576,168.45,576,145.4z M644,145.4c0-18.26-8.16-33.94-28.5-33.94c-20.08,0-28.37,15.68-28.37,33.94s8.29,34.07,28.37,34.07
		C635.71,179.47,644,163.66,644,145.4z"/>
	<path class="st0" d="M762.4,103.03v84.85h-10.23v-70.6l-25.52,63.48h-10.37l-25.52-63.48v70.47h-10.23v-84.72h14.51l26.43,65.94
		l26.43-65.94C747.9,103.03,762.4,103.03,762.4,103.03z"/>
	<path class="st0" d="M793.62,103.03h55.7v9.71h-45.21v27.72h41.06v9.85h-41.06v27.59h45.21v9.97h-55.7V103.03z"/>
	<path class="st0" d="M867.72,164.83l10.49-2.59c1.55,11.4,9.71,17.1,20.2,17.1c10.62,0,17.23-6.22,17.23-14.25
		c0-20.73-42.74-13.86-42.74-40.8c0-13.86,11.14-22.15,24.74-22.15c10.37,0,19.05,4.28,24.62,13.99l-8.81,5.44
		c-3.63-6.6-9.06-9.97-16.19-9.97c-7.91,0-13.86,5.05-13.86,12.31c0,18.79,42.74,12.31,42.74,40.29c0,15.03-12.31,24.62-27.98,24.62
		C883.39,188.67,870.31,180.5,867.72,164.83z"/>
	<path class="st0" d="M950.37,103.03h10.62v37.31h42.1v-37.31h10.61v84.85h-10.62v-37.7h-42.1v37.7h-10.62L950.37,103.03
		L950.37,103.03z"/>
</g>
</svg>
