<?xml version="1.0" encoding="utf-8"?>
<!-- Generator: Adobe Illustrator 22.1.0, SVG Export Plug-In . SVG Version: 6.00 Build 0)  -->
<svg version="1.1" id="Layer_1" xmlns="http://www.w3.org/2000/svg" xmlns:xlink="http://www.w3.org/1999/xlink" x="0px" y="0px"
	 viewBox="0 0 1080 418" style="enable-background:new 0 0 1080 418;" xml:space="preserve">
<style type="text/css">
	.st0{clip-path:url(#SVGID_2_);}
	.st1{fill:#FFFFFF;}
	.st2{clip-path:url(#SVGID_2_);fill:none;}
	.st3{fill:#FFCB0F;stroke:#FFCB0F;}
</style>
<g>
	<defs>
		<rect id="SVGID_1_" x="353" y="13" width="410" height="397"/>
	</defs>
	<clipPath id="SVGID_2_">
		<use xlink:href="#SVGID_1_"  style="overflow:visible;"/>
	</clipPath>
	<g class="st0">
		<g>
			<path class="st1" d="M539.1,408.3c-106.6,0-213.2,0-319.9,0c0-135.3,0-270.7,0-406c206.7,0,413.5,0,620.2,0
				c0,135.3,0,270.7,0,406c-39.9,0-79.9,0-119.8,0c0.1-0.4,0.1-0.8,0.2-1.1c1.8-7.1,3.7-14.2,5.3-21.3c1.8-8,3.4-16,4.8-24.1
				c1.5-8.7,2.8-17.4,4.1-26.1c0.5-3.4,1-6.8,1.4-10.2c0.5-3.9,0.9-7.9,1.4-11.9c0.8-5.9,1.7-11.9,2.4-17.8
				c0.9-7.1,1.9-14.2,2.7-21.3c0.8-7,1.6-14,2.2-21.1c0.4-5,0.6-10.1,0.7-15.1c0.1-3.8,0.1-7.6,0.1-11.4c0-4.2-0.2-8.3-0.2-12.5
				c0.1-6.3,0.4-12.7,0.4-19c0-4.7-0.5-9.5-0.8-14.2c-0.5-7.1-1.2-14.2-3.1-21.1c-1.4-5.1-3.4-10-5.4-14.8c-0.9-2.2-2.6-4.2-3.9-6.3
				c-0.5-0.9-0.9-1.9-1-2.8c-0.3-3-1.5-5.3-4.1-6.8c-0.5-0.3-1.1-0.6-1.4-1.1c-1.4-2.5-3.8-3.6-6.2-4.7c-4.5-2.2-9-4.3-13.5-6.5
				c-3.1-1.5-6-3.3-9.2-4.6c-3.9-1.6-8-2.9-12-4.3c-3.3-1.2-6.6-2.6-10.3-2.1c-0.4,0-0.8-0.1-1.1-0.2c-6.8-1.7-13.5-3.4-20.3-5.1
				c-0.6-0.1-1.2-0.7-1.5-1.3c-1.8-3.1-4.5-5.1-8-6c-10.2-2.7-20.3-5.4-30.4-8.1c-0.4-0.1-1-0.3-1.2-0.7c-0.5-1.2-1.6-1.4-2.6-1.7
				c-1-0.3-2-0.4-3-0.7c-0.3-0.1-0.8-0.4-0.8-0.6c-0.1-0.8-0.2-1.7,0-2.5c0.7-3.3,0.3-4.9-2.8-6.3c-3-1.3-6.3-2.1-9.5-3
				c-1.2-0.3-2-0.9-2.6-1.8c-4-5.8-8.6-11.2-13.9-16c-9.6-8.9-20.7-14.7-33.5-17.3c-3.7-0.8-7.5-1.3-11.1-2.7
				c-8.9-3.4-18.1-4.9-27.7-4c-4.7,0.5-9.5,0.7-14.2,0.7c-6.6,0.1-13.2,0.8-19.6,2.6c-2.3,0.6-2.4,0.6-3.8-1.3
				c-0.4-0.5-1-0.8-1.6-1.2c-0.3-0.2-0.7-0.4-1.1-0.7c-1.5-1-3-2.1-4.5-3.1c-1.2-0.8-2.4-1.6-3.5-2.4c-1-0.7-2-1.7-3.1-2.2
				c-2.9-1.2-6-2.4-9-3.4c-4.3-1.5-8.7-1.2-13,0.2c-0.8,0.3-1.7,0.5-2.6,0.7c-0.7,0.1-1.2,0.3-1.1,1.2c0.1,0.6-0.1,1.2-1.1,1
				c0.2-0.4,0.3-0.7,0.4-1c-2.1-1.1-2.3-1.1-3.4-0.1c-0.8-0.1-1.4-0.3-2-0.3c-1,0.1-2,0.3-3,0.6c-0.3,0.1-0.5,0.6-0.8,0.9
				c0.4,0,0.8,0.2,1.1,0c2.2-0.8,4.4,0.3,6.5,0.1c0,0,0.1,0.1-0.1-0.1c-1.8,0.9-3.6,1.8-5.4,2.6c-0.1-0.1-0.1-0.2-0.2-0.2
				c0.6-0.6,1.1-1.2,1.8-1.8c-2-0.7-3.6,0.2-4.5,2.7c1.5,0,2.9,0,4.2,0c0,0.2,0,0.3,0.1,0.5c-2.8-0.6-4.7,1-6.6,2.8
				c-0.1-0.1-0.2-0.3-0.3-0.4c0.7-0.8,1.4-1.6,2.3-2.6c-2.9-0.5-4.4,1.4-6,3c-0.1-0.1-0.2-0.2-0.3-0.3c0.6-0.7,1.1-1.5,1.7-2.2
				c-0.1-0.1-0.1-0.2-0.2-0.3c-1,0.3-2,0.6-3,0.9c-0.1-0.2-0.1-0.3-0.2-0.5c0.9-0.4,1.8-1.1,2.7-1c1.2,0.1,2.2-0.2,3.3-0.2
				c1.5,0,1.8-1,2.4-2c-0.6-0.1-1.2,0-1.6-0.2c-0.8-0.4-1.2-0.3-1.7,0.5c-0.1,0.2-0.6,0.3-0.9,0.4c-0.7,0.2-1.4,0.2-2.1,0.4
				c-0.5,0.1-1,0.5-1.5,0.7c-0.7,0.2-1.5,0.4-1.2,1.5c0,0.2-0.2,0.6-0.4,0.7c-1.2,0.5-2.8,0-3.5,1.6c-1.9,0-2.9,1.7-4.1,2.7
				c-2.4,2-4.3,4.5-6.3,7c-1.2,1.4-1.7,3.4-3,4.7c-2,2-2.5,4.7-3.6,7.1c-0.6,1.4-1,3-1.4,4.6c-0.6,2.5-1.2,5.1-1.8,7.6
				c-0.1,0.2,0.1,0.5,0.1,0.8c0,1.6-0.1,3.1-0.1,4.6c0,1.8,0.1,3.6,0.2,5.4c0,1,0,1.9,0.3,2.9c0.4,1.6,0.9,3.2,1.4,4.8
				c0.7,2.2,1.4,4.3,2.2,6.4c0.5,1.3,1.2,2.5,1.8,3.7c0.9,1.7,1.8,3.4,2.9,4.9c1.1,1.5,2.5,2.9,3.8,4.3c1.7,1.7,3.5,3.3,5.3,4.9
				c0.7,0.6,1,1.1,0.6,2.2c-1.7,4.5-3.3,9.1-4.8,13.7c-3.1,9.7-5.4,19.6-7.1,29.6c-1.8,10.9-3,21.8-3.4,32.8
				c-0.4,9.8,0.2,19.5,1.6,29.2c0.4,2.5,0.5,4.9,0,7.4c-0.6,3-1,6.1-1.1,9.2c-0.1,2.7,0.3,5.4,0.6,8.1c0.1,0.7,0.6,1.3,0.8,1.9
				c0.2,0.6,0.5,1.1,0.4,1.7c-0.1,1.5-0.5,3-0.5,4.5c-0.2,6.5,1.5,12.5,5.6,17.6c0.6,0.7,0.7,1.3-0.1,2c-4.4,4-7,9.1-8.5,14.7
				c-2.5,8.8-2.3,17.7-0.8,26.6c2.8,16.6,9.9,31.4,20.2,44.6c1.5,1.9,3.3,3.7,5.1,5.4c0.7,0.6,1,1.2,1.1,2.1
				c0.5,3.2-0.1,6.5,0.6,9.7c1,5,3,9.3,6.6,12.9c2.4,2.4,5.2,3.7,8.5,3.9c3.7,0.2,4.8-1.1,4.4-4.8c-0.4-3.1-0.7-6.2-1-9.4
				c0.2,0.1,0.7,0.2,1.1,0.3c2.9,0.7,5.7,1.7,8.6,2c5.7,0.8,11-0.6,16.2-3.1c0.9-0.4,2-0.6,2.9-0.4c7.5,1,14.3-0.6,20.6-4.6
				c0.4-0.2,1.1-0.2,1.6,0c2.6,1,5.1,2.2,7.8,3c1.1,0.4,2,0.8,2.8,1.6c3.3,3.4,7.2,5.8,11.6,7.4c2.2,0.8,4.3,0.5,6-1.1
				c1.5-1.4,3.2-0.8,5.1-0.8c-0.4,1.2-0.9,2.3-1.5,3.3c-0.3,0.6-1,1-1.2,1.6c-0.7,2.3-1.5,4.4-3.2,6.2c-0.3,0.3-0.5,0.9-0.7,1.4
				c-0.9,1.8-1.8,3.5-2.7,5.3c-0.6,1.1-1.2,2.3-1.6,3.5c-0.8,2.2-0.3,3.8,1.7,5.1c1.9,1.1,3.9,1.5,6.1,1.3c4.9-0.5,8.6-3.1,11.3-7
				c2.4-3.4,5.1-6.7,6.5-10.8c0.9-2.8,2.6-5.3,4-7.9c0.2-0.3,0.3-0.7,0.6-0.8c1.9-0.8,3.9-1.5,5.9-2.3c0,0.4,0.1,0.7,0.1,1
				c-0.1,3.7-0.4,7.4-0.4,11.2C539.1,392,539.1,400.1,539.1,408.3z"/>
			<path d="M539.1,408.3c0-8.1,0-16.3,0-24.4c0-3.7,0.3-7.4,0.4-11.2c0-0.3,0-0.6-0.1-1c-2.1,0.8-4,1.5-5.9,2.3
				c-0.3,0.1-0.4,0.5-0.6,0.8c-1.4,2.6-3,5.2-4,7.9c-1.4,4.1-4.1,7.4-6.5,10.8c-2.7,3.9-6.4,6.5-11.3,7c-2.1,0.2-4.2-0.1-6.1-1.3
				c-2-1.2-2.6-2.8-1.7-5.1c0.4-1.2,1-2.3,1.6-3.5c0.9-1.8,1.8-3.5,2.7-5.3c0.2-0.5,0.4-1,0.7-1.4c1.7-1.7,2.5-3.9,3.2-6.2
				c0.2-0.6,0.9-1,1.2-1.6c0.6-1,1.1-2.1,1.5-3.3c-1.8,0-3.5-0.6-5.1,0.8c-1.7,1.6-3.7,1.9-6,1.1c-4.4-1.6-8.3-4-11.6-7.4
				c-0.8-0.8-1.6-1.3-2.8-1.6c-2.6-0.8-5.2-2-7.8-3c-0.5-0.2-1.2-0.2-1.6,0c-6.3,4-13.2,5.6-20.6,4.6c-0.9-0.1-2.1,0-2.9,0.4
				c-5.1,2.5-10.5,3.8-16.2,3.1c-2.9-0.4-5.7-1.3-8.6-2c-0.4-0.1-0.8-0.2-1.1-0.3c0.4,3.2,0.7,6.3,1,9.4c0.4,3.7-0.7,4.9-4.4,4.8
				c-3.3-0.2-6.2-1.5-8.5-3.9c-3.6-3.6-5.6-7.9-6.6-12.9c-0.6-3.2-0.1-6.5-0.6-9.7c-0.1-0.9-0.4-1.5-1.1-2.1
				c-1.8-1.7-3.5-3.5-5.1-5.4c-10.3-13.2-17.4-28-20.2-44.6c-1.5-8.9-1.6-17.8,0.8-26.6c1.6-5.6,4.1-10.7,8.5-14.7
				c0.8-0.7,0.7-1.3,0.1-2c-4.1-5.2-5.7-11.1-5.6-17.6c0-1.5,0.4-3,0.5-4.5c0-0.6-0.2-1.1-0.4-1.7c-0.2-0.7-0.7-1.3-0.8-1.9
				c-0.3-2.7-0.7-5.4-0.6-8.1c0.1-3.1,0.5-6.2,1.1-9.2c0.5-2.5,0.4-4.9,0-7.4c-1.4-9.7-2-19.4-1.6-29.2c0.4-11,1.6-22,3.4-32.8
				c1.7-10,4-19.9,7.1-29.6c1.5-4.6,3.1-9.2,4.8-13.7c0.4-1,0.1-1.5-0.6-2.2c-1.8-1.6-3.6-3.2-5.3-4.9c-1.4-1.4-2.7-2.8-3.8-4.3
				c-1.1-1.5-2-3.2-2.9-4.9c-0.7-1.2-1.3-2.4-1.8-3.7c-0.8-2.1-1.5-4.3-2.2-6.4c-0.5-1.6-1-3.2-1.4-4.8c-0.2-0.9-0.2-1.9-0.3-2.9
				c-0.1-1.8-0.1-3.6-0.2-5.4c0-1.5,0-3.1,0.1-4.6c0-0.3-0.1-0.5-0.1-0.8c0.6-2.5,1.2-5.1,1.8-7.6c0.4-1.6,0.7-3.1,1.4-4.6
				c1.1-2.4,1.6-5.1,3.6-7.1c1.3-1.3,1.9-3.2,3-4.7c2-2.4,3.9-5,6.3-7c1.2-1,2.2-2.7,4.1-2.7c0.7-1.6,2.4-1.1,3.5-1.6
				c0.2-0.1,0.5-0.5,0.4-0.7c-0.3-1.1,0.5-1.2,1.2-1.5c0.5-0.2,1-0.5,1.5-0.7c0.7-0.2,1.4-0.2,2.1-0.4c0.3-0.1,0.8-0.1,0.9-0.4
				c0.4-0.7,0.9-0.9,1.7-0.5c0.4,0.2,1,0.2,1.6,0.2c-0.6,1-1,2-2.4,2c-1.1,0-2.1,0.4-3.3,0.2c-0.9-0.1-1.8,0.6-2.7,1
				c0.1,0.2,0.1,0.3,0.2,0.5c1-0.3,2-0.6,3-0.9c0.1,0.1,0.1,0.2,0.2,0.3c-0.6,0.7-1.1,1.5-1.7,2.2c0.1,0.1,0.2,0.2,0.3,0.3
				c1.6-1.7,3.1-3.5,6-3c-0.8,1-1.6,1.8-2.3,2.6c0.1,0.1,0.2,0.3,0.3,0.4c1.8-1.8,3.7-3.4,6.6-2.8c0-0.2,0-0.3-0.1-0.5
				c-1.4,0-2.8,0-4.2,0c0.9-2.5,2.5-3.4,4.5-2.7c-0.6,0.6-1.2,1.2-1.8,1.8c0.1,0.1,0.1,0.2,0.2,0.2c1.8-0.9,3.6-1.8,5.4-2.6
				c0.1,0.2,0.1,0.1,0.1,0.1c-2.2,0.2-4.3-0.9-6.5-0.1c-0.3,0.1-0.7,0-1.1,0c0.3-0.3,0.5-0.8,0.8-0.9c1-0.3,2-0.5,3-0.6
				c0.6-0.1,1.2,0.1,2,0.3c1.1-1,1.3-1,3.4,0.1c-0.1,0.3-0.2,0.6-0.4,1c1,0.2,1.1-0.4,1.1-1c-0.1-0.9,0.3-1.1,1.1-1.2
				c0.9-0.1,1.7-0.4,2.6-0.7c4.3-1.4,8.7-1.7,13-0.2c3,1,6,2.1,9,3.4c1.1,0.5,2.1,1.5,3.1,2.2c1.2,0.8,2.4,1.6,3.5,2.4
				c1.5,1,3,2.1,4.5,3.1c0.3,0.2,0.7,0.4,1.1,0.7c0.5,0.4,1.2,0.7,1.6,1.2c1.4,1.9,1.5,1.9,3.8,1.3c6.4-1.8,12.9-2.5,19.6-2.6
				c4.7,0,9.5-0.2,14.2-0.7c9.6-1,18.8,0.5,27.7,4c3.6,1.4,7.3,1.9,11.1,2.7c12.8,2.7,23.9,8.5,33.5,17.3c5.2,4.8,9.8,10.2,13.9,16
				c0.7,1,1.5,1.5,2.6,1.8c3.2,0.9,6.5,1.7,9.5,3c3.1,1.3,3.6,3,2.8,6.3c-0.2,0.8-0.1,1.7,0,2.5c0,0.2,0.5,0.5,0.8,0.6
				c1,0.3,2,0.4,3,0.7c1,0.3,2.1,0.4,2.6,1.7c0.1,0.3,0.7,0.6,1.2,0.7c10.1,2.7,20.3,5.4,30.4,8.1c3.5,0.9,6.1,2.9,8,6
				c0.3,0.5,0.9,1.1,1.5,1.3c6.8,1.7,13.5,3.4,20.3,5.1c0.4,0.1,0.8,0.2,1.1,0.2c3.7-0.5,7,0.9,10.3,2.1c4,1.4,8,2.7,12,4.3
				c3.1,1.3,6.1,3.1,9.2,4.6c4.5,2.2,9,4.3,13.5,6.5c2.4,1.1,4.8,2.2,6.2,4.7c0.3,0.5,0.9,0.8,1.4,1.1c2.7,1.5,3.9,3.9,4.1,6.8
				c0.1,1,0.5,2,1,2.8c1.2,2.1,2.9,4.1,3.9,6.3c2,4.8,4,9.8,5.4,14.8c1.9,6.9,2.6,14,3.1,21.1c0.3,4.7,0.7,9.5,0.8,14.2
				c0,6.3-0.3,12.7-0.4,19c0,4.2,0.2,8.3,0.2,12.5c0,3.8,0,7.6-0.1,11.4c-0.2,5-0.3,10.1-0.7,15.1c-0.6,7-1.4,14.1-2.2,21.1
				c-0.8,7.1-1.8,14.2-2.7,21.3c-0.8,5.9-1.7,11.9-2.4,17.8c-0.5,3.9-0.9,7.9-1.4,11.9c-0.4,3.4-0.9,6.8-1.4,10.2
				c-1.3,8.7-2.6,17.5-4.1,26.1c-1.4,8.1-3,16.1-4.8,24.1c-1.6,7.1-3.5,14.2-5.3,21.3c-0.1,0.4-0.1,0.8-0.2,1.1c-4.2,0-8.4,0-12.6,0
				c0.8-2.4,1.7-4.8,2.3-7.2c1.6-6.4,3.3-12.9,4.7-19.3c1.5-7,2.8-14.1,4-21.2c1.2-7.1,2.2-14.3,3.2-21.5c0.9-6.7,1.8-13.4,2.7-20.1
				c1.3-9.1,2.6-18.1,3.8-27.2c1.4-10.4,2.7-20.7,3.8-31.1c0.6-5.9,1-11.9,1.2-17.9c0.2-5.9,0.2-11.8,0.2-17.7
				c0-16.2,0.5-32.5-1.1-48.7c-1-9.4-3.2-18.3-7.1-26.9c-0.4-0.9-1-1.3-2.1-1.5c-2-0.2-3.9-0.6-5.8,0.2c-0.4,0.2-0.9,0.1-1.4,0.1
				c-4.9-0.6-9.8-1.4-14.7-1.6c-2.8-0.1-5.8-1.5-8.6,0.3c-0.1,0.1-0.3,0.1-0.5,0.1c-2.5-0.3-5.1-0.4-7.6-1c-4.6-1-9.1-2.3-13.7-3.5
				c-0.7-0.2-1.3-0.2-2-0.4c-3.8-1.1-7.5-2.4-11.3-3.4c-4.2-1.1-8.5-2.1-12.7-3c-0.8-0.2-1.9,0-2.7,0.3c-2.5,1.2-5.1,1.8-7.8,1.2
				c-3.9-0.8-7.9-1.6-11.8-2.5c-2.2-0.5-4.3-1-6.7-1.6c0.3,2.1,0.6,3.9,0.9,5.7c1.4,9.3,2,18.6,2.2,27.9c0.2,11.5-0.2,22.9-2.2,34.2
				c-1,5.8-2.5,11.6-3.7,17.3c-0.3,1.3-0.3,2.6-0.2,3.9c0.1,3.2,0.6,6.3,0.4,9.5c-0.2,3.4-1,6.8-1.6,10.1c-0.1,0.7-0.6,1.2-0.9,1.9
				c0.2,4.9-0.3,9.8-2.3,14.5c-0.1,0.3-0.2,0.7-0.2,1c-0.5,5.7-2,11.1-4.1,16.4c-3.1,7.8-7.4,14.8-12.6,21.4
				c-0.6,0.8-0.8,1.5-0.7,2.5c0.2,1.9,0.3,3.9,0.2,5.8c-0.3,8.7-3,16.8-6.9,24.5c-3,6-6.9,11.4-11.1,16.6c-0.6,0.7-0.9,1.4-0.8,2.5
				c0.2,2.4,0.4,4.8,0.4,7.1c0,5.2-0.2,10.4-0.2,15.7c0,3.1,0.5,6.2,0.5,9.3c0.1,5.6,0.1,11.1,0.2,16.7c0,3.5,0,6.9,0,10.4
				c-8,0-15.9,0-23.9,0c-1-13.7,0.3-27.3,0.3-41.1c-1.6-0.2-1.4,1.1-1.5,1.9c-2.4,13-2.4,26-1,39.1
				C544.1,408.3,541.6,408.3,539.1,408.3z M395.6,67.4c0.8,0.5,1.4,0,1.9-1.7C396.8,66.4,396.2,66.9,395.6,67.4
				c-0.1-1.1-1.1-2.3-2.6-2.7C393.6,66,394.5,66.8,395.6,67.4z M449.9,61.9c1.2,0.4,3.5-0.3,4.6-1.4c-0.7,0-1.4-0.3-1.9,0
				C451.6,60.8,450.3,60.7,449.9,61.9c-0.9-0.7-1.9-1.4-2.9-2c-0.2-0.1-0.6,0-0.9,0.1c0,0.2,0,0.5,0.1,0.6c1,0.7,2.1,1.4,3.2,2
				C449.4,62.6,449.7,62.2,449.9,61.9z M449.1,66.6c1.3,0.3,4-0.7,4.6-1.7c-0.8-0.1-1.6-0.2-2-0.3c-0.7,0.4-1.2,0.7-1.7,0.9
				C449.4,65.7,448.9,65.8,449.1,66.6c-0.9-0.6-1.9-1.3-2.8-1.9c-0.2-0.1-0.5,0-0.8,0.1c0.1,0.2,0,0.6,0.2,0.7
				c0.9,0.6,1.9,1.2,2.9,1.7C448.6,67.1,448.9,66.8,449.1,66.6z M448.6,71.3c-0.8-0.5-1.6-1.1-2.5-1.5c-0.2-0.1-0.6,0-0.9,0
				c0.1,0.3,0.2,0.8,0.4,0.9c0.8,0.5,1.6,0.9,2.5,1.2C448.1,71.9,448.4,71.4,448.6,71.3c1.3,0.1,4.2-1.1,4.8-2.4
				c-1.6,0.4-3.2,0.9-4.7,1.5C448.5,70.4,448.6,70.9,448.6,71.3z M432.1,70.9c2.5-1.1,4.8-2.5,6.9-4.3c-1.4,0.4-2.8,0.8-3.9,1.6
				C433.9,68.9,433.1,70,432.1,70.9c-1.1-0.8-2.2-1.6-3.6-2.5c0.5,1.8,2.8,3.6,5.2,3.9C433.2,71.8,432.6,71.4,432.1,70.9z M453,49.1
				c1.2,0.5,2.2,0,3-0.5c-0.6-1.1-1.3-2-1.6-2.9c-0.7-1.9-2.4-2.8-4-3.7c1.1,2.1,3.6,3.3,4.1,5.6C453.9,48.2,453.4,48.7,453,49.1
				c-1.2-1.3-2.5-2.5-4.3-2.9c1.1,1.3,2.4,2.4,3.7,3.5C452.4,49.7,452.8,49.3,453,49.1z M424.7,64.5c2.3-1.4,4.6-2.8,6.9-4.2
				c-0.1-0.1-0.1-0.2-0.2-0.4c-0.6,0.2-1.2,0.3-1.7,0.6c-1.3,0.7-2.2,0.4-3.1-0.6c-1.3-1.4-1.3-1.9,0.5-2.8c1.7-0.8,3.5-1.6,5.2-2.4
				c0.1-0.1,0.2-0.3,0.4-0.6c-0.4,0-0.6,0-0.8,0.1c-3.7,1.1-2.9,1.4-5.2-1.6c-0.5-0.7-1.2-1.1-1.9-1.7c-0.1,0.1-0.2,0.2-0.3,0.3
				c0.5,1.9,2.6,2.6,3.4,4.4c-1,0.9-2,1.8-3,2.7c-1-0.8-1.9-1.6-2.8-2.3c-0.1,0.1-0.2,0.3-0.4,0.4c1.5,1.4,2.9,2.8,4.4,4.2
				c0.9,0.8,1.1,1.3,0.1,2.2C425.7,63.2,425.2,63.9,424.7,64.5c-1.1-0.8-2.2-1.6-3.4-2.5c0.7,1.7,1.9,3,3.4,4
				c0.6,0.4,1.3,0.8,1.6,1.4c0.2,0.5-0.1,1.2-0.2,1.9c1.9-0.7,3.4-1.9,4.8-3.3c-0.9,0.2-1.7,0.6-2.5,1c-0.4,0.1-0.9,0.3-1.2,0.1
				C426.3,66.2,425.5,65.3,424.7,64.5z M434.5,53.7c-1.2-1-2.4-1.9-3.6-2.9c-0.1,0.1-0.2,0.2-0.3,0.3c0.2,0.2,0.4,0.5,0.6,0.7
				c1.3,1.4,2.7,2.7,4.1,4.1c0.7,0.7,0.6,1.1-0.2,1.6c-0.8,0.4-1.5,1-2.3,1.5c-1-0.8-2.1-1.6-3.2-2.5c-0.1,0.2-0.3,0.3-0.4,0.5
				c2,1.8,3.9,3.5,6.1,5.4c-1.2,0.9-2.2,1.6-3.2,2.4c-1.1-0.8-2.1-1.5-3-2.2c-0.1,0.1-0.2,0.3-0.3,0.4c1.4,1.7,2.9,3.2,5.1,3.9
				c-1.1-1.8-1.1-2,1-2.9c0.2-0.1,0.3-0.1,0.5-0.2c1.4-0.8,2.9-1.7,4.3-2.5c-1.2,0.1-2.5,0.9-3.5,0.7c-1-0.2-1.8-1.4-2.9-2.4
				c2.2-1.1,4-2,5.8-2.9c0-0.1-0.1-0.2-0.1-0.4c-0.5,0.1-1,0.2-1.5,0.2c-0.3,0-0.7,0-0.9-0.2C435.8,55.4,435.1,54.5,434.5,53.7
				c1.7-0.7,3.4-1.4,5.2-2.1c-2.2-0.8-3-1.4-3.5-3.2c1.5-0.6,3-1.3,4.5-1.9c0.1-0.1,0.2-0.3,0.3-0.4c-1.9,0.3-2.4-1-3-2.1
				c-0.2-0.4-0.4-0.8-0.8-1.2c-0.4-0.4-0.9-0.8-1.3-1.2c-0.1,0.1-0.3,0.2-0.4,0.3c0.9,1.4,1.9,2.8,2.8,4.3c-1,0.6-1.9,1.1-2.8,1.6
				c-1-0.8-1.9-1.5-2.9-2.3c-0.1,0.1-0.1,0.1-0.2,0.2c1.5,1.8,3,3.7,4.5,5.6c-0.8,0.5-1.4,0.7-1.9,1.2
				C434.8,52.9,434.7,53.3,434.5,53.7z M548.2,244c-0.1-0.5-0.1-0.7-0.2-1c-0.9-2.5-1.7-5.1-1.4-7.9c0.3-2.5-0.6-4.3-2.7-5.5
				c-1.1-0.6-1.5-1.6-1.5-2.9c0.2-4.6,0.2-9.2,0.4-13.9c0-0.6,0.5-1.2,0.7-1.8c0.1-0.4,0.3-1.1,0.1-1.2c-1.5-1.2-2.7-3-4.9-3.3
				c-0.5-0.1-1.1-0.6-1.5-1.1c-0.6-0.8-1.1-1.8-1.6-2.7c-1.2-2-2.2-3.9-2-6.4c0.3-3.5,0.1-6.9,0.1-10.4c0-1.4,0.3-2.8,1.6-3.5
				c1.1-0.6,1.3-1.5,1.3-2.6c0-1.8-0.1-3.6,0.1-5.4c0.5-6.7,0.9-13.5,0.5-20.3c-0.4-6.7-1.7-13.2-4.5-19.4c-0.8-1.7-1.9-2.6-3.6-2.8
				c-4.4-0.6-8.8-1.3-13.2-1.8c-1.8-0.2-3.4-0.7-4.5-2.4c-1.6-2.5-3.2-5-4.9-7.5c-0.6-0.9-1.3-1.7-2.2-2.7c0.1-2-1.2-3.6-3.6-4
				c-2.2-0.4-4.5-0.8-6.7-1.1c-6.4-0.8-12.8-1.6-19.2-2.5c-2.9-0.4-5.8-0.4-8.5-1.8c-1-0.5-1.9-0.3-3,0.1c-1.7,0.7-3.4,1.3-5.2,1.7
				c-1,0.2-1.8,0.7-2.7,1.1c-2.3,1.1-4.8,1.8-7.2,2.4c-1.8,0.5-3.6,0.7-5.4,1.1c-0.2,0.1-0.5,0.5-0.6,0.8
				c-1.7,5.3-3.7,10.5-5.1,15.9c-1.8,7.1-3.4,14.2-4.8,21.4c-1,5.4-1.6,10.8-2.2,16.3c-0.5,4.9-0.9,9.9-1.2,14.8
				c-0.2,4-0.2,8-0.3,11.9c0,1.2,0.5,2,1.8,2.1c2.6,0.2,5.1,0.5,7.7,0.5c9.2-0.2,18.1-2.4,27.1-3.7c2.4-0.3,4.9-0.6,7.3-0.5
				c4.1,0.2,5.4,3.1,3,6.5c-0.3,0.4-0.6,0.8-0.9,1.1c-3.2,2.7-6.3,5.5-9.5,8.2c-5.5,4.6-10.5,9.6-14.3,15.7c-0.6,0.9-1,1.8-0.4,2.9
				c0.1,0.3,0.1,0.8,0,1.1c-0.5,1.3-1,2.6-1.5,3.9c-0.5,1.2-0.3,1.4,1,1.7c1.9,0.5,3.8,0.8,5.5,1.6c3.8,1.6,7.1,4,11.1,5.1
				c0.3,0.1,0.5,0.4,0.8,0.6c0.6,0.5,1.1,0.9,1.7,1.4c3,2.7,6.6,4.5,9.3,7.6c3.1,3.5,6.5,6.7,8.7,10.9c0,0.1,0.2,0.1,0.2,0.1
				c1.1-0.7,2.4-1,2.9-2.4c0.1-0.2,0.4-0.4,0.7-0.6c1.8-1.5,4.2-2.3,5.7-4.3c0-0.1,0.1-0.1,0.2-0.1c1.1,0.1,1.6-0.8,2.2-1.4
				c1.9-1.6,3.9-2.9,6.2-4c1.7-0.8,3.3-1.6,5-2.3c1.6-0.7,3.2-1.5,4.8-1.9c4.1-1.1,8.2-2.1,12.3-2.9c2.7-0.5,5.2-1.8,8-1.3
				c2,0.4,3.9,0.7,5.9,1.1c2,0.4,3.9,0.8,5.9,1.2C547.3,243.9,547.6,243.9,548.2,244z M434.5,231c0,0.3,0.1,0.6,0.1,0.9
				c0,1.8,0.2,2,2,1.8c1.5-0.2,3-0.2,4.4-0.5c0.4-0.1,0.9-0.6,1.1-1c0.6-1.6,1-3.3,1.7-4.9c0.2-0.6,1-0.9,1.5-1.4
				c0.4-0.3,1-0.6,1.2-1c3.8-7.5,9.7-13.2,16-18.5c2.6-2.1,5.2-4.2,7.7-6.4c0.3-0.3,0.4-0.8,0.6-1.3c-0.4-0.1-0.9-0.3-1.3-0.3
				c-1.1,0.1-2.2,0.2-3.3,0.4c-7.2,1.1-14.5,2.3-21.7,3.3c-4.5,0.6-9.1,0.5-13.6-0.4c-1.8-0.4-2.2,0-2.1,1.9c0.4,3.7,0.6,7.4,1,11.1
				c0.1,1.3,0.5,2.6,1,3.8C432.8,222.5,434.6,226.5,434.5,231z M448.9,86.5c0.6-0.7,0.9-1.3,1.4-1.5c2-0.8,3.8-1.9,4.6-4.1
				c1,0.8,1,1-0.2,2.9c-0.4-0.1-0.8-0.1-1.6-0.3c0.6,1.2,1.8,2.2,0.6,3.1c-0.8,0.5-2,0.5-3,0.8c0.1,0.3,0.1,0.7,0.2,1.1
				c-0.6,0.2-1.1,0.3-1.6,0.6c-0.5,0.2-0.9,0.6-1.3,1c-0.4-0.1-0.9-0.3-1.4-0.4c-0.1,0.1-0.1,0.2-0.2,0.3c0.3,0.3,0.6,0.7,1,0.8
				c0.6,0.3,1.4,0.5,2,0.8c0.7,0.3,1.5,0.7,1.1,1.7c-0.3,0.7-0.8,1.3-1.2,1.9c-0.7-0.4-1.3-0.7-1.8-0.9c0.1-1,0.1-1.8,0.2-2.6
				c-0.1,0-0.3-0.1-0.4-0.1c-0.6,0.9-1.3,1.8-2,2.8c0.1,0.2,0.2,0.7,0.5,1.2c0.5-0.3,0.9-0.6,1.3-0.8c1,0.8,2.1,1.6,0.9,3.1
				c0.4-0.3,0.6-0.4,0.7-0.7c2.1-3.5,4.4-6.8,6.1-10.4c4.6-9.5,7.1-19.6,7.5-30.2c0.3-6.5-0.5-12.9-2.4-19.2
				c-0.3-1.1-0.9-2.1-1.3-3.2c0.4,2.5,0.9,5,1.4,7.4c0.6,2.5,0.2,2.5-2.3,2.4c-1.4-0.1-0.9-1.5-1.4-2.1c1.2-0.3,2.2-0.5,3-0.7
				c-0.5-1.2-0.8-2.1-1.2-3c-0.4-1.1-0.9-1.9-2.3-2.3c0.7,1.6,1.3,3,1.9,4.4C456,41,456,41,455,40.1c-0.9-0.7-1.8-1.3-2.7-2
				c0,0-0.1,0.1-0.1,0.1c1.3,1.8,2.6,3.6,4,5.5c-0.5,0.3-0.7,0.4-0.9,0.5c-0.3,0.2-0.6,0.5-0.9,0.7c0.4,0.1,0.8,0.3,1.2,0.2
				c1.1-0.1,2.1-0.4,3.2-0.5c1.5-0.1,1.9,0.5,1.5,2c-1-0.1-1.7-1.4-3.3-0.9c0.5,0.5,0.9,0.8,1.2,1.1c0.2,0.2,0.7,0.5,0.7,0.7
				c-0.1,1.4,0.8,1.1,1.7,0.9c0,0.9,0,1.8,0,2.6c-1.7,0-2.8-1.9-4.6-1.6c0.6,1.1,1.1,1.9,1.7,2.8c0.1,0.1,0.5,0.2,0.7,0.2
				c1.2-0.4,1.7,0.7,2.2,1.3c0.2,0.3,0.2,1.1-0.1,1.4c-0.2,0.2-1,0.2-1.4,0c-0.9-0.4-1.8-1-2.7-1.5c-0.4-0.2-0.9-0.1-1.3-0.1
				c0,0.1,0,0.2,0,0.3c0.7,0.7,1.5,1.5,2.3,2.3c1.3-0.2,3.1,1.2,3,2.8c-0.7,0-1.4,0.2-2.1,0c-0.8-0.2-1.6-0.8-2.4-1.1
				c-0.4-0.2-0.9-0.1-1.3-0.2c0.4,1,0.7,1.7,1.1,2.4c0.1,0.2,0.5,0.3,0.7,0.3c1.1-0.2,3.1,0.5,3.6,1.4c0.3,0.5,0.3,1-0.5,1.1
				c-0.5,0-1,0.2-1.4,0.1c-1.1-0.3-2.1-0.7-3.2-1.1c-0.3-0.1-0.7,0-1.4,0c0.4,0.5,0.6,0.8,0.8,0.9c1.3,0.7,2.6,1.4,3.8,2.1
				c0.4,0.3,0.7,0.8,0.9,1.2c0.1,0.2-0.2,0.7-0.3,0.7c-1,0.2-2,0.9-3,0c-0.3-0.3-0.7-0.5-1.1-0.6c-0.3-0.1-0.8,0-1.1,0
				c0.1,0.3,0.3,0.6,0.4,0.9c0.2,0.5,0.5,0.9,0.6,1c1.3,0.4,2.6,0.6,3.8,1.1c0.3,0.1,0.5,0.8,0.6,1.2c0,0.2-0.3,0.7-0.6,0.7
				c-1.2,0.1-2.4,0.7-3.5-0.3c-0.2-0.2-0.6-0.4-0.9-0.5c-0.3-0.1-0.6,0.1-0.9,0.1c0.1,0.3,0.1,0.6,0.3,0.8c0.3,0.5,0.8,0.9,1.2,1.3
				c0.8-0.4,3.3,0.6,3.4,1.5c0,0.4-0.4,0.8-0.6,1.2c-0.2,0.3-0.5,0.6-0.7,0.9c-0.8-0.4-1.7-1-2.6-1.4c-0.2-0.1-0.5,0-0.8,0.1
				c0.1,0.3,0.1,0.7,0.2,0.9c1,1.1,1,1.3-0.3,2c-0.7,0.4-1.6,0.5-2.5,0.8c-0.4,1.4-2.3,1-2.9,2.1c-0.9-0.4-1.6-0.8-2.3-1.2
				c-0.1,0.1-0.2,0.3-0.2,0.4c0.4,1.1,1.5,1.3,2.4,1.6c0.5,0.1,1.1-0.2,1.6-0.5c0.6-0.3,1-0.8,1.6-1c1.9-0.5,3.2-1.8,4.3-3.3
				c2.1,0.3,2.4,1.8,0.8,3.4c-0.6-0.3-1.1-0.6-1.7-0.9c-0.2-0.1-0.5,0-0.8,0.1c0.1,0.3,0,0.6,0.2,0.8c0.8,0.8,0.4,1.4-0.2,1.9
				c-0.5,0.4-1.1,0.8-1.7,1.1c-1.3,0.8-2.5,1.6-3.9,2.4c-0.5-0.3-1.3-0.6-2.2-1.1C446,85.9,447.4,86.6,448.9,86.5z M456.3,92.1
				c8.5-11.1,13-43.7,7.3-53.5C467,57.3,464.2,75,456.3,92.1z M516.6,266.4c-0.6,0.2-1.2,0.3-1.6,0.6c-5.2,3.3-10.3,6.7-15.4,10
				c-1.7,1.2-3.4,2.5-5,3.8c-1,0.8-1.9,1.8-2.9,2.7c-0.4,0.5-0.9,1-1.4,1.6c-0.6,0.7-1.4,1.4-1.9,2.2c-0.2,0.3,0.2,0.8,0.3,1.3
				c0.3-0.1,0.8-0.2,1-0.4c1.1-1,2.1-2,3.1-3c3.3-3,6.5-6.1,10-8.8C507.2,272.9,511.9,269.8,516.6,266.4z M591.3,278.3
				c-0.1-0.1-0.2-0.1-0.3-0.2c-2.1,1.7-4.2,3.3-6.3,5c-0.2,0.1-0.1,0.8,0,1.1c0.9,1.6,1.8,3.2,2.7,4.8c0.1,0.2,0.4,0.4,0.7,0.8
				C589.9,286,591,282.3,591.3,278.3z M594.5,284.5c2.1-2.5,7.1-14,6.9-15.5c-1.8,1.3-3.8,2.6-5.6,4.1c-0.3,0.2-0.4,0.9-0.4,1.4
				c-0.1,1.5,0,3.1-0.2,4.6C595.1,280.7,594.8,282.4,594.5,284.5z M481.6,49.5c-0.1,0-0.3,0-0.4,0c0,0.3,0,0.6,0.1,0.9
				c0.5,2.2,0.9,4.3,1.5,6.5c0.6,2.2,0.1,4.4,0.4,6.6c0.2,1.4,0.1,3-0.1,4.5c-0.5,3.6-1,7.1-1.6,10.6c-0.3,1.4-0.9,2.8-1.5,4.5
				c-0.2,0.7-0.4,1.9-0.8,3.1c-0.4,1.1-0.8,2.3-1.3,3.4c0.2,0,0.3,0.1,0.5,0.1C484.3,76.6,486.3,63.3,481.6,49.5z M578.9,177.6
				c1.6-3.4-0.5-37.6-2.3-39.5c0,0.3-0.1,0.6-0.1,0.8c0.3,3.3,0.8,6.5,1,9.8c0.4,4.9,0.7,9.9,0.9,14.8c0.1,4.1,0.1,8.3,0.1,12.5
				C578.5,176.4,578.7,176.8,578.9,177.6z M516.2,272.7c-0.1-0.2-0.2-0.3-0.4-0.5c-1.5,0.9-3.1,1.8-4.6,2.8
				c-2.5,1.9-5.1,3.8-7.4,5.9c-3.2,3-6.2,6.2-9.2,9.3c-0.2,0.2-0.2,0.7-0.3,1.3C501.6,284.7,508.2,278,516.2,272.7z M407.1,295.1
				c-0.2,0.6-0.3,0.9-0.3,1.1c0.3,1.7,0.5,3.5,1,5.1c0.9,2.9,2,5.7,3.1,8.5c0.3,0.8,0.7,1.6,1.2,2.4c0.8,1.5,1.6,3.1,2.5,4.6
				c0.2,0.4,0.5,0.7,0.8,1c0.1-0.1,0.1-0.1,0.2-0.2C412.8,310.3,410,302.9,407.1,295.1z M573.4,246.7c2.6-3.9,5.2-7.7,7.7-11.6
				c-0.6-0.8-1.4-0.8-2.2,0.1c-0.9,1-1.9,1.8-2.7,2.8c-1.9,2.4-3.2,5.2-4,8.3C572.8,246.4,573.2,246.6,573.4,246.7z M493.7,76.1
				c0.2,0,0.4,0,0.6,0c0-1.8,0.1-3.5,0.1-5.3c0-0.4-0.6-0.9-1-1c-0.3-0.1-0.8,0.4-1,0.7c-0.4,0.5-0.7,1.2-1.1,2
				c-0.8-1.3,0.3-2.7-0.8-3.6c-0.3,1.5-0.5,3.1-0.4,4.6c0,0.5,0.6,0.9,0.9,1.4c0.4-0.3,0.9-0.6,1.3-1c0.4-0.4,0.6-0.9,1-1.5
				C494,73.8,492.7,75.1,493.7,76.1z M494.8,65.5c-0.4-0.8-0.6-1.7-1.1-2c-1.1-0.6-2.3-0.9-3.5-1.3c-0.2,1-0.1,1.7,0.9,2.1
				c0.7,0.3,1,0.7,0.7,1.5c-0.5,0-0.9,0.1-1.5,0.2c0.2,0.7,0.2,1.5,0.5,1.7c1.2,0.7,2.5,1.1,3.8,1.6c0.3-1.2,0.2-2-0.9-2.4
				c-0.4-0.1-0.5-0.8-0.8-1.2c0.4-0.1,0.8-0.1,1.2-0.2C494.2,65.5,494.3,65.5,494.8,65.5z M418,240.5c-0.1,2,0.4,2.5,2,2.1
				c0.5-0.1,1.1-0.2,1.4-0.5c0.4-0.5,0.7-1.2,0.7-1.8c0-0.7-0.4-1.5-0.9-1.9c-0.4-0.4-1.2-0.7-1.9-0.7c-0.4,0-0.9,0.7-1.1,1.2
				C418.1,239.4,418.1,240.2,418,240.5z M676.7,127c2.5-1.8,3.1-9.6,1-11.7C677.4,119.3,677,123.2,676.7,127z M448.1,49.5
				c0-0.1,0-0.2,0-0.3c-1.4,0-1.9-0.9-2.2-1.9c-0.8-2.1-2.6-3.2-4.4-4.4c1.2,2.2,3.5,3.7,4.4,6.2c-0.9,0.4-1.7,0.7-2.4,1.1
				c-1.2-0.9-2.3-1.8-3.6-2.8c0.2,1.5,3.6,4.7,4.2,4.2c0-0.3-0.1-0.5-0.1-0.7C445.5,50.4,446.8,50,448.1,49.5z M489.7,59.4
				c0.1,1.5,0.7,2.1,2.7,2.5c1.3,0.3,1.9-0.3,1.6-1.6c-0.5-2.1-2.8-3.8-5.1-3.6c0.3,0.5,0.7,0.9,1.1,1.2c0.7,0.4,1.5,0.5,2.1,0.9
				c0.4,0.2,0.6,0.8,0.9,1.3c-0.5,0-0.9,0.2-1.3,0.1C491,59.9,490.4,59.6,489.7,59.4z M437.1,80.3c0.1,1.3,2.1,2.7,3.2,2.5
				c0.2,0,0.4-0.2,0.5-0.3c0.4-1.3,1.5-1.7,2.5-2.1c1.5-0.7,2.5-1.8,3.1-3.3c-1.3,0.5-2,2.1-3.7,1.6c-0.1,0.9-0.1,0.9-3.3,3
				C438.6,81.2,437.8,80.7,437.1,80.3z M430.5,71.6c-0.9,0.6-1.6,1.1-2.4,1.6c-0.5,0.4-0.9,0.4-1.4-0.1c-1.7-1.5-3.5-2.9-5.3-4.4
				c-0.2-0.1-0.4-0.2-0.9-0.3c0.3,0.5,0.4,0.8,0.5,1c1.1,1.5,2.4,2.7,4.1,3.4c1,0.4,1.9,1,1.2,2.4C427.9,75,430.5,72.9,430.5,71.6z
				 M446.3,72.1c-0.5,0.3-1.1,0.7-1.6,0.9c-0.6,0.2-1.3,0.3-1.9,0.5c-0.1,0-0.1,0.1-0.2,0.1c-0.8,0.7-1.6,1.4-2.5,2
				c-0.3,0.2-0.8,0.2-1.2,0.1c-0.7-0.3-1.3-0.7-2-1.2c0,1.4,2,2.8,3.5,2.7c0.5-0.6,1-1.4,1.7-1.6C444,74.9,445.2,73.7,446.3,72.1z
				 M421.1,75.1c-0.1,0.1-0.2,0.2-0.3,0.3c0.1,0.3,0.2,0.6,0.4,0.8c1.2,1,2.5,2.1,3.8,2.9c1,0.7,2.3,1,2.1,2.8
				c0.9-0.6,1.8-1.3,2.5-2c0.4-0.4,0.5-1.1,0.8-1.6c-0.5,0.3-1,0.7-1.5,0.9c-0.5,0.2-1.2,0.7-1.6,0.6c-1-0.4-1.8-1.1-2.7-1.7
				C423.5,77,422.3,76,421.1,75.1z M440.4,72.2c0-0.2,0.1-0.4,0.1-0.5c0.9-0.6,1.8-1.1,2.7-1.7c0.9-0.5,1.8-1.1,2.7-1.6
				c-0.1-0.1-0.1-0.3-0.2-0.4c-0.9,0.1-1.9,0.3-2.8,0.4c0.1,0.1,0.1,0.1,0.2,0.2c-1.1,0.7-2.2,1.5-3.2,2.2c-0.8-0.6-1.5-1.1-2.2-1.5
				c-0.2-0.1-0.5-0.1-0.8-0.1c0.1,0.3,0,0.6,0.2,0.8C438.2,70.7,439.3,71.5,440.4,72.2z M422.6,72c-0.2,0.1-0.4,0.1-0.6,0.2
				c-0.8,0.5-1.6,1.4-2.3,1.4c-0.8-0.1-1.5-1-2.2-1.6c-0.2-0.1-0.3-0.3-0.5-0.4c-1.1-1-2.2-2-3.6-3.3c0.2,0.5,0.2,0.7,0.3,0.9
				c1,1.8,2.4,3.2,4.2,4.2c0.9,0.5,1.7,1,0.9,2.3C420.6,75,422.6,73.1,422.6,72z M422,81.5c-0.1,0.1-0.2,0.2-0.4,0.3
				c0.2,0.4,0.4,0.8,0.7,1.1c1.2,1.3,2.6,2.3,4.4,2.8c0.9,0.3,1.8,0.6,1.4,1.9c1.9-0.6,3.1-2.4,2.6-3.7c-0.5,0.5-0.9,1.1-1.4,1.5
				c-0.3,0.2-0.9,0.5-1.2,0.4c-0.9-0.4-1.8-1-2.6-1.5C424.3,83.4,423.2,82.4,422,81.5z M414.1,61.9c-0.1,0-0.2,0.1-0.3,0.1
				c0.7,1,1.4,2.1,2.3,3c0.9,0.9,2,1.6,3,2.3c-0.2,0.5-0.3,0.9-0.4,1.3c0.1,0.1,0.2,0.2,0.3,0.3c1.4-1,2.9-2,4.3-3
				c-0.1-0.2-0.3-0.4-0.4-0.6c-0.7,0.4-1.4,0.8-2.1,1.3c-0.7,0.5-1.1,0.4-1.8-0.2C417.4,64.8,415.7,63.4,414.1,61.9z M420.7,81.6
				c1.4-0.5,2.5-2,2-3.2c-0.4,0.4-0.8,0.8-1.1,1.2c-0.6,0.8-1.2,0.8-1.9,0.2c-1.6-1.4-3.2-2.7-4.9-4.1c-0.2-0.2-0.4-0.3-0.9-0.7
				c0.2,0.6,0.2,0.9,0.4,1.1c1.1,1.5,2.3,2.8,4,3.6C419.1,80.1,419.8,80.9,420.7,81.6z M446.8,58.6c-1.1-0.2-2-0.4-2.8-0.5
				c0,0.5,0,0.5-2.7,2.1c-1.3-0.5-2.1-1.9-3.5-2.1c-0.1,0.2-0.2,0.3-0.3,0.5c1.4,1.1,2.8,2.2,4,3.2C443,59.7,445.3,60,446.8,58.6z
				 M437.3,63.3c-0.1,0.2-0.2,0.3-0.4,0.5c1.2,1.3,2.5,2.4,4.2,3c0.9-2.3,3.7-1.6,4.8-3.5c-2.4-0.6-3.7,1.4-5.5,2
				C439.4,64.7,438.3,64,437.3,63.3z M445.2,74.4c-0.1,0.1-0.1,0.2-0.2,0.4c0.3,1,2.4,2.2,3.2,1.9c1.6-0.7,3.1-1.5,4.7-2.3
				c0.4-0.2,0.7-0.7,1-1c-0.1-0.1-0.2-0.2-0.3-0.3c-2.1,0.8-4.1,1.7-6.3,2.5C446.7,75.2,445.9,74.8,445.2,74.4z M433.8,48.9
				c-0.3,0-0.6-0.1-0.9,0c-1.9,0.5-3.5,0.4-4.5-1.7c-0.3-0.7-1.2-1.3-1.8-1.9c-0.1,0.1-0.3,0.3-0.4,0.4c1,1.3,1.9,2.7,2.9,4
				c-0.9,0.8-1.6,1.5-2.3,2.1c0.1,0,0.1,0.1,0.2,0.1C429.2,50.9,431.5,49.9,433.8,48.9z M437.6,85.9c0.5,1.4,2.3,2.4,3.4,2.2
				c0.3-0.6,0.4-1.1,0.8-1.4c0.4-0.4,1-0.8,1.6-1.1c1.5-0.7,2.6-1.9,3.1-3.5c-1.2,0.7-2.3,1.6-3.4,2.5c-0.9,0.8-1.7,1.8-2.7,2.2
				c-0.5,0.2-1.4-0.6-2.1-0.9C438.1,85.9,437.9,85.9,437.6,85.9z M407.8,75.5c0,0.1,0,0.3,0,0.4c0.9,1.7,2,3.3,3.9,4.1
				c0.6,0.2,1.1,0.6,1.6,1c0.4,0.3,0.7,1.2,1.4,0.5c0.6-0.7,1.6-1.2,1.3-2.8c-0.8,0.7-1.3,1.3-2.1,2
				C411.8,79.1,409.8,77.3,407.8,75.5z M415.4,82.1c-0.1,0.1-0.2,0.1-0.3,0.2c0.1,0.3,0,0.6,0.2,0.8c1.2,1,2.4,2.1,3.7,3
				c1,0.7,2.2,1.2,3.4,1.8c1.2-0.8,1.8-1.9,1.2-2.9c-0.3,0.3-0.6,0.5-0.7,0.9c-0.5,0.9-1.1,1-2,0.4c-0.9-0.6-1.8-1.1-2.7-1.8
				C417.3,83.7,416.4,82.9,415.4,82.1z M418.7,62.1c0.1,0.1,0.2,0.2,0.3,0.3c1.6-1,3.2-1.9,4.7-2.9c-0.1-0.2-0.2-0.3-0.2-0.5
				c-0.4,0.2-0.8,0.3-1.2,0.5c-2,1-2,1-3.6-0.7c-0.8-0.9-1.7-1.7-2.6-2.5c-0.1,0.1-0.2,0.2-0.3,0.3c0.5,1.9,2.5,2.7,3.6,4.2
				C419.2,61.2,418.9,61.6,418.7,62.1z M447.5,53.7c-2.1-0.4-3.6,0.6-5.1,1.3c-1.2-0.8-2.3-1.6-3.5-2.4c-0.1,0.2-0.3,0.4-0.4,0.6
				c1.4,1.2,2.8,2.3,3.9,3.2C444,54.9,446.1,55.1,447.5,53.7z M407.2,68.7c0.7,1.7,1.5,3.2,3.2,4.2c0.9,0.5,1.7,1.3,2.6,2
				c1.2-0.5,2.3-1.7,2.1-2.9c-0.7,0.6-1.4,1.1-2.3,1.8C411,72.2,409.1,70.5,407.2,68.7z M674.3,116c-0.3,3-0.6,6-0.9,9.1
				C675.2,123.3,675.7,118,674.3,116z M416,88.5c1.2-0.9,1.5-1.6,1.1-2.6c-0.5,0.5-0.9,1-1.3,1.5c-2.7-1-4.8-2.8-6.6-4.9
				C410,86.1,413.5,86.7,416,88.5z M417.7,50.3c-0.1,0.1-0.3,0.2-0.4,0.3c0.5,0.7,0.9,1.4,1.4,2c1.3,1.5,1.4,1.5,0.8,3.4
				c1.9-0.9,3.7-1.8,5.5-2.7c0-0.1-0.1-0.3-0.1-0.4c-0.5,0.1-1,0.2-1.5,0.4c-2.3,0.7-2.3,0.7-3.9-1.2
				C418.9,51.5,418.3,50.9,417.7,50.3z M446.7,55.1c-0.1,0.2-0.1,0.4-0.2,0.5c1.2,0.8,2.4,1.8,3.7,2.4c0.4,0.2,1.2-0.1,1.8-0.3
				c1.1-0.3,2.2-0.7,3.3-1.1c0-0.1-0.1-0.2-0.1-0.3c-0.8,0-1.8-0.3-2.5,0.1c-1.7,0.9-3,0.5-4.3-0.7c-0.2-0.2-0.5-0.4-0.9-0.6
				C447.3,55,447,55.1,446.7,55.1z M413.5,243c0,1.2,0.6,2,1.5,2c0.9,0,1.7-0.8,1.7-1.9c0-0.9-0.8-1.9-1.6-1.8
				C414.1,241.4,413.5,242,413.5,243z M420.2,49.9c0,0.1,0.1,0.1,0.1,0.2c2-0.9,4.1-1.8,6.1-2.8c0-0.1-0.1-0.2-0.1-0.4
				c-0.6,0.1-1.2,0.2-1.8,0.5c-1.3,0.5-2.3,0.3-3-1.1c-0.4-0.8-1.2-1.4-1.8-2.1c-0.2,0.1-0.3,0.2-0.5,0.3c0.8,1.2,1.7,2.5,2.5,3.7
				C421.2,48.9,420.7,49.4,420.2,49.9z M433.5,44.1c0-0.2,0.1-0.3,0.1-0.5c-2.1,0.6-2.3-1-3.1-2.1c-0.4-0.6-1-1.2-1.5-1.7
				c-0.2,0.1-0.3,0.2-0.5,0.3c0.8,1.3,1.5,2.6,2.3,3.9c-0.9,0.7-1.8,1.3-2.6,2c0.1,0.1,0.2,0.2,0.3,0.3
				C430.2,45.6,431.8,44.9,433.5,44.1z M448.7,45.2c-1.3-2.7-2.3-5.5-5-6.6c1.2,1.8,2.5,3.8,4,5.9c-0.8,0.3-1.3,0.4-1.7,0.6
				c-0.2,0.1-0.3,0.4-0.5,0.6c0.2,0.1,0.5,0.4,0.7,0.3C447.1,45.8,448,45.4,448.7,45.2z M411.6,61.6c0.1,0,0.2,0.1,0.3,0.1
				c1.5-0.9,3-1.9,4.6-2.8c-0.1-0.2-0.2-0.4-0.3-0.6c-0.5,0.3-1.1,0.5-1.6,0.8c-1.1,0.8-2,0.7-2.9-0.5c-0.6-0.8-1.4-1.4-2.1-2.1
				c-0.2,0.1-0.3,0.3-0.5,0.4c0.7,0.8,1.3,1.6,2,2.3C411.7,59.9,412.6,60.4,411.6,61.6z M422.3,38.6c-0.2,0.1-0.3,0.2-0.5,0.3
				c0.6,1.1,1.2,2.3,1.8,3.4c-0.9,0.8-1.7,1.6-2.6,2.4c2.5-1.1,5-2.1,7.4-3.1c-0.9,0-1.8,0.1-2.6,0.3c-0.9,0.2-1.5-0.1-1.9-1
				C423.5,40.1,422.8,39.4,422.3,38.6z M419.7,92.8c-0.9,0.4-1.6,0.9-2,0.7c-2.1-0.7-3.8-1.9-5.2-3.6c-0.3-0.3-0.6-0.6-0.9-0.8
				c-0.2,0.4-0.2,0.7-0.1,0.9c1,1.5,2.1,2.9,4,3.4c1.1,0.3,2.1,0.9,3.4,1.4C419,94.3,419.3,93.6,419.7,92.8z M411.7,68.4
				c1.5-0.8,2.9-1.5,3.8-2.9c-0.1-0.1-0.2-0.3-0.3-0.4c-0.8,0.5-1.7,1.1-2.6,1.6c-1.4-1.2-2.8-2.5-4.2-3.7c-0.1,0.1-0.2,0.2-0.3,0.2
				c0.2,0.4,0.4,0.9,0.7,1.2c0.7,0.7,1.4,1.2,2.1,1.8C411.6,66.9,412.2,67.4,411.7,68.4z M424.6,93.9c0.6-0.4,1-1.2,0.8-2.5
				c-0.3,0.3-0.5,0.4-0.6,0.6c-0.5,1.1-1.1,1.3-2.1,0.6c-1.5-1.1-3-2.1-4.6-3.2c-0.3-0.2-0.6-0.5-1-0.8c-0.1,0.3-0.2,0.4-0.2,0.5
				c0,0.1,0,0.3,0.1,0.4c1.1,1.3,2.1,2.6,3.9,3.1C422.1,92.8,423.2,93.4,424.6,93.9z M404,82.6c0.6,3.7,3.7,4.7,6.6,6.2
				c0.3-0.6,0.6-1.3,0.9-1.9c-0.1-0.1-0.2-0.1-0.4-0.2c-0.3,0.4-0.6,0.7-1,1.1C407.6,86.6,405.5,85,404,82.6z M455.5,52.6
				c0-0.2-0.1-0.3-0.1-0.5c-0.6,0-1.3-0.3-1.7-0.1c-1.6,0.9-2.8,0.3-4-0.8c-0.3-0.3-0.7-0.6-1.2-0.8c-0.3-0.1-0.6-0.1-0.9-0.1
				c0,0.1-0.1,0.3-0.1,0.4c1.3,1.1,2.7,2.1,3.9,3C452.8,53.4,454.1,53,455.5,52.6z M554.4,262.4c0.7-0.6,1.6-1.1,2.1-1.8
				c0.3-0.4,0.2-1.2,0-1.7c-0.1-0.2-0.9-0.3-1.3-0.2C553.7,259.2,553.3,260.7,554.4,262.4z M438.4,37.1c-0.1,0.1-0.3,0.2-0.4,0.2
				c0.4,0.6,0.7,1.3,1.1,1.9c0.4,0.7,0.7,1.3,1.1,2.1c-0.9,0.5-1.6,0.9-2.4,1.4c0.1,0.2,0.2,0.4,0.3,0.6c1.4-0.5,2.8-1.1,3.9-1.5
				c-0.6-0.6-1-1.1-1.4-1.6C439.9,39.1,439.7,37.7,438.4,37.1z M411.2,49.8c-0.2,0.1-0.3,0.3-0.5,0.4c0.8,1.2,1.7,2.3,2.5,3.5
				c-0.2,0.3-0.3,0.7-0.5,1c0.1,0.1,0.1,0.2,0.2,0.3c1.5-0.8,3.1-1.7,4.6-2.5c-0.1-0.2-0.2-0.3-0.2-0.5c-0.8,0.3-1.5,0.5-2.3,0.9
				c-0.7,0.3-1.1,0.3-1.6-0.4C412.8,51.5,412,50.7,411.2,49.8z M408.2,82c0.7-0.6,1.4-1.2,1.5-2.2c-0.1-0.1-0.2-0.1-0.3-0.2
				c-0.5,0.4-0.9,0.8-1.5,1.4c-1.9-1.6-3.7-3.2-5.4-4.7C402.9,79.5,406,80.2,408.2,82z M430.4,40.4c0.1,0.2,0.1,0.4,0.2,0.5
				c1.6-0.7,3.1-1.3,4.7-2c0-0.2,0.1-0.3,0.1-0.5c-1.9,0.5-2-1-2.6-1.9c-0.3-0.6-0.7-1.1-1-1.6c-0.2,0.1-0.4,0.2-0.5,0.3
				c0.5,1.2,1,2.4,1.6,3.6C432,39.3,431.2,39.9,430.4,40.4z M419.3,46.3c-0.1-0.2-0.1-0.4-0.2-0.5c-0.6,0.2-1.3,0.3-1.9,0.6
				c-1.1,0.5-1.9,0.3-2.4-0.9c-0.4-0.7-1-1.3-1.6-2c-0.2,0.1-0.3,0.2-0.5,0.3c0.7,1.1,1.4,2.2,2.1,3.3c-0.3,0.4-0.5,0.8-0.7,1.2
				c0.1,0.1,0.1,0.2,0.2,0.2C416,47.8,417.6,47,419.3,46.3z M426,36.7c-0.9,0.7-1.8,1.4-2.7,2.1c0.1,0,0.1,0.1,0.2,0.1
				c2.4-0.9,4.7-1.8,7-2.6c0.1,0.1,0,0,0,0c-0.3,0-0.6,0.1-0.9,0.1c-1.9,0.3-2.5,0-3.4-1.7c-0.2-0.4-0.6-0.8-0.9-1.2
				c-0.1,0.1-0.2,0.2-0.4,0.2C425.2,34.7,425.6,35.7,426,36.7z M408.7,243.2c0,1.7,0.8,3,1.3,2.6c0.6-0.5,1.1-1.5,1.3-2.3
				c0.2-1-0.8-1.3-1.5-1.2C409.2,242.3,408.9,243,408.7,243.2z M416.9,37.9c0.1,0.1,0.2,0.2,0.2,0.3c1.9-2.1,4.5-3,7.2-3.5
				c-1-0.1-2,0-3,0.1c-0.7,0.1-1.1,0-1.3-0.8c-0.2-0.5-0.6-1-0.9-1.5c-0.1,0.1-0.2,0.1-0.4,0.2c0.3,0.8,0.5,1.6,0.8,2.5
				C418.8,36,417.8,36.9,416.9,37.9z M409.6,58.9c-0.1-0.2-0.2-0.4-0.3-0.6c-0.9,0.5-1.8,0.9-2.7,1.4c-0.1,0.1-0.3,0.2-0.4,0.3
				c-0.9-1.1-1.8-2.1-2.7-3.2c-0.1,0.1-0.2,0.2-0.3,0.3c0.6,0.7,1.2,1.4,1.8,2.2c0.4,0.6,0.7,1.3,1.1,2.1
				C407.1,60.6,408.3,59.8,409.6,58.9z M402.6,70.3c0.2,2.6,2.9,3,4.1,4.8c1-0.6,1.8-1.3,2.1-2.4c-0.1-0.1-0.2-0.2-0.3-0.3
				c-0.6,0.4-1.2,0.9-1.8,1.4C405.4,72.6,404,71.4,402.6,70.3z M447.5,35.8c-0.1,0.1-0.3,0.2-0.4,0.2c0.4,0.9,0.9,1.7,1.3,2.6
				c0.5,1,0.8,2.1-0.9,2.3c-0.1,0-0.1,0.2-0.2,0.5c1.2,0.4,2.2-0.1,3.3-0.6C448.9,39.4,449.4,36.9,447.5,35.8z M410.9,51.9
				c-0.1-0.2-0.2-0.3-0.2-0.5c-1,0.4-2.1,0.9-3,1.2c-0.9-1-1.7-2-2.5-2.9c-0.1,0.1-0.3,0.2-0.4,0.4c0.7,1,1.5,2.1,2.2,3.1
				c-0.2,0.4-0.4,0.8-0.5,1.1c0.1,0.1,0.1,0.1,0.2,0.2C408,53.7,409.5,52.8,410.9,51.9z M407.1,29.3c1.6-0.5,3.2-1,4.7-1.6
				c-0.7-0.2-1.5-0.2-2.2-0.2c-0.9,0-1.7,0.1-2.6,0.1c-1.4-0.1-3.1,0.8-3.5,1.9c1.1-0.4,2.2-0.8,3.4-1.2
				C407.1,28.8,407.1,29,407.1,29.3z M416.8,40.9c-0.3,0.4-0.7,0.9-1.2,1.6c2.2-0.9,4-1.6,5.8-2.3c0-0.1-0.1-0.2-0.1-0.3
				c-0.9,0.2-1.8,0.3-2.7,0.6c-0.8,0.2-1.2-0.1-1.6-0.8c-0.3-0.7-0.8-1.2-1.2-1.8c-0.2,0.1-0.3,0.2-0.5,0.3
				C415.9,39,416.4,40,416.8,40.9z M408.9,65.6c-0.1-0.1-0.2-0.2-0.3-0.3c-0.3,0.1-0.5,0.2-0.8,0.3c-1.6,1.1-1.6,1.1-3-0.3
				c-0.6-0.6-1.3-1.2-2-1.8c-0.1,0.1-0.2,0.2-0.3,0.3c0.7,1.8,2.5,2.6,3.7,3.9c0,0,0.2,0,0.2,0C407.4,67.2,408.3,66.6,408.9,65.6z
				 M441.3,32.8c-0.2,0.1-0.4,0.2-0.6,0.3c0.5,1.2,0.9,2.4,1.4,3.7c-0.8,0.4-1.5,0.7-2.2,1c0.1,0.2,0.1,0.4,0.2,0.6
				c1.4-0.2,2.6-0.8,4-1.4c-1.4,0-1.2-1.2-1.6-1.9C442.1,34.3,441.7,33.6,441.3,32.8z M402.8,81.1c-2.8-1.5-3.6-2.3-5-4.9
				c0,0.4,0,0.6,0.1,0.8c0.4,2.4,2.2,3.6,4.2,4.6c0.3,0.2,0.9,0.4,1.1,0.2c0.4-0.3,0.7-0.9,1-1.4c-0.1-0.1-0.2-0.2-0.3-0.2
				c-0.2,0.1-0.3,0.2-0.5,0.4C403.1,80.7,403,80.9,402.8,81.1z M573.9,200.7c-0.1,0-0.3-0.1-0.4-0.1c-2.1,2.5-2.2,5.4-1.7,8
				C572.4,206.2,573.2,203.4,573.9,200.7z M412.6,94.4c-2.6-1-4.5-2.8-6.1-4.9C406.5,92,409.7,94.6,412.6,94.4z M412.7,45.4
				c-0.1-0.2-0.1-0.3-0.2-0.5c-1.1,0.3-2.1,0.7-3.1,1c-0.7-1-1.3-1.8-2-2.7c-0.2,0.1-0.3,0.2-0.5,0.3c0.5,0.9,1.1,1.9,1.6,2.8
				c-0.2,0.3-0.3,0.7-0.5,1.1c0.1,0.1,0.1,0.1,0.2,0.2C409.7,46.9,411.2,46.2,412.7,45.4z M434.1,72.9c1.3,1.5-0.5,2-0.9,3.1
				c4.7-2.6,5.4-3.1,5.4-4.2C437.1,72.2,436.1,74.4,434.1,72.9z M449.3,37.2c0,0.2,0,0.4,0.1,0.5c0.9-0.1,1.8-0.3,2.9-0.4
				c-1-1.6-0.7-3.6-2.3-4.7c-0.1,0.1-0.3,0.1-0.4,0.2c0.4,1.2,0.8,2.5,1.3,3.8C450.2,36.8,449.8,37,449.3,37.2z M515.4,298.5
				c1.5-0.8,2.7-1.5,3.8-2.1c-0.2-0.5-0.4-0.8-0.5-1.2c0.6,0,1.1-0.1,1.6-0.1c-0.3-0.6-0.6-1.1-0.8-1.4c-0.6,0.4-1.3,0.8-1.7,1.1
				c0,0.5,0.3,1.3,0.1,1.4c-0.6,0.3-1.4,0.5-2.4,0.7C515.5,297.2,515.4,297.7,515.4,298.5z M437.2,34.1c-2-0.4-0.9-2.9-2.9-3.5
				c0.4,1.2,0.7,2.1,1,3c-0.8,0.5-1.7,1.1-2.5,1.7c0.1,0.1,0.2,0.3,0.3,0.4C434.4,35.2,435.8,34.7,437.2,34.1z M429.7,31.3
				c-0.4-0.8-0.7-1.5-1-2.2c-0.1,0-0.3,0.1-0.4,0.1c0.1,0.4,0.1,0.9,0.3,1.3c0.4,0.8,0.3,1.3-0.6,1.7c-0.6,0.3-1.1,0.8-1.7,1.3
				c0.1,0.1,0.2,0.2,0.2,0.4c1.5-0.7,3.1-1.4,4.6-2c0-0.1,0-0.2,0-0.3C430.7,31.5,430.2,31.4,429.7,31.3z M411.7,39.6
				c-0.5-0.8-1-1.5-1.5-2.2c-0.1,0.1-0.3,0.1-0.4,0.2c0.3,0.6,0.8,1.2,0.9,1.9c0.1,0.6-0.4,1.2-0.6,1.9c1.7-0.7,3.4-1.4,5-2.1
				c0-0.1-0.1-0.3-0.1-0.4C413.8,39.2,412.7,39.4,411.7,39.6z M447.1,99.1c-2.2-0.9-4.4-1.8-6.9-2.8c1.4,2.5,4.5,1.8,5.9,3.9
				C446.6,99.7,446.9,99.3,447.1,99.1z M397.7,71c0.2,2.2,2.4,2.6,3.5,4.3c0.7-0.8,1.3-1.5,1.9-2.2c-0.1-0.1-0.2-0.2-0.4-0.4
				c-0.5,0.4-1,0.8-1.6,1.2C400,73,398.9,72,397.7,71z M453.1,30.1c-0.2,0.1-0.3,0.1-0.5,0.2c0.2,0.9,0.4,1.8,0.6,2.7
				c-0.6,0.3-1.2,0.5-1.7,0.7c0,0.2,0.1,0.4,0.1,0.5c1.3-0.2,2.6-0.4,4-0.6c0-0.1,0-0.2,0-0.3c-0.4-0.1-0.9-0.1-1.4-0.2
				C454,31.9,454.2,30.7,453.1,30.1z M407.5,94.9c-1.8-1.6-3.7-3.2-5.5-4.9C402.7,92.9,404.7,94.7,407.5,94.9z M398.7,56.9
				c-0.2,0.2-0.4,0.3-0.5,0.5c0.9,1.1,1.8,2.2,2.9,3.5c0.9-0.7,1.7-1.4,2.6-2.1c-0.1-0.2-0.2-0.3-0.3-0.5c-0.7,0.4-1.5,0.8-2.2,1.2
				C400.2,58.6,399.4,57.8,398.7,56.9z M404.8,88.3c-2-1.5-4.3-2.7-5.3-5.3C399.5,85.7,401.6,87.8,404.8,88.3z M414.2,95.4
				c0.8,2.7,3.5,4.5,5.3,4C417.9,98.1,416.2,96.8,414.2,95.4z M434.3,81.2c1.6-0.2,4.1-2.5,4-3.9c-1.4,0.6-2,2.7-3.7,1.9
				C434.5,79.8,434.4,80.5,434.3,81.2z M432.2,103.9c-0.1,0.2-0.2,0.3-0.3,0.5c0.9,0.6,1.8,1.3,2.8,1.9c0.9,0.6,1.9,1,2.8,1.5
				c0.2,0.1,0.5,0.1,0.7,0c0.2-0.1,0.4-0.5,0.4-0.5c-0.3-0.3-0.6-0.7-0.9-0.7c-1.6-0.3-2.9-0.9-4.1-1.9
				C433.2,104.3,432.6,104.1,432.2,103.9z M654.2,118.1c0.2,0,0.3,0,0.5,0c0.8-1.4,0.9-3,0.8-4.5c0-0.2-0.3-0.4-0.5-0.6
				c-0.2,0.2-0.5,0.4-0.5,0.6C654.3,115.1,654.3,116.6,654.2,118.1z M400.7,68c0.8-0.8,2-1.1,1.9-2.5c-0.6,0.4-1.2,0.8-1.8,1.3
				c-0.1,0.1-0.3,0.2-0.4,0.3c-0.8-1-1.7-2.1-2.5-3.1c-0.1,0.1-0.2,0.2-0.3,0.3C397.9,65.9,399.7,66.5,400.7,68z M415.2,100.3
				c-1.7-1.4-3.5-2.8-5.4-4.3C410.1,97.9,412.8,100.7,415.2,100.3z M445.5,33.3c-1-1.2-0.3-2.9-2.1-3.6c0.2,1,0.5,1.9,0.7,2.9
				c-0.6,0.3-1.2,0.7-1.7,1c0.1,0.2,0.2,0.4,0.2,0.5C443.5,33.9,444.4,33.6,445.5,33.3z M410.6,100.6c-1.6-1.4-3.1-2.8-4.8-4.3
				C406.3,98.8,408.7,100.8,410.6,100.6z M402.4,47.1c0.1,0.1,0.2,0.1,0.3,0.2c1.4-0.7,2.8-1.4,4.1-2.2c-0.1-0.2-0.2-0.3-0.2-0.5
				c-1,0.4-2,0.7-2.9,1c-0.5-0.7-1-1.3-1.6-2.2C401.7,45,403.9,45.7,402.4,47.1z M398.7,90.2c0.2,3,2.4,5,5.2,4.8
				C401.7,93.9,399.7,92.6,398.7,90.2z M404.7,51.6c-0.1-0.1-0.2-0.3-0.3-0.4c-0.8,0.4-1.7,0.9-2.5,1.3c-0.7-0.8-1.3-1.5-1.9-2.2
				c-0.1,0.1-0.2,0.2-0.4,0.3c0.6,1,1.2,2,1.9,3.2C402.6,53.2,403.9,52.7,404.7,51.6z M414.8,32c1.8-2.3,4.3-2.9,7-3.2
				C418.8,27.9,415.7,29.3,414.8,32z M437.3,102.6c-0.1,0.1-0.1,0.2-0.2,0.3c0,0.1,0,0.3,0.1,0.3c1,0.8,2,1.6,3.1,2.4
				c0.1,0.1,0.6-0.1,0.7-0.2c0.1-0.2,0.1-0.5,0-0.8C440.2,103,438.4,103.5,437.3,102.6z M427.2,30c-3.7-0.6-7,0.8-6.8,2.7
				C422.4,31.1,424.5,29.9,427.2,30z M416.4,28c-3.1-0.7-6.3,1-6.6,3.8C411.4,29.1,413.8,28.5,416.4,28z M402.4,96.7
				c0.5,2.4,3,5,4.4,4.2C405.4,99.5,404,98.2,402.4,96.7z M439.1,88.2c-1.1,0.4-1.1,2.5-2.6,2.2c0.1,0.5,0.2,1.1,0.3,1.7
				C438.5,91.3,439.7,89.4,439.1,88.2z M428.8,74.8c0.1,1.7,2.5,3.4,4.8,3.6C431.8,77,430.3,75.9,428.8,74.8z M435.3,86.7
				c1.2-0.3,1.9-0.9,3-2.5c0.2-0.3,0.2-0.7,0.2-1.1c-0.3,0.2-0.7,0.3-1,0.5c-0.7,0.5-1.4,1.1-2.2,1.8
				C435.3,85.6,435.3,86.1,435.3,86.7z M425.2,24.6c-3-0.7-6.1,0.5-6.4,2.8C420.8,25.9,422.6,24.3,425.2,24.6z M428,91.3
				c-1.6-1.2-3.1-2.3-4.8-3.5C423.5,89.7,425.9,91.3,428,91.3z M433.2,84.3c0.1-0.1,0.1-0.2,0.2-0.3c-1.3-0.9-2.5-1.8-3.8-2.7
				c-0.1-0.1-0.4,0-0.6,0c0,0.2-0.1,0.6,0,0.7C430.3,83.1,431.5,84.1,433.2,84.3z M395.7,84c0.4,2.6,2.5,4.8,4.8,4.5
				c-1-0.7-2-1.3-2.8-2C397,85.7,396.4,84.7,395.7,84z M446.7,86.7c-1,1.3-1.9,2.5-2.9,3.6C446,90.2,447.4,88.2,446.7,86.7z
				 M419.6,94.6c0.4,2.1,2.7,3.7,4.5,3.5C422.6,97,421.2,95.9,419.6,94.6z M489.6,52.7c-0.7,1.7,0.8,3.7,2.9,3.4
				C491.6,54.9,490.7,53.9,489.6,52.7z M397.8,73.6c-0.5,0.2-0.9,0.4-1.3,0.6c-1.1-0.9-2.1-1.8-3.2-2.7c0.1,1.7,1.4,2.4,2.6,3.1
				C396.8,75.1,397.4,74.8,397.8,73.6z M418.3,33.5c-2.9-0.6-5,0.3-5.7,2C414.4,34.9,416.3,34.3,418.3,33.5z M396.1,59.5
				c-0.7-0.8-1.4-1.5-2.1-2.2c-0.1,0.1-0.3,0.3-0.4,0.4c0.8,1,1.6,1.9,2.5,3c0.8-0.7,1.4-1.3,2-1.8c-0.1-0.1-0.2-0.2-0.3-0.4
				C397.3,58.9,396.7,59.2,396.1,59.5z M450.9,27.9c0.7-0.3,1.1-0.4,1.5-0.6c0.4-0.1,0.8-0.3,1.2-0.4c0-0.1-0.1-0.2-0.1-0.3
				c-4.7,0.3-4.7,0.3-5.5,1.3C449.2,27.9,450.1,27.9,450.9,27.9z M430,86.7c0.4,1.8,2.6,3.2,4.5,2.9C433,88.6,431.7,87.8,430,86.7z
				 M428.3,21.1c-1.8-0.6-4.4,0.7-4.7,2.4C425.2,22.7,426.8,21.9,428.3,21.1z M424.1,28.1c1.6-0.8,3.2-1.6,4.9-2.5
				C426.8,25.1,424.1,26.5,424.1,28.1z M414.5,101.8c0.5,2.1,3,3.8,4.2,3.3C417.3,104,415.9,102.9,414.5,101.8z M429.5,29.5
				c1.6-0.8,3.1-1.4,4.7-2.2C432.6,26.7,430.2,27.8,429.5,29.5z M435.8,94.9c-1.3-0.8-2.6-1.6-3.9-2.4
				C432.2,94.1,434.1,95.3,435.8,94.9z M425.4,93.7c0.2,1.7,2.4,3.2,4.1,3C428.1,95.7,426.8,94.8,425.4,93.7z M422.9,100.1
				c0.5,1.9,2.8,3.4,4.4,3.1C425.9,102.1,424.5,101.2,422.9,100.1z M428.1,24.5c1.7-0.8,3.2-1.5,4.8-2.2
				C430.9,21.8,428.7,22.8,428.1,24.5z M412.8,33c-2.4-0.5-4.8,0.5-5.1,2C409.3,34.3,410.9,33.7,412.8,33z M418.5,101.2
				c0.5,2,2.7,3.3,4.2,3C421.3,103.2,419.9,102.2,418.5,101.2z M410.9,102.1c0.5,2,3,3.9,4.1,3.4
				C413.7,104.5,412.4,103.4,410.9,102.1z M430.1,110.1c-0.3,0-0.5,0-0.8,0c-0.2,0.8-0.3,1.5-0.5,2.3c0.7-0.2,1.4-0.4,2.1-0.6
				C430.6,111.3,430.3,110.7,430.1,110.1z M404.9,40.7c1.4-0.7,2.9-1.3,4.3-2c-0.1-0.2-0.2-0.3-0.2-0.5
				C407.5,38.8,405.6,38.7,404.9,40.7z M397.9,81.4c-1.2-1-2.4-2-3.8-3.1C394.5,79.9,396.1,81.4,397.9,81.4z M440.4,93.7
				c-1.2,0.2-0.8,2.6-2.6,1.9c0.2,0.2,0.5,0.4,0.7,0.6c0.2,0.2,0.4,0.5,0.6,0.7C440.4,95.9,440.9,94.9,440.4,93.7z M432.7,101.7
				c-1.6-1-2.8-1.8-4.1-2.6C428.9,100.7,430.9,101.9,432.7,101.7z M396.3,92c0.5,2,1.9,3.1,4.3,3.3C399,94.1,397.6,93,396.3,92z
				 M407.7,32.9c-2.2-0.5-4,0.3-4.4,1.7C404.8,34,406.3,33.4,407.7,32.9z M575.9,131.9c-0.1,0-0.3,0.1-0.4,0.1
				c0.3,1.8,0.5,3.5,0.8,5.3c0.2,0,0.4-0.1,0.6-0.1C576.6,135.4,576.3,133.6,575.9,131.9z M393.2,85.7c0.2,1.6,1.6,2.8,3.5,2.8
				C395.5,87.6,394.4,86.6,393.2,85.7z M450.1,23.2c-0.3-0.5-0.7-1.2-0.9-1.2c-0.9,0.3-1.9,0.5-2.7,1.7
				C447.8,23.5,448.8,23.4,450.1,23.2z M437.1,24.4c-1.4-0.7-3.1,0-3.8,1.5C434.8,25.4,435.9,24.9,437.1,24.4z M428.2,112.7
				c-0.5-0.6-0.8-1.1-1.2-1.6c-0.3,0.4-0.5,0.8-0.6,0.8c-0.7-0.1-0.9,0.3-0.7,0.8c0.1,0.3,0.7,0.5,1.1,0.5
				C427.1,113.2,427.5,113,428.2,112.7z M438.7,90.9c0.5,1.5,2.5,2.6,4.1,2.2C441.5,92.4,440.2,91.7,438.7,90.9z M519.3,85.4
				c0.2,0,0.3,0,0.5,0.1c0.2-2.1,0.5-4.2,0.7-6.3c-0.1,0-0.3,0-0.4-0.1C519.8,81.2,519.6,83.3,519.3,85.4z M436,31.4
				c1.2-0.5,2.4-0.9,3.6-1.4C438.2,29.4,436.6,29.9,436,31.4z M447.3,20.3c-1.6,0.4-3.1,0.7-4.5,1.1
				C443.8,22.2,447.1,21.2,447.3,20.3z M434.3,97.8c0.4,1.5,2.1,2.5,3.9,2.3C436.7,99.2,435.5,98.5,434.3,97.8z M431.9,89.7
				c-0.7,0.9-1.3,1.6-1.8,2.4c-0.1,0.1,0,0.5,0.1,0.7c0.1,0.1,0.4,0.1,0.6,0.1C431.4,92.6,432.2,90.8,431.9,89.7z M404.2,38.8
				c-1.9-0.4-3.6,0.6-3.8,1.8C401.6,40,402.9,39.4,404.2,38.8z M433.8,19.6c-1.7-0.7-3.1-0.2-4.3,1.1C431.1,21,432.2,19,433.8,19.6z
				 M472.2,43.2c-0.1,0-0.3-0.1-0.4-0.1c-0.3,0.7-0.6,1.4-1,2.1c-0.4,0.1-0.8,0.1-1.2,0.2c0,0.2,0,0.3,0,0.5c0.6,0,1.3,0.1,1.7-0.2
				C472.1,45.1,472.5,44.2,472.2,43.2z M412,105.7c-0.8-0.4-1.6-0.8-2.2-1.3c-0.6-0.5-1.1-1.2-1.6-1.9
				C408.4,104.2,410.4,106,412,105.7z M400.5,98.3c0.9,2.1,1.9,2.8,3.6,2.5C403,100,401.8,99.2,400.5,98.3z M522.2,31.7
				c0,0.1-0.1,0.3-0.1,0.4c1-0.3,1.8-0.3,2.2,0.8c0,0.1,0.6,0.1,0.9,0c0.2-0.1,0.3-0.5,0.3-0.6c-0.2-0.3-0.5-0.8-0.8-0.8
				C523.8,31.4,523,31.6,522.2,31.7z M401.5,45.1c-0.1-0.1-0.1-0.2-0.2-0.3c-1.5,0-2.9,0.9-3.3,2.3
				C399.3,46.3,400.4,45.7,401.5,45.1z M431.6,111.3c1.1,0.1,1.8-0.2,2-1c0.1-0.3-0.4-0.8-0.8-1.4
				C432.4,109.8,432.1,110.5,431.6,111.3z M463.5,91.6c0,1.3,0,2.3,0,3.6C464.6,93.8,464.6,92.8,463.5,91.6z M436.6,20.7
				c-0.1-0.2-0.1-0.4-0.2-0.6c-1,0.4-2.1,0.8-3.1,1.2c0.1,0.2,0.1,0.3,0.2,0.5C434.7,22,435.6,21.2,436.6,20.7z M468,79.2
				c0.2,1,0.1,2,1.4,2.4C469.8,80.3,469.3,79.4,468,79.2z M442.6,26.7c-1.5-0.7-3.1-0.2-3.4,1.1C440.3,27.5,441.3,27.2,442.6,26.7z
				 M393.6,82c0.2-0.2,0.3-0.4,0.5-0.5c-1-0.8-2-1.6-3-2.5c-0.1,0.2-0.3,0.3-0.4,0.5C391.6,80.3,392.6,81.2,393.6,82z M399.4,34.9
				c1.4-0.6,2.6-1.1,4-1.7C401.8,32.8,400.4,33.4,399.4,34.9z M472.3,77.1c0-1.5-0.6-2.3-1.7-2.1C470.8,76,471,77,472.3,77.1z
				 M442.6,24.7c0.1,0.2,0.1,0.4,0.2,0.6c1-0.2,2.1-0.1,3-0.8c0-0.2-0.1-0.4-0.1-0.6C444.6,24.3,443.6,24.5,442.6,24.7z
				 M431.6,107.3c-1.2-0.8-2.5-1.5-3.7-2.3c-0.1,0.1-0.1,0.2-0.2,0.4C428.7,106.5,429.9,107.3,431.6,107.3z M465,83.1
				c0,1.4,0.2,2.3,1.4,3.2C466.4,85,466.4,83.9,465,83.1z M655.8,108.5c0.6,0.4,0.9,0.9,1.1,0.8c0.4-0.2,0.7-0.5,1.1-0.8
				c-0.3-0.3-0.6-0.7-1-0.8C656.7,107.7,656.4,108.1,655.8,108.5z M474.1,72.5c0.4-1.2-0.3-1.7-1-2.2c-0.1-0.1-0.4,0-0.4,0.1
				c-0.1,0.2-0.2,0.5,0,0.7C473.1,71.5,473.6,72,474.1,72.5z M473.3,65.4c0.6,0.9,0.9,2,2.3,1.7C475.2,65.8,474.6,65.3,473.3,65.4z
				 M437.7,22.8c0,0.1,0.1,0.3,0.1,0.4c1.1,0.2,2.6-0.3,3.2-1.5C439.7,22.2,438.7,22.5,437.7,22.8z M390.1,71.8
				c-0.2,0.1-0.3,0.3-0.5,0.4c0.4,1.1,1.3,1.8,2.5,2.1C391.5,73.5,390.8,72.7,390.1,71.8z M574,222.3c0.2-1.4,0.8-2.8,0.1-4.1
				c-0.2,0-0.3,0-0.5,0C573.7,219.6,573.9,220.9,574,222.3z M399.5,51.9c-0.1-0.2-0.3-0.4-0.4-0.6c-0.9,0.6-1.8,1.2-2.6,1.8
				c0.1,0.2,0.3,0.4,0.4,0.6C397.7,53.1,398.6,52.5,399.5,51.9z M468.1,90.4c1.1-1.1,1-2,0-2.6C468.1,88.7,468.1,89.6,468.1,90.4z
				 M445,30.1c0,0.2,0.1,0.4,0.1,0.6c0.9-0.2,1.7-0.3,2.6-0.5c0.1,0,0.3-0.4,0.2-0.5c-0.1-0.2-0.4-0.4-0.6-0.3
				C446.6,29.5,445.8,29.8,445,30.1z M440.2,100.5c0.5,0.3,1.1,0.6,1.9,1.1c0.2-0.9,0.3-1.6,0.5-2.4c-0.2-0.1-0.3-0.1-0.5-0.2
				c-0.2,0.3-0.4,0.8-0.7,1C441.1,100.3,440.6,100.3,440.2,100.5z M391.1,86.5c-0.1,0.1-0.2,0.3-0.3,0.4c0.9,0.7,1.8,1.4,2.7,2
				c0.1-0.2,0.3-0.3,0.4-0.5C392.9,87.8,392,87.2,391.1,86.5z M394.2,92.7c0.7,1.7,1.9,2.4,3.4,2.2
				C396.5,94.2,395.5,93.5,394.2,92.7z M469.8,68.7c0,0.2,0,0.4,0,0.6c0.9,0.6,1.8,0.1,2.7-0.2c0-0.2,0-0.3,0-0.5
				C471.5,68.6,470.6,68.7,469.8,68.7z M475.4,78.5c-0.1,0-0.3,0-0.4,0.1c-0.5,1.1-0.2,1.8,1.2,2.2
				C475.8,79.9,475.6,79.2,475.4,78.5z M473.1,64.1c0-0.1-0.1-0.3-0.1-0.4c-0.8,0.2-1.6,0.4-2.5,0.6c0,0.2,0.1,0.3,0.1,0.5
				C471.6,65.3,472.3,64.7,473.1,64.1z M432.3,97.8c0.5,0.1,1,0.2,1,0.1c0.3-0.6,0.5-1.3,0.8-2c-0.1-0.1-0.3-0.1-0.4-0.2
				C433.2,96.4,432.8,97,432.3,97.8z M472.7,85.9c0.1-1.1,0.2-2-0.9-2.7C471.7,84.2,471.4,85.1,472.7,85.9z M477.3,73
				c-0.4,1.7-0.1,2.1,1.2,1.8C478.1,74.2,477.7,73.6,477.3,73z M396.8,39.8c0.1,0.2,0.2,0.4,0.3,0.6c0.8-0.4,1.7-0.9,2.5-1.3
				c-0.1-0.2-0.2-0.4-0.3-0.5C398.5,39,397.6,39.4,396.8,39.8z M468.4,77.9c0-0.2,0.1-0.3,0.1-0.5c-0.8-0.1-1.6-0.2-2.4-0.3
				c0,0.2,0,0.3-0.1,0.5C466.7,78.4,467.5,78.1,468.4,77.9z M423.7,106c0.8,1.4,2.5,2.3,3.5,2.2C426.2,107.4,425.1,106.8,423.7,106z
				 M470.7,73.6c0-0.1,0-0.3,0-0.4c-0.9,0-1.8,0-2.7,0c0,0.1,0,0.3,0,0.4C468.9,73.6,469.8,73.6,470.7,73.6z M470.2,55.2
				c0.1,0.2,0.2,0.3,0.3,0.5c1,0.1,1.6-0.5,2-1.3c-0.1-0.1-0.2-0.3-0.2-0.4C471.5,54.4,470.9,54.8,470.2,55.2z M396.8,45.6
				c-1.5-0.2-2.2,0.3-2.6,1.6C395.2,46.6,396,46.1,396.8,45.6z M469.6,65.1c0.1-0.2,0.2-0.4,0.3-0.6c-0.7-0.4-1.4-0.8-2.1-1.2
				c-0.1,0.2-0.2,0.4-0.4,0.6C468.1,64.3,468.8,64.7,469.6,65.1z M487.7,288.5c-0.5,0.9-0.9,1.6-1.3,2.4
				C488.3,289.3,488.3,289.3,487.7,288.5z M471.7,50.1c0.6,1.5,1.1,1.6,2.1,0.6C473,50.5,472.3,50.3,471.7,50.1z M443,100.8
				c-0.2,0.2-0.4,0.3-0.6,0.5c0.4,0.5,0.8,0.9,1.2,1.4c0.2-0.2,0.5-0.4,0.5-0.5C443.8,101.8,443.4,101.3,443,100.8z M475.6,61.1
				c-0.6-0.4-1.2-0.7-1.8-1.1c-0.1,0.1-0.2,0.3-0.3,0.4C473.9,61.3,474.3,61.9,475.6,61.1z M470.7,59.7c0.1,0.2,0.1,0.3,0.2,0.5
				c0.9,0.3,1.5-0.2,2-0.8c0-0.1-0.1-0.3-0.1-0.4C472.1,59.2,471.4,59.5,470.7,59.7z M470.8,49.7c-0.1-0.1-0.2-0.3-0.3-0.4
				c-0.5,0.4-0.9,0.8-1.4,1.2c0,0.1,0.1,0.3,0.2,0.5c0.5-0.4,0.9-0.7,1.3-1.1C470.8,49.9,470.8,49.7,470.8,49.7z M470.4,92.1
				c-0.2,0-0.4,0-0.6,0c-0.1,0.7-0.2,1.4-0.3,2.1c0.2,0,0.4,0,0.6,0.1C470.2,93.5,470.3,92.8,470.4,92.1z M467.2,67.5
				c-0.2,0.2-0.3,0.4-0.5,0.6c0.6,0.4,1.2,0.9,1.8,1.3c0.1-0.2,0.3-0.3,0.4-0.5C468.3,68.4,467.7,67.9,467.2,67.5z M392.4,53.3
				c0.1,0.2,0.2,0.3,0.4,0.5c0.6-0.5,1.3-0.9,1.9-1.4c-0.1-0.2-0.2-0.3-0.3-0.5C393.7,52.3,393.1,52.8,392.4,53.3z M469.7,60.6
				c0.1-0.2,0.2-0.4,0.3-0.6c-0.7-0.3-1.3-0.6-2-0.9c-0.1,0.2-0.2,0.4-0.3,0.6C468.4,60,469,60.3,469.7,60.6z M473,55
				c0.5,1.6,0.8,1.7,2.1,1C474.5,55.7,473.9,55.5,473,55z M390.9,67.3c0.2-0.1,0.3-0.3,0.5-0.4c-0.5-0.6-1.1-1.2-1.6-1.8
				c-0.1,0.1-0.3,0.3-0.4,0.4C389.9,66.1,390.4,66.7,390.9,67.3z M468.9,44.5c-0.1-0.1-0.2-0.1-0.3-0.2c-1.2,0.7-1.4,0.9-0.9,2.1
				C468.2,45.7,468.5,45.1,468.9,44.5z M439.3,20.3c1.1,0.8,1.5,0.2,1.9-0.4c-0.1-0.1-0.1-0.3-0.2-0.4
				C440.4,19.7,439.9,20,439.3,20.3z M403.1,29.1c-0.1-0.2-0.2-0.4-0.3-0.6c-0.7,0.4-1.4,0.8-2.2,1.2c0.1,0.1,0.1,0.2,0.2,0.3
				C401.6,29.7,402.3,29.4,403.1,29.1z M477.1,54.5c-1.3-0.1-1.6,0.2-1.6,1.7C476.1,55.5,476.5,55.1,477.1,54.5z M478.6,67.3
				c-0.2,0.1-0.4,0.2-0.6,0.3c0.2,0.5,0.5,0.9,0.7,1.4c0.2-0.1,0.4-0.2,0.6-0.3C479.1,68.2,478.8,67.7,478.6,67.3z M475,48.7
				c-0.1-0.1-0.2-0.2-0.3-0.3c-0.3,0.5-0.7,1-1,1.6c0,0,0.3,0.2,0.4,0.4c0.3-0.5,0.6-1,1-1.5C475.1,48.8,475,48.7,475,48.7z
				 M458.4,101.7c0.2,0.1,0.4,0.2,0.6,0.2c0.2-0.6,0.5-1.3,0.7-1.9c-0.2-0.1-0.3-0.1-0.5-0.2C458.9,100.4,458.6,101.1,458.4,101.7z
				 M424.7,113.3c0-0.2,0-0.4-0.1-0.7c-0.5,0.1-1,0.1-1.6,0.2c0,0.2,0,0.6,0.1,0.6C423.7,113.4,424.2,113.3,424.7,113.3z M401,100.8
				c0.1-0.2,0.2-0.4,0.4-0.5c-0.7-0.4-1.4-0.8-2-1.2c-0.1,0.1-0.2,0.3-0.3,0.4C399.7,99.9,400.3,100.3,401,100.8z"/>
			<path class="st1" d="M572.8,408.3c0-3.5,0-6.9,0-10.4c0-5.6,0-11.1-0.2-16.7c-0.1-3.1-0.5-6.2-0.5-9.3c0-5.2,0.2-10.4,0.2-15.7
				c0-2.4-0.2-4.8-0.4-7.1c-0.1-1,0.2-1.7,0.8-2.5c4.2-5.2,8.1-10.6,11.1-16.6c3.9-7.7,6.5-15.8,6.9-24.5c0.1-1.9,0-3.9-0.2-5.8
				c-0.1-1,0.1-1.7,0.7-2.5c5.1-6.6,9.4-13.7,12.6-21.4c2.1-5.3,3.6-10.7,4.1-16.4c0-0.3,0.1-0.7,0.2-1c1.9-4.7,2.5-9.6,2.3-14.5
				c0.3-0.6,0.8-1.2,0.9-1.9c0.6-3.4,1.4-6.7,1.6-10.1c0.2-3.1-0.3-6.3-0.4-9.5c0-1.3,0-2.7,0.2-3.9c1.2-5.8,2.7-11.5,3.7-17.3
				c1.9-11.3,2.4-22.7,2.2-34.2c-0.2-9.3-0.8-18.7-2.2-27.9c-0.3-1.8-0.6-3.7-0.9-5.7c2.4,0.6,4.6,1.1,6.7,1.6
				c3.9,0.8,7.9,1.6,11.8,2.5c2.8,0.6,5.3,0,7.8-1.2c0.8-0.4,1.8-0.5,2.7-0.3c4.3,0.9,8.5,1.9,12.7,3c3.8,1,7.5,2.3,11.3,3.4
				c0.7,0.2,1.3,0.3,2,0.4c4.6,1.2,9.1,2.5,13.7,3.5c2.5,0.6,5.1,0.7,7.6,1c0.2,0,0.4,0,0.5-0.1c2.8-1.8,5.8-0.4,8.6-0.3
				c4.9,0.2,9.8,1.1,14.7,1.6c0.5,0.1,1,0.1,1.4-0.1c1.9-0.9,3.8-0.5,5.8-0.2c1,0.1,1.6,0.5,2.1,1.5c3.9,8.6,6.2,17.5,7.1,26.9
				c1.6,16.2,1.1,32.4,1.1,48.7c0,5.9,0,11.8-0.2,17.7c-0.2,6-0.6,12-1.2,17.9c-1.1,10.4-2.5,20.7-3.8,31.1
				c-1.2,9.1-2.6,18.1-3.8,27.2c-0.9,6.7-1.8,13.4-2.7,20.1c-1,7.2-2,14.3-3.2,21.5c-1.2,7.1-2.5,14.2-4,21.2
				c-1.4,6.5-3,12.9-4.7,19.3c-0.6,2.4-1.5,4.8-2.3,7.2C662.3,408.3,617.5,408.3,572.8,408.3z"/>
			<path class="st1" d="M546.6,408.3c-1.4-13.1-1.3-26.2,1-39.1c0.2-0.8-0.1-2.2,1.5-1.9c0.1,13.7-1.2,27.4-0.3,41.1
				C548.1,408.3,547.3,408.3,546.6,408.3z"/>
			<path class="st1" d="M548.2,244c-0.5-0.1-0.9-0.1-1.2-0.2c-2-0.4-3.9-0.8-5.9-1.2c-2-0.4-3.9-0.8-5.9-1.1c-2.8-0.5-5.4,0.8-8,1.3
				c-4.1,0.8-8.2,1.8-12.3,2.9c-1.7,0.4-3.2,1.2-4.8,1.9c-1.7,0.7-3.4,1.5-5,2.3c-2.2,1-4.3,2.4-6.2,4c-0.7,0.6-1.2,1.5-2.2,1.4
				c-0.1,0-0.2,0.1-0.2,0.1c-1.5,2-3.9,2.8-5.7,4.3c-0.2,0.2-0.6,0.3-0.7,0.6c-0.5,1.4-1.9,1.7-2.9,2.4c-0.1,0-0.2,0-0.2-0.1
				c-2.2-4.2-5.6-7.4-8.7-10.9c-2.7-3.1-6.3-4.9-9.3-7.6c-0.5-0.5-1.1-1-1.7-1.4c-0.3-0.2-0.5-0.5-0.8-0.6c-4-1.1-7.3-3.6-11.1-5.1
				c-1.8-0.7-3.7-1.1-5.5-1.6c-1.3-0.3-1.4-0.5-1-1.7c0.5-1.3,1-2.6,1.5-3.9c0.1-0.3,0.1-0.8,0-1.1c-0.5-1.1-0.1-1.9,0.4-2.9
				c3.7-6.2,8.8-11.1,14.3-15.7c3.2-2.7,6.4-5.4,9.5-8.2c0.4-0.3,0.6-0.7,0.9-1.1c2.4-3.4,1.1-6.2-3-6.5c-2.4-0.1-4.9,0.1-7.3,0.5
				c-9,1.3-17.9,3.5-27.1,3.7c-2.6,0.1-5.1-0.3-7.7-0.5c-1.3-0.1-1.8-0.8-1.8-2.1c0.1-4,0.1-8,0.3-11.9c0.3-5,0.6-9.9,1.2-14.8
				c0.6-5.4,1.2-10.9,2.2-16.3c1.4-7.2,2.9-14.3,4.8-21.4c1.4-5.4,3.4-10.6,5.1-15.9c0.1-0.3,0.3-0.7,0.6-0.8
				c1.8-0.4,3.6-0.6,5.4-1.1c2.5-0.7,4.9-1.4,7.2-2.4c0.9-0.4,1.7-0.9,2.7-1.1c1.8-0.4,3.5-1,5.2-1.7c1-0.4,2-0.6,3-0.1
				c2.7,1.4,5.6,1.4,8.5,1.8c6.4,0.8,12.8,1.6,19.2,2.5c2.2,0.3,4.5,0.7,6.7,1.1c2.4,0.4,3.7,2,3.6,4c0.9,1.1,1.6,1.9,2.2,2.7
				c1.7,2.5,3.3,5,4.9,7.5c1.1,1.6,2.6,2.1,4.5,2.4c4.4,0.5,8.8,1.2,13.2,1.8c1.8,0.2,2.9,1.2,3.6,2.8c2.8,6.2,4.1,12.7,4.5,19.4
				c0.4,6.8,0,13.5-0.5,20.3c-0.1,1.8-0.1,3.6-0.1,5.4c0,1.1-0.2,2-1.3,2.6c-1.4,0.8-1.6,2.1-1.6,3.5c0,3.5,0.1,6.9-0.1,10.4
				c-0.2,2.5,0.8,4.5,2,6.4c0.6,0.9,1,1.9,1.6,2.7c0.4,0.5,0.9,1,1.5,1.1c2.2,0.2,3.4,2,4.9,3.3c0.2,0.1,0,0.8-0.1,1.2
				c-0.2,0.6-0.7,1.2-0.7,1.8c-0.2,4.6-0.2,9.2-0.4,13.9c0,1.3,0.3,2.3,1.5,2.9c2.1,1.2,3,3,2.7,5.5c-0.3,2.7,0.5,5.3,1.4,7.9
				C548.1,243.2,548.1,243.5,548.2,244z"/>
			<path class="st1" d="M434.5,231c0.1-4.5-1.7-8.5-3.5-12.5c-0.5-1.2-0.9-2.5-1-3.8c-0.4-3.7-0.7-7.4-1-11.1
				c-0.2-1.9,0.3-2.2,2.1-1.9c4.5,0.9,9,1,13.6,0.4c7.3-0.9,14.5-2.2,21.7-3.3c1.1-0.2,2.2-0.3,3.3-0.4c0.4,0,0.9,0.2,1.3,0.3
				c-0.2,0.4-0.3,1-0.6,1.3c-2.5,2.2-5.2,4.2-7.7,6.4c-6.3,5.3-12.2,11-16,18.5c-0.2,0.4-0.8,0.6-1.2,1c-0.5,0.4-1.2,0.8-1.5,1.4
				c-0.7,1.6-1.1,3.3-1.7,4.9c-0.2,0.4-0.7,1-1.1,1c-1.5,0.3-3,0.3-4.4,0.5c-1.8,0.2-2,0-2-1.8C434.6,231.6,434.5,231.3,434.5,231z"
				/>
			<path class="st1" d="M448.9,86.5c-1.5,0.1-2.9-0.7-3.4-2.2c1,0.5,1.7,0.9,2.2,1.1c1.3-0.8,2.6-1.6,3.9-2.4
				c0.6-0.4,1.2-0.7,1.7-1.1c0.7-0.5,1.1-1.1,0.2-1.9c-0.2-0.1-0.1-0.5-0.2-0.8c0.3,0,0.6-0.2,0.8-0.1c0.6,0.2,1.1,0.6,1.7,0.9
				c1.6-1.6,1.3-3.1-0.8-3.4c-1.1,1.5-2.4,2.8-4.3,3.3c-0.6,0.2-1,0.7-1.6,1c-0.5,0.2-1.2,0.6-1.6,0.5c-0.9-0.3-2-0.5-2.4-1.6
				c0.1-0.1,0.2-0.3,0.2-0.4c0.7,0.4,1.4,0.7,2.3,1.2c0.6-1.1,2.6-0.7,2.9-2.1c0.9-0.3,1.7-0.4,2.5-0.8c1.3-0.7,1.3-0.9,0.3-2
				c-0.2-0.2-0.2-0.6-0.2-0.9c0.3,0,0.6-0.2,0.8-0.1c0.9,0.4,1.8,1,2.6,1.4c0.2-0.3,0.5-0.6,0.7-0.9c0.3-0.4,0.7-0.8,0.6-1.2
				c-0.1-0.9-2.6-1.9-3.4-1.5c-0.4-0.5-0.8-0.9-1.2-1.3c-0.2-0.2-0.2-0.5-0.3-0.8c0.3,0,0.6-0.2,0.9-0.1c0.3,0.1,0.7,0.2,0.9,0.5
				c1.1,1,2.3,0.4,3.5,0.3c0.2,0,0.6-0.5,0.6-0.7c-0.1-0.5-0.3-1.1-0.6-1.2c-1.2-0.4-2.4-0.7-3.8-1.1c-0.1-0.2-0.3-0.6-0.6-1
				c-0.2-0.3-0.3-0.6-0.4-0.9c0.4,0,0.8-0.1,1.1,0c0.4,0.1,0.8,0.4,1.1,0.6c1,0.9,2,0.2,3,0c0.2,0,0.4-0.6,0.3-0.7
				c-0.2-0.5-0.5-1-0.9-1.2c-1.2-0.8-2.5-1.4-3.8-2.1c-0.2-0.1-0.4-0.4-0.8-0.9c0.7,0,1.1-0.1,1.4,0c1.1,0.3,2.1,0.8,3.2,1.1
				c0.4,0.1,0.9,0,1.4-0.1c0.8-0.1,0.8-0.6,0.5-1.1c-0.5-0.9-2.5-1.6-3.6-1.4c-0.2,0-0.6-0.1-0.7-0.3c-0.4-0.7-0.7-1.4-1.1-2.4
				c0.5,0.1,0.9,0,1.3,0.2c0.8,0.3,1.6,0.9,2.4,1.1c0.6,0.2,1.4,0,2.1,0c0.1-1.6-1.7-3-3-2.8c-0.8-0.9-1.6-1.6-2.3-2.3
				c0-0.1,0-0.2,0-0.3c0.5,0,1-0.1,1.3,0.1c0.9,0.4,1.8,1.1,2.7,1.5c0.4,0.2,1.2,0.2,1.4,0c0.3-0.3,0.3-1.1,0.1-1.4
				c-0.5-0.7-1-1.7-2.2-1.3c-0.2,0.1-0.6,0-0.7-0.2c-0.6-0.8-1.1-1.7-1.7-2.8c1.8-0.3,2.8,1.5,4.6,1.6c0-0.8,0-1.7,0-2.6
				c-0.9,0.2-1.8,0.5-1.7-0.9c0-0.2-0.4-0.5-0.7-0.7c-0.4-0.3-0.7-0.6-1.2-1.1c1.6-0.5,2.2,0.7,3.3,0.9c0.4-1.5,0-2.1-1.5-2
				c-1.1,0.1-2.1,0.4-3.2,0.5c-0.4,0-0.8-0.2-1.2-0.2c0.3-0.2,0.6-0.5,0.9-0.7c0.2-0.1,0.4-0.2,0.9-0.5c-1.4-1.9-2.7-3.7-4-5.5
				c0,0,0.1-0.1,0.1-0.1c0.9,0.7,1.8,1.3,2.7,2c1,0.8,1,0.9,2.6,0.2c-0.6-1.4-1.2-2.8-1.9-4.4c1.4,0.4,1.9,1.2,2.3,2.3
				c0.3,0.9,0.7,1.8,1.2,3c-0.8,0.2-1.8,0.4-3,0.7c0.5,0.7,0,2.1,1.4,2.1c2.5,0.2,2.9,0.1,2.3-2.4c-0.6-2.4-1.1-4.9-1.4-7.4
				c0.4,1.1,0.9,2.1,1.3,3.2c2,6.2,2.7,12.7,2.4,19.2c-0.4,10.6-3,20.7-7.5,30.2c-1.7,3.6-4,6.9-6.1,10.4c-0.1,0.2-0.4,0.4-0.7,0.7
				c1.2-1.5,0.1-2.3-0.9-3.1c-0.4,0.3-0.8,0.5-1.3,0.8c-0.2-0.6-0.4-1.1-0.5-1.2c0.7-1,1.4-1.9,2-2.8c0.1,0,0.3,0.1,0.4,0.1
				c-0.1,0.8-0.1,1.6-0.2,2.6c0.5,0.2,1.1,0.6,1.8,0.9c0.4-0.6,0.9-1.2,1.2-1.9c0.5-1-0.4-1.3-1.1-1.7c-0.6-0.3-1.4-0.5-2-0.8
				c-0.4-0.2-0.6-0.6-1-0.8c0.1-0.1,0.1-0.2,0.2-0.3c0.5,0.1,1,0.3,1.4,0.4c0.5-0.4,0.9-0.7,1.3-1c0.5-0.3,1-0.4,1.6-0.6
				c-0.1-0.4-0.1-0.8-0.2-1.1c1.1-0.2,2.2-0.2,3-0.8c1.3-0.9,0.1-1.9-0.6-3.1c0.8,0.1,1.2,0.2,1.6,0.3c1.1-1.9,1.1-2.1,0.2-2.9
				c-0.8,2.2-2.6,3.3-4.6,4.1C449.8,85.2,449.5,85.9,448.9,86.5z M449.2,90.1c0,0.2-0.1,0.4-0.1,0.5c0.7,0.3,1.5,0.9,2.1,0.7
				c0.5-0.1,0.8-1.1,1.2-1.7c-0.1-0.1-0.2-0.3-0.3-0.4C451.1,89.6,450.2,89.9,449.2,90.1z"/>
			<path class="st1" d="M456.3,92.1c7.9-17.1,10.7-34.8,7.3-53.5C469.3,48.4,464.8,81,456.3,92.1z"/>
			<path class="st1" d="M516.6,266.4c-4.7,3.4-9.4,6.5-13.8,10c-3.5,2.7-6.7,5.8-10,8.8c-1.1,1-2.1,2-3.1,3c-0.3,0.2-0.7,0.3-1,0.4
				c-0.1-0.4-0.4-1-0.3-1.3c0.5-0.8,1.2-1.5,1.9-2.2c0.5-0.5,1-1,1.4-1.6c1-0.9,1.9-1.8,2.9-2.7c1.6-1.3,3.3-2.6,5-3.8
				c5.1-3.4,10.3-6.7,15.4-10C515.4,266.8,516,266.7,516.6,266.4z"/>
			<path class="st1" d="M591.3,278.3c-0.3,4-1.4,7.7-3.2,11.5c-0.3-0.3-0.5-0.5-0.7-0.8c-0.9-1.6-1.8-3.2-2.7-4.8
				c-0.2-0.3-0.2-0.9,0-1.1c2.1-1.7,4.2-3.4,6.3-5C591.1,278.2,591.2,278.2,591.3,278.3z"/>
			<path class="st1" d="M594.5,284.5c0.3-2,0.6-3.7,0.7-5.4c0.1-1.5,0.1-3.1,0.2-4.6c0-0.5,0.1-1.1,0.4-1.4c1.8-1.4,3.8-2.7,5.6-4.1
				C601.6,270.5,596.6,282,594.5,284.5z"/>
			<path class="st1" d="M481.6,49.5c4.7,13.8,2.7,27.2-3.2,40.2c-0.2,0-0.3-0.1-0.5-0.1c0.4-1.1,0.9-2.2,1.3-3.4
				c0.4-1.1,0.6-2.3,0.8-3.1c0.6-1.8,1.2-3.1,1.5-4.5c0.6-3.5,1.1-7.1,1.6-10.6c0.2-1.5,0.3-3,0.1-4.5c-0.4-2.2,0.1-4.4-0.4-6.6
				c-0.5-2.1-1-4.3-1.5-6.5c-0.1-0.3-0.1-0.6-0.1-0.9C481.3,49.5,481.5,49.5,481.6,49.5z"/>
			<path class="st1" d="M578.9,177.6c-0.2-0.8-0.3-1.2-0.3-1.6c0-4.2,0.1-8.3-0.1-12.5c-0.2-5-0.5-9.9-0.9-14.8
				c-0.2-3.3-0.7-6.5-1-9.8c0-0.2,0-0.5,0.1-0.8C578.4,140,580.5,174.1,578.9,177.6z"/>
			<path class="st1" d="M516.2,272.7c-8,5.2-14.6,12-21.8,18.7c0.1-0.6,0.1-1,0.3-1.3c3-3.1,6-6.3,9.2-9.3c2.3-2.1,4.9-4,7.4-5.9
				c1.4-1.1,3-1.9,4.6-2.8C516,272.4,516.1,272.5,516.2,272.7z"/>
			<path class="st1" d="M407.1,295.1c2.9,7.8,5.7,15.2,8.4,22.6c-0.1,0.1-0.1,0.1-0.2,0.2c-0.3-0.3-0.6-0.7-0.8-1
				c-0.8-1.5-1.7-3-2.5-4.6c-0.4-0.8-0.9-1.6-1.2-2.4c-1.1-2.8-2.2-5.7-3.1-8.5c-0.5-1.6-0.7-3.4-1-5.1
				C406.8,296,407,295.7,407.1,295.1z"/>
			<path class="st1" d="M434.4,53.7c0.7,0.9,1.4,1.8,2.1,2.6c0.2,0.2,0.6,0.2,0.9,0.2c0.5,0,1-0.1,1.5-0.2c0,0.1,0.1,0.2,0.1,0.4
				c-1.8,0.9-3.6,1.8-5.8,2.9c1.1,1,1.9,2.2,2.9,2.4c1,0.2,2.3-0.6,3.5-0.7c-1.4,0.8-2.9,1.7-4.3,2.5c-0.1,0.1-0.3,0.1-0.5,0.2
				c-2.1,0.9-2.2,1.1-1,2.9c-2.2-0.7-3.7-2.2-5.1-3.9c0.1-0.1,0.2-0.3,0.3-0.4c1,0.7,2,1.4,3,2.2c1-0.7,2-1.5,3.2-2.4
				c-2.1-1.9-4.1-3.7-6.1-5.4c0.1-0.2,0.3-0.3,0.4-0.5c1.1,0.8,2.1,1.6,3.2,2.5c0.8-0.5,1.5-1,2.3-1.5c0.8-0.5,0.9-0.9,0.2-1.6
				c-1.4-1.3-2.7-2.7-4.1-4.1c-0.2-0.2-0.4-0.5-0.6-0.7c0.1-0.1,0.2-0.2,0.3-0.3C432.1,51.8,433.3,52.8,434.4,53.7
				C434.5,53.7,434.4,53.7,434.4,53.7z"/>
			<path class="st1" d="M573.4,246.7c-0.2-0.1-0.7-0.2-1.2-0.4c0.9-3.1,2.1-5.9,4-8.3c0.8-1,1.8-1.9,2.7-2.8
				c0.8-0.8,1.5-0.8,2.2-0.1C578.6,238.9,576.1,242.7,573.4,246.7z"/>
			<path class="st1" d="M424.7,64.5c0.5-0.6,1-1.4,1.6-1.9c0.9-0.8,0.7-1.4-0.1-2.2c-1.5-1.3-2.9-2.8-4.4-4.2
				c0.1-0.1,0.2-0.3,0.4-0.4c0.9,0.8,1.8,1.5,2.8,2.3c1-0.9,2-1.8,3-2.7c-0.8-1.7-2.9-2.5-3.4-4.4c0.1-0.1,0.2-0.2,0.3-0.3
				c0.6,0.6,1.4,1,1.9,1.7c2.3,3,1.6,2.6,5.2,1.6c0.2-0.1,0.4,0,0.8-0.1c-0.2,0.3-0.3,0.5-0.4,0.6c-1.7,0.8-3.5,1.6-5.2,2.4
				c-1.8,0.9-1.8,1.4-0.5,2.8c1,1,1.9,1.3,3.1,0.6c0.5-0.3,1.1-0.4,1.7-0.6c0.1,0.1,0.1,0.2,0.2,0.4C429.3,61.7,427,63.1,424.7,64.5
				C424.7,64.5,424.7,64.5,424.7,64.5z"/>
			<path class="st1" d="M434.5,53.7c0.2-0.4,0.3-0.8,0.6-1.1c0.5-0.4,1.2-0.7,1.9-1.2c-1.6-2-3.1-3.8-4.5-5.6
				c0.1-0.1,0.1-0.1,0.2-0.2c1,0.8,1.9,1.5,2.9,2.3c0.9-0.5,1.7-1,2.8-1.6c-1-1.5-1.9-2.9-2.8-4.3c0.1-0.1,0.3-0.2,0.4-0.3
				c0.5,0.4,0.9,0.7,1.3,1.2c0.3,0.3,0.5,0.8,0.8,1.2c0.6,1.1,1,2.4,3,2.1c-0.1,0.1-0.2,0.3-0.3,0.4c-1.5,0.6-3,1.3-4.5,1.9
				c0.5,1.8,1.2,2.4,3.5,3.2C437.9,52.3,436.2,53,434.5,53.7C434.4,53.7,434.5,53.7,434.5,53.7z"/>
			<path class="st1" d="M493.7,76.1c-1-1,0.2-2.3-0.5-3.6c-0.4,0.6-0.6,1.1-1,1.5c-0.4,0.4-0.9,0.7-1.3,1c-0.3-0.5-0.9-0.9-0.9-1.4
				c0-1.5,0.2-3,0.4-4.6c1.1,0.9,0.1,2.3,0.8,3.6c0.4-0.8,0.7-1.5,1.1-2c0.2-0.3,0.8-0.8,1-0.7c0.4,0.1,1,0.6,1,1
				c0.1,1.8,0,3.5-0.1,5.3C494.2,76.1,493.9,76.1,493.7,76.1z"/>
			<path class="st1" d="M494.8,65.5c-0.5,0-0.7,0-0.8,0c-0.4,0.1-0.8,0.1-1.2,0.2c0.3,0.4,0.4,1,0.8,1.2c1.1,0.4,1.2,1.2,0.9,2.4
				c-1.3-0.5-2.6-1-3.8-1.6c-0.3-0.2-0.3-1-0.5-1.7c0.6-0.1,1.1-0.1,1.5-0.2c0.3-0.8,0-1.2-0.7-1.5c-1-0.4-1.1-1.1-0.9-2.1
				c1.3,0.4,2.5,0.7,3.5,1.3C494.2,63.9,494.4,64.7,494.8,65.5z"/>
			<path class="st1" d="M418,240.5c0.1-0.3,0.1-1.1,0.4-1.7c0.2-0.5,0.7-1.2,1.1-1.2c0.6,0,1.4,0.3,1.9,0.7c0.5,0.5,0.8,1.3,0.9,1.9
				c0,0.6-0.3,1.3-0.7,1.8c-0.3,0.3-0.9,0.4-1.4,0.5C418.4,243,417.9,242.6,418,240.5z"/>
			<path class="st1" d="M676.7,127c0.3-3.8,0.7-7.7,1-11.7C679.8,117.4,679.2,125.2,676.7,127z"/>
			<path class="st1" d="M448.1,49.5c-1.3,0.5-2.7,0.9-4.1,1.4c0,0.1,0.1,0.4,0.1,0.7c-0.6,0.5-4-2.8-4.2-4.2c1.3,1,2.4,1.9,3.6,2.8
				c0.7-0.3,1.5-0.7,2.4-1.1c-0.9-2.6-3.2-4-4.4-6.2c1.7,1.2,3.6,2.3,4.4,4.4c0.4,1,0.9,1.9,2.2,1.9
				C448.2,49.3,448.1,49.4,448.1,49.5z"/>
			<path class="st1" d="M489.7,59.4c0.7,0.3,1.3,0.5,1.9,0.7c0.4,0.1,0.9-0.1,1.3-0.1c-0.3-0.4-0.5-1-0.9-1.3
				c-0.6-0.4-1.5-0.5-2.1-0.9c-0.5-0.2-0.8-0.7-1.1-1.2c2.3-0.2,4.7,1.5,5.1,3.6c0.3,1.3-0.3,1.9-1.6,1.6
				C490.3,61.4,489.7,60.9,489.7,59.4z"/>
			<path class="st1" d="M424.7,64.5c0.8,0.9,1.6,1.8,2.5,2.5c0.2,0.2,0.8,0.1,1.2-0.1c0.8-0.3,1.6-0.8,2.5-1
				c-1.4,1.4-2.9,2.7-4.8,3.3c0.1-0.7,0.5-1.5,0.2-1.9c-0.3-0.6-1-0.9-1.6-1.4c-1.5-1-2.6-2.3-3.4-4
				C422.4,62.8,423.6,63.7,424.7,64.5C424.7,64.5,424.7,64.5,424.7,64.5z"/>
			<path class="st1" d="M437.1,80.3c0.8,0.4,1.6,0.9,2.3,1.3c3.2-2.1,3.2-2.1,3.3-3c1.7,0.5,2.4-1.1,3.7-1.6
				c-0.7,1.5-1.7,2.6-3.1,3.3c-1,0.5-2.2,0.8-2.5,2.1c0,0.1-0.3,0.3-0.5,0.3C439.2,83,437.2,81.6,437.1,80.3z"/>
			<path class="st1" d="M430.5,71.6c0,1.3-2.6,3.4-4.2,3.6c0.7-1.4-0.2-2-1.2-2.4c-1.7-0.8-3-1.9-4.1-3.4c-0.2-0.2-0.3-0.5-0.5-1
				c0.5,0.2,0.7,0.2,0.9,0.3c1.8,1.4,3.6,2.9,5.3,4.4c0.5,0.5,0.9,0.4,1.4,0.1C428.9,72.7,429.7,72.2,430.5,71.6z"/>
			<path class="st1" d="M446.3,72.1c-1.1,1.6-2.3,2.8-4.2,3.4c-0.7,0.2-1.2,1-1.7,1.6c-1.5,0.2-3.5-1.2-3.5-2.7
				c0.7,0.5,1.3,0.9,2,1.2c0.3,0.1,0.9,0.1,1.2-0.1c0.9-0.6,1.7-1.3,2.5-2c0.1-0.1,0.1-0.1,0.2-0.1c0.6-0.2,1.3-0.2,1.9-0.5
				C445.2,72.8,445.8,72.4,446.3,72.1z"/>
			<path class="st1" d="M421.1,75.1c1.2,0.9,2.3,1.9,3.5,2.8c0.8,0.6,1.7,1.3,2.7,1.7c0.4,0.2,1.1-0.3,1.6-0.6
				c0.5-0.3,1-0.6,1.5-0.9c-0.3,0.6-0.4,1.2-0.8,1.6c-0.7,0.8-1.5,1.4-2.5,2c0.2-1.7-1.1-2.1-2.1-2.8c-1.3-0.8-2.6-1.9-3.8-2.9
				c-0.2-0.2-0.3-0.5-0.4-0.8C420.9,75.2,421,75.2,421.1,75.1z"/>
			<path class="st1" d="M440.4,72.2c-1.1-0.8-2.2-1.5-3.3-2.3c-0.2-0.1-0.1-0.5-0.2-0.8c0.3,0,0.6-0.1,0.8,0.1
				c0.7,0.4,1.4,1,2.2,1.5c1.1-0.7,2.1-1.4,3.2-2.2c-0.1-0.1-0.1-0.1-0.2-0.2c0.9-0.1,1.9-0.3,2.8-0.4c0.1,0.1,0.1,0.3,0.2,0.4
				c-0.9,0.5-1.8,1-2.7,1.6c-0.9,0.5-1.8,1.1-2.7,1.7C440.5,71.9,440.4,72,440.4,72.2z"/>
			<path class="st1" d="M422.6,72c0,1.1-2,3.1-3.7,3.5c0.7-1.3-0.1-1.8-0.9-2.3c-1.8-1-3.2-2.3-4.2-4.2c-0.1-0.2-0.1-0.3-0.3-0.9
				c1.4,1.3,2.5,2.3,3.6,3.3c0.2,0.1,0.3,0.3,0.5,0.4c0.7,0.6,1.5,1.5,2.2,1.6c0.7,0.1,1.5-0.9,2.3-1.4C422.2,72,422.4,72,422.6,72z
				"/>
			<path class="st1" d="M422,81.5c1.2,0.9,2.3,1.8,3.5,2.7c0.8,0.6,1.7,1.1,2.6,1.5c0.3,0.1,0.9-0.1,1.2-0.4c0.5-0.4,0.9-1,1.4-1.5
				c0.6,1.3-0.7,3.1-2.6,3.7c0.4-1.3-0.5-1.7-1.4-1.9c-1.8-0.5-3.2-1.5-4.4-2.8c-0.3-0.3-0.4-0.7-0.7-1.1
				C421.8,81.7,421.9,81.6,422,81.5z"/>
			<path class="st1" d="M414.1,61.9c1.6,1.5,3.3,2.9,4.9,4.5c0.6,0.6,1.1,0.6,1.8,0.2c0.7-0.5,1.4-0.8,2.1-1.3
				c0.1,0.2,0.3,0.4,0.4,0.6c-1.4,1-2.9,2-4.3,3c-0.1-0.1-0.2-0.2-0.3-0.3c0.1-0.4,0.3-0.8,0.4-1.3c-1-0.8-2.1-1.4-3-2.3
				c-0.9-0.9-1.5-2-2.3-3C413.9,62,414,61.9,414.1,61.9z"/>
			<path class="st1" d="M420.7,81.6c-0.9-0.7-1.6-1.5-2.4-1.8c-1.8-0.8-3-2.1-4-3.6c-0.1-0.2-0.2-0.5-0.4-1.1
				c0.5,0.4,0.7,0.5,0.9,0.7c1.6,1.4,3.3,2.7,4.9,4.1c0.7,0.6,1.3,0.6,1.9-0.2c0.3-0.4,0.7-0.8,1.1-1.2
				C423.2,79.7,422.1,81.1,420.7,81.6z"/>
			<path class="st1" d="M446.8,58.6c-1.5,1.4-3.8,1.2-5.3,3.1c-1.2-1-2.6-2.1-4-3.2c0.1-0.2,0.2-0.3,0.3-0.5
				c1.4,0.2,2.2,1.6,3.5,2.1c2.7-1.6,2.7-1.6,2.7-2.1C444.9,58.2,445.7,58.4,446.8,58.6z"/>
			<path class="st1" d="M437.3,63.3c1,0.7,2.1,1.3,3.1,2c1.8-0.6,3.1-2.6,5.5-2c-1.1,1.8-4,1.2-4.8,3.5c-1.7-0.6-3.1-1.7-4.2-3
				C437.1,63.6,437.2,63.5,437.3,63.3z"/>
			<path class="st1" d="M445.2,74.4c0.8,0.4,1.6,0.8,2.2,1.1c2.2-0.9,4.2-1.7,6.3-2.5c0.1,0.1,0.2,0.2,0.3,0.3c-0.3,0.3-0.6,0.8-1,1
				c-1.5,0.8-3.1,1.6-4.7,2.3c-0.8,0.4-2.9-0.9-3.2-1.9C445,74.6,445.1,74.5,445.2,74.4z"/>
			<path class="st1" d="M433.8,48.9c-2.4,1-4.6,2-6.9,3c-0.1,0-0.1-0.1-0.2-0.1c0.7-0.7,1.4-1.3,2.3-2.1c-0.9-1.3-1.9-2.6-2.9-4
				c0.1-0.1,0.3-0.3,0.4-0.4c0.6,0.6,1.4,1.1,1.8,1.9c1,2.1,2.6,2.2,4.5,1.7C433.2,48.8,433.5,48.9,433.8,48.9z"/>
			<path class="st1" d="M437.6,85.9c0.3,0,0.5,0,0.6,0.1c0.7,0.3,1.7,1.1,2.1,0.9c1-0.5,1.8-1.5,2.7-2.2c1.1-0.9,2.2-1.8,3.4-2.5
				c-0.5,1.7-1.6,2.8-3.1,3.5c-0.6,0.3-1.1,0.6-1.6,1.1c-0.3,0.3-0.4,0.8-0.8,1.4C439.9,88.3,438.1,87.3,437.6,85.9z"/>
			<path class="st1" d="M407.8,75.5c2,1.8,4.1,3.5,6.1,5.3c0.8-0.7,1.4-1.3,2.1-2c0.3,1.5-0.7,2.1-1.3,2.8c-0.7,0.7-1-0.2-1.4-0.5
				c-0.5-0.4-1-0.8-1.6-1c-1.9-0.8-2.9-2.4-3.9-4.1C407.7,75.9,407.8,75.7,407.8,75.5z"/>
			<path class="st1" d="M415.4,82.1c1,0.8,1.9,1.7,2.9,2.4c0.8,0.6,1.8,1.1,2.7,1.8c0.8,0.6,1.4,0.5,2-0.4c0.2-0.3,0.5-0.6,0.7-0.9
				c0.6,1,0,2.1-1.2,2.9c-1.2-0.6-2.4-1.1-3.4-1.8c-1.3-0.9-2.5-2-3.7-3c-0.2-0.1-0.1-0.5-0.2-0.8C415.2,82.2,415.3,82.1,415.4,82.1
				z"/>
			<path class="st1" d="M418.7,62.1c0.2-0.4,0.5-0.9,0.7-1.3c-1.1-1.5-3-2.3-3.6-4.2c0.1-0.1,0.2-0.2,0.3-0.3
				c0.9,0.8,1.7,1.6,2.6,2.5c1.6,1.6,1.6,1.6,3.6,0.7c0.4-0.2,0.8-0.3,1.2-0.5c0.1,0.2,0.2,0.3,0.2,0.5c-1.6,1-3.2,1.9-4.7,2.9
				C418.9,62.3,418.8,62.2,418.7,62.1z"/>
			<path class="st1" d="M453,49.1c0.4-0.5,0.8-0.9,1.4-1.5c-0.5-2.3-3-3.5-4.1-5.6c1.7,0.9,3.3,1.7,4,3.7c0.4,1,1,1.8,1.6,2.9
				C455.2,49.1,454.2,49.6,453,49.1L453,49.1z"/>
			<path class="st1" d="M447.5,53.7c-1.4,1.4-3.5,1.2-5.2,2.6c-1.1-0.9-2.5-2.1-3.9-3.2c0.1-0.2,0.3-0.4,0.4-0.6
				c1.2,0.8,2.3,1.6,3.5,2.4C443.9,54.3,445.4,53.3,447.5,53.7z"/>
			<path class="st1" d="M407.2,68.7c1.9,1.7,3.8,3.4,5.6,5.2c0.8-0.7,1.5-1.2,2.3-1.8c0.2,1.1-0.9,2.4-2.1,2.9c-1-0.8-1.7-1.5-2.6-2
				C408.7,72,407.9,70.4,407.2,68.7z"/>
			<path class="st1" d="M674.3,116c1.4,2,0.9,7.2-0.9,9.1C673.7,122.1,674,119.1,674.3,116z"/>
			<path class="st1" d="M416,88.5c-2.5-1.8-6.1-2.4-6.8-6.1c1.8,2.1,3.9,4,6.6,4.9c0.4-0.5,0.8-0.9,1.3-1.5
				C417.5,86.9,417.2,87.6,416,88.5z"/>
			<path class="st1" d="M417.7,50.3c0.6,0.6,1.3,1.2,1.8,1.8c1.5,1.9,1.5,1.9,3.9,1.2c0.5-0.2,1-0.2,1.5-0.4c0,0.1,0.1,0.3,0.1,0.4
				c-1.8,0.9-3.5,1.7-5.5,2.7c0.6-1.9,0.6-1.9-0.8-3.4c-0.5-0.6-0.9-1.3-1.4-2C417.4,50.5,417.6,50.4,417.7,50.3z"/>
			<path class="st1" d="M446.7,55.1c0.3,0,0.6,0,0.9,0.1c0.3,0.1,0.6,0.3,0.9,0.6c1.3,1.2,2.6,1.6,4.3,0.7c0.6-0.4,1.6-0.1,2.5-0.1
				c0,0.1,0.1,0.2,0.1,0.3c-1.1,0.4-2.2,0.8-3.3,1.1c-0.6,0.2-1.4,0.5-1.8,0.3c-1.3-0.7-2.4-1.6-3.7-2.4
				C446.6,55.4,446.6,55.2,446.7,55.1z"/>
			<path class="st1" d="M413.5,243c0-1,0.6-1.6,1.6-1.7c0.8-0.1,1.6,0.9,1.6,1.8c0,1-0.8,1.9-1.7,1.9
				C414.1,245,413.5,244.2,413.5,243z"/>
			<path class="st1" d="M420.2,49.9c0.5-0.5,1-1.1,1.6-1.6c-0.9-1.3-1.7-2.5-2.5-3.7c0.2-0.1,0.3-0.2,0.5-0.3
				c0.6,0.7,1.4,1.3,1.8,2.1c0.7,1.3,1.7,1.6,3,1.1c0.6-0.2,1.2-0.3,1.8-0.5c0,0.1,0.1,0.2,0.1,0.4c-2,0.9-4.1,1.8-6.1,2.8
				C420.3,50,420.2,50,420.2,49.9z"/>
			<path class="st1" d="M433.5,44.1c-1.7,0.8-3.3,1.5-5,2.3c-0.1-0.1-0.2-0.2-0.3-0.3c0.9-0.7,1.7-1.3,2.6-2
				c-0.8-1.3-1.5-2.6-2.3-3.9c0.2-0.1,0.3-0.2,0.5-0.3c0.5,0.6,1,1.1,1.5,1.7c0.8,1,1,2.7,3.1,2.1C433.5,43.8,433.5,43.9,433.5,44.1
				z"/>
			<path class="st1" d="M448.7,45.2c-0.7,0.2-1.6,0.6-2.5,0.9c-0.2,0.1-0.5-0.2-0.7-0.3c0.2-0.2,0.3-0.5,0.5-0.6
				c0.4-0.2,0.9-0.3,1.7-0.6c-1.4-2.1-2.7-4-4-5.9C446.4,39.7,447.4,42.5,448.7,45.2z"/>
			<path class="st1" d="M411.6,61.6c1-1.2,0.1-1.7-0.5-2.3c-0.7-0.7-1.3-1.5-2-2.3c0.2-0.1,0.3-0.3,0.5-0.4c0.7,0.7,1.5,1.3,2.1,2.1
				c0.9,1.2,1.7,1.2,2.9,0.5c0.5-0.3,1.1-0.5,1.6-0.8c0.1,0.2,0.2,0.4,0.3,0.6c-1.5,0.9-3,1.9-4.6,2.8
				C411.8,61.7,411.7,61.6,411.6,61.6z"/>
			<path class="st1" d="M422.3,38.6c0.5,0.7,1.1,1.4,1.5,2.2c0.4,0.9,1,1.1,1.9,1c0.9-0.2,1.7-0.3,2.6-0.3c-2.4,1-4.8,2.1-7.4,3.1
				c0.9-0.8,1.7-1.6,2.6-2.4c-0.6-1.1-1.2-2.3-1.8-3.4C422,38.8,422.2,38.7,422.3,38.6z"/>
			<path class="st1" d="M419.7,92.8c-0.3,0.8-0.6,1.5-0.9,2c-1.3-0.6-2.3-1.1-3.4-1.4c-1.9-0.6-3-1.9-4-3.4
				c-0.1-0.2-0.1-0.5,0.1-0.9c0.3,0.3,0.6,0.5,0.9,0.8c1.4,1.7,3.1,2.9,5.2,3.6C418.1,93.7,418.7,93.2,419.7,92.8z"/>
			<path class="st1" d="M411.7,68.4c0.5-1-0.1-1.5-0.7-2c-0.7-0.6-1.5-1.2-2.1-1.8c-0.3-0.3-0.5-0.8-0.7-1.2
				c0.1-0.1,0.2-0.2,0.3-0.2c1.4,1.2,2.8,2.4,4.2,3.7c0.9-0.6,1.7-1.1,2.6-1.6c0.1,0.1,0.2,0.3,0.3,0.4
				C414.7,67,413.2,67.6,411.7,68.4z"/>
			<path class="st1" d="M424.6,93.9c-1.4-0.5-2.5-1.1-3.6-1.4c-1.8-0.5-2.9-1.8-3.9-3.1c-0.1-0.1-0.1-0.2-0.1-0.4
				c0-0.1,0.1-0.2,0.2-0.5c0.4,0.3,0.7,0.6,1,0.8c1.5,1.1,3,2.1,4.6,3.2c0.9,0.7,1.6,0.5,2.1-0.6c0.1-0.2,0.3-0.3,0.6-0.6
				C425.6,92.7,425.2,93.4,424.6,93.9z"/>
			<path class="st1" d="M404,82.6c1.5,2.4,3.6,4,6.2,5.2c0.3-0.4,0.6-0.7,1-1.1c0.1,0.1,0.2,0.1,0.4,0.2c-0.3,0.6-0.6,1.3-0.9,1.9
				C407.6,87.4,404.5,86.4,404,82.6z"/>
			<path class="st1" d="M455.5,52.6c-1.3,0.4-2.7,0.8-4.2,1.3c-1.2-0.9-2.5-2-3.9-3c0-0.1,0.1-0.3,0.1-0.4c0.3,0,0.7,0,0.9,0.1
				c0.4,0.2,0.8,0.5,1.2,0.8c1.2,1.1,2.4,1.7,4,0.8c0.4-0.2,1.1,0,1.7,0.1C455.4,52.3,455.4,52.5,455.5,52.6z"/>
			<path class="st1" d="M554.4,262.4c-1.1-1.7-0.7-3.2,0.9-3.6c0.4-0.1,1.2,0,1.3,0.2c0.2,0.5,0.3,1.3,0,1.7
				C555.9,261.3,555.1,261.8,554.4,262.4z"/>
			<path class="st1" d="M438.4,37.1c1.3,0.6,1.5,2,2.2,3.1c0.3,0.5,0.8,1,1.4,1.6c-1.2,0.5-2.6,1-3.9,1.5c-0.1-0.2-0.2-0.4-0.3-0.6
				c0.8-0.5,1.6-0.9,2.4-1.4c-0.4-0.7-0.7-1.4-1.1-2.1c-0.3-0.6-0.7-1.3-1.1-1.9C438.1,37.2,438.2,37.2,438.4,37.1z"/>
			<path class="st1" d="M411.2,49.8c0.8,0.9,1.6,1.7,2.2,2.7c0.5,0.7,0.9,0.7,1.6,0.4c0.7-0.3,1.5-0.6,2.3-0.9
				c0.1,0.2,0.2,0.3,0.2,0.5c-1.5,0.8-3.1,1.7-4.6,2.5c-0.1-0.1-0.1-0.2-0.2-0.3c0.2-0.4,0.4-0.7,0.5-1c-0.9-1.2-1.7-2.3-2.5-3.5
				C410.9,50.1,411.1,49.9,411.2,49.8z"/>
			<path class="st1" d="M408.2,82c-2.2-1.8-5.3-2.6-5.7-5.6c1.7,1.4,3.5,3,5.4,4.7c0.6-0.6,1.1-1,1.5-1.4c0.1,0.1,0.2,0.1,0.3,0.2
				C409.7,80.8,408.9,81.5,408.2,82z"/>
			<path class="st1" d="M430.4,40.4c0.8-0.5,1.6-1.1,2.5-1.6c-0.5-1.2-1.1-2.4-1.6-3.6c0.2-0.1,0.4-0.2,0.5-0.3
				c0.4,0.5,0.7,1.1,1,1.6c0.6,1,0.7,2.4,2.6,1.9c0,0.2-0.1,0.3-0.1,0.5c-1.6,0.7-3.1,1.3-4.7,2C430.5,40.8,430.4,40.6,430.4,40.4z"
				/>
			<path class="st1" d="M419.3,46.3c-1.7,0.8-3.3,1.5-5,2.3c-0.1-0.1-0.1-0.2-0.2-0.2c0.2-0.4,0.5-0.7,0.7-1.2
				c-0.7-1.1-1.4-2.2-2.1-3.3c0.2-0.1,0.3-0.2,0.5-0.3c0.5,0.7,1.2,1.2,1.6,2c0.6,1.2,1.3,1.3,2.4,0.9c0.6-0.3,1.3-0.4,1.9-0.6
				C419.2,45.9,419.2,46.1,419.3,46.3z"/>
			<path class="st1" d="M426,36.7c-0.4-1-0.8-2-1.1-3c0.1-0.1,0.2-0.2,0.4-0.2c0.3,0.4,0.7,0.7,0.9,1.2c0.9,1.7,1.5,2,3.4,1.7
				c0.3,0,0.6-0.1,0.9-0.1c0.1,0,0.1,0.1,0,0c-2.3,0.9-4.6,1.7-7,2.6c-0.1,0-0.1-0.1-0.2-0.1C424.2,38.1,425.1,37.4,426,36.7z"/>
			<path class="st1" d="M408.7,243.2c0.2-0.2,0.5-0.8,1-0.9c0.8-0.1,1.7,0.3,1.5,1.2c-0.2,0.8-0.6,1.7-1.3,2.3
				C409.5,246.2,408.7,244.9,408.7,243.2z"/>
			<path class="st1" d="M416.9,37.9c0.9-0.9,1.8-1.8,2.7-2.7c-0.3-0.9-0.5-1.7-0.8-2.5c0.1-0.1,0.2-0.1,0.4-0.2
				c0.3,0.5,0.7,1,0.9,1.5c0.2,0.8,0.7,0.9,1.3,0.8c1-0.1,1.9-0.2,3-0.1c-2.7,0.5-5.3,1.3-7.2,3.5C417.1,38.1,417,38,416.9,37.9z"/>
			<path class="st1" d="M409.6,58.9c-1.3,0.9-2.5,1.7-3.5,2.4c-0.4-0.8-0.7-1.5-1.1-2.1c-0.5-0.8-1.2-1.5-1.8-2.2
				c0.1-0.1,0.2-0.2,0.3-0.3c0.9,1.1,1.8,2.1,2.7,3.2c0.1-0.1,0.3-0.2,0.4-0.3c0.9-0.5,1.8-0.9,2.7-1.4
				C409.4,58.5,409.5,58.7,409.6,58.9z"/>
			<path class="st1" d="M402.6,70.3c1.4,1.2,2.7,2.4,4.1,3.6c0.7-0.5,1.3-1,1.8-1.4c0.1,0.1,0.2,0.2,0.3,0.3
				c-0.3,1.1-1.1,1.7-2.1,2.4C405.5,73.2,402.9,72.9,402.6,70.3z"/>
			<path class="st1" d="M447.5,35.8c2,1,1.5,3.6,3,5.1c-1.1,0.5-2,1-3.3,0.6c0.1-0.3,0.1-0.5,0.2-0.5c1.7-0.3,1.3-1.3,0.9-2.3
				c-0.4-0.9-0.9-1.8-1.3-2.6C447.2,36,447.3,35.9,447.5,35.8z"/>
			<path class="st1" d="M410.9,51.9c-1.5,0.9-2.9,1.8-4.4,2.6c-0.1-0.1-0.1-0.1-0.2-0.2c0.2-0.4,0.3-0.7,0.5-1.1
				c-0.7-1-1.5-2.1-2.2-3.1c0.1-0.1,0.3-0.2,0.4-0.4c0.8,0.9,1.6,1.9,2.5,2.9c0.9-0.4,2-0.8,3-1.2C410.8,51.6,410.8,51.8,410.9,51.9
				z"/>
			<path class="st1" d="M407.1,29.3c0-0.2,0-0.5-0.1-1c-1.2,0.4-2.3,0.8-3.4,1.2c0.3-1,2.1-1.9,3.5-1.9c0.8,0,1.7-0.1,2.6-0.1
				c0.7,0,1.4,0,2.2,0.2C410.3,28.2,408.8,28.7,407.1,29.3z"/>
			<path class="st1" d="M416.8,40.9c-0.5-1-0.9-1.9-1.3-2.9c0.2-0.1,0.3-0.2,0.5-0.3c0.4,0.6,0.9,1.2,1.2,1.8c0.3,0.7,0.7,1,1.6,0.8
				c0.9-0.3,1.8-0.4,2.7-0.6c0,0.1,0.1,0.2,0.1,0.3c-1.8,0.7-3.6,1.5-5.8,2.3C416.2,41.8,416.5,41.4,416.8,40.9z"/>
			<path class="st1" d="M408.9,65.6c-0.5,1-1.4,1.7-2.4,2.2c-0.1,0-0.2,0-0.2,0c-1.2-1.3-3-2.1-3.7-3.9c0.1-0.1,0.2-0.2,0.3-0.3
				c0.7,0.6,1.4,1.1,2,1.8c1.4,1.4,1.4,1.4,3,0.3c0.2-0.2,0.5-0.2,0.8-0.3C408.7,65.4,408.8,65.5,408.9,65.6z"/>
			<path class="st1" d="M441.3,32.8c0.4,0.8,0.9,1.5,1.2,2.3c0.4,0.7,0.2,1.9,1.6,1.9c-1.3,0.6-2.6,1.2-4,1.4
				c-0.1-0.2-0.1-0.4-0.2-0.6c0.7-0.3,1.4-0.7,2.2-1c-0.5-1.2-0.9-2.5-1.4-3.7C440.9,33,441.1,32.9,441.3,32.8z"/>
			<path class="st1" d="M402.8,81.1c0.2-0.2,0.3-0.3,0.5-0.5c0.1-0.1,0.3-0.2,0.5-0.4c0.1,0.1,0.2,0.2,0.3,0.2c-0.3,0.5-0.5,1-1,1.4
				c-0.2,0.2-0.8,0-1.1-0.2c-2-1-3.8-2.2-4.2-4.6c0-0.2,0-0.4-0.1-0.8C399.2,78.7,400,79.5,402.8,81.1z"/>
			<path class="st1" d="M573.9,200.7c-0.8,2.7-1.5,5.5-2.2,7.9c-0.4-2.6-0.3-5.5,1.7-8C573.6,200.6,573.8,200.7,573.9,200.7z"/>
			<path class="st1" d="M412.6,94.4c-2.9,0.2-6.1-2.4-6.1-4.9C408.1,91.6,410,93.4,412.6,94.4z"/>
			<path class="st1" d="M412.7,45.4c-1.5,0.7-3,1.5-4.4,2.2c-0.1-0.1-0.1-0.1-0.2-0.2c0.2-0.4,0.4-0.7,0.5-1.1
				c-0.5-1-1.1-1.9-1.6-2.8c0.2-0.1,0.3-0.2,0.5-0.3c0.6,0.9,1.3,1.7,2,2.7c1-0.3,2-0.7,3.1-1C412.5,45.1,412.6,45.3,412.7,45.4z"/>
			<path class="st1" d="M434.1,72.9c2,1.5,3-0.6,4.5-1.1c0,1.1-0.6,1.6-5.4,4.2C433.6,74.9,435.4,74.4,434.1,72.9z"/>
			<path class="st1" d="M449.3,37.2c0.5-0.2,1-0.4,1.5-0.6c-0.4-1.3-0.9-2.5-1.3-3.8c0.1-0.1,0.3-0.1,0.4-0.2c1.6,1,1.3,3,2.3,4.7
				c-1.1,0.2-2,0.3-2.9,0.4C449.3,37.5,449.3,37.3,449.3,37.2z"/>
			<path class="st1" d="M515.4,298.5c0.1-0.8,0.1-1.3,0.1-1.5c0.9-0.3,1.7-0.4,2.4-0.7c0.2-0.1-0.1-0.9-0.1-1.4
				c0.5-0.3,1.1-0.7,1.7-1.1c0.2,0.3,0.4,0.7,0.8,1.4c-0.6,0-1,0.1-1.6,0.1c0.1,0.3,0.3,0.6,0.5,1.2
				C518,297,516.8,297.7,515.4,298.5z"/>
			<path class="st1" d="M437.2,34.1c-1.4,0.5-2.7,1.1-4.1,1.6c-0.1-0.1-0.2-0.3-0.3-0.4c0.8-0.6,1.7-1.1,2.5-1.7
				c-0.3-0.9-0.6-1.9-1-3C436.3,31.2,435.2,33.8,437.2,34.1z"/>
			<path class="st1" d="M429.7,31.3c0.4,0.1,0.9,0.2,1.4,0.2c0,0.1,0,0.2,0,0.3c-1.5,0.7-3.1,1.4-4.6,2c-0.1-0.1-0.2-0.2-0.2-0.4
				c0.6-0.4,1.1-1,1.7-1.3c0.8-0.4,1-0.9,0.6-1.7c-0.2-0.4-0.2-0.8-0.3-1.3c0.1,0,0.3-0.1,0.4-0.1C429.1,29.8,429.4,30.5,429.7,31.3
				z"/>
			<path class="st1" d="M411.7,39.6c1.1-0.2,2.2-0.5,3.3-0.7c0,0.1,0.1,0.3,0.1,0.4c-1.7,0.7-3.3,1.4-5,2.1c0.2-0.7,0.6-1.4,0.6-1.9
				c-0.1-0.6-0.5-1.3-0.9-1.9c0.1-0.1,0.3-0.1,0.4-0.2C410.7,38.1,411.1,38.8,411.7,39.6z"/>
			<path class="st1" d="M447.1,99.1c-0.2,0.2-0.6,0.6-1,1.1c-1.4-2.1-4.4-1.4-5.9-3.9C442.7,97.3,444.9,98.1,447.1,99.1z"/>
			<path class="st1" d="M397.7,71c1.1,1,2.3,1.9,3.5,2.9c0.6-0.4,1.1-0.8,1.6-1.2c0.1,0.1,0.2,0.2,0.4,0.4c-0.6,0.7-1.2,1.4-1.9,2.2
				C400.1,73.7,397.9,73.3,397.7,71z"/>
			<path class="st1" d="M453.1,30.1c1.2,0.6,0.9,1.9,1,3c0.5,0.1,0.9,0.1,1.4,0.2c0,0.1,0,0.2,0,0.3c-1.3,0.2-2.6,0.4-4,0.6
				c0-0.2-0.1-0.4-0.1-0.5c0.5-0.2,1.1-0.4,1.7-0.7c-0.2-0.9-0.4-1.8-0.6-2.7C452.7,30.2,452.9,30.1,453.1,30.1z"/>
			<path class="st1" d="M432.1,71c0.9-0.9,1.8-2.1,2.9-2.8c1.2-0.8,2.6-1.2,3.9-1.6C436.9,68.5,434.6,69.8,432.1,71
				C432.1,70.9,432.1,71,432.1,71z"/>
			<path class="st1" d="M407.5,94.9c-2.7-0.3-4.7-2-5.5-4.9C403.8,91.7,405.7,93.3,407.5,94.9z"/>
			<path class="st1" d="M448.6,71.3c0-0.3,0-0.9,0.1-0.9c1.5-0.6,3.1-1.1,4.7-1.5C452.8,70.1,449.9,71.4,448.6,71.3
				C448.5,71.2,448.6,71.3,448.6,71.3z"/>
			<path class="st1" d="M398.7,56.9c0.8,0.9,1.6,1.7,2.4,2.6c0.7-0.4,1.5-0.8,2.2-1.2c0.1,0.2,0.2,0.3,0.3,0.5
				c-0.9,0.7-1.7,1.4-2.6,2.1c-1.1-1.3-2-2.4-2.9-3.5C398.3,57.2,398.5,57.1,398.7,56.9z"/>
			<path class="st1" d="M404.8,88.3c-3.2-0.5-5.3-2.6-5.3-5.3C400.5,85.6,402.8,86.8,404.8,88.3z"/>
			<path class="st1" d="M414.2,95.4c2,1.5,3.7,2.8,5.3,4C417.7,99.8,415,98.1,414.2,95.4z"/>
			<path class="st1" d="M434.3,81.2c0.1-0.7,0.2-1.3,0.3-2c1.7,0.8,2.3-1.3,3.7-1.9C438.4,78.6,436,80.9,434.3,81.2z"/>
			<path class="st1" d="M432.2,103.9c0.5,0.2,1,0.4,1.4,0.7c1.2,1,2.5,1.7,4.1,1.9c0.4,0.1,0.7,0.4,0.9,0.7c0,0-0.2,0.5-0.4,0.5
				c-0.2,0.1-0.5,0.1-0.7,0c-0.9-0.5-1.9-1-2.8-1.5c-1-0.6-1.9-1.3-2.8-1.9C432,104.2,432.1,104,432.2,103.9z"/>
			<path class="st1" d="M654.2,118.1c0.1-1.5,0.1-3,0.2-4.5c0-0.2,0.3-0.4,0.5-0.6c0.2,0.2,0.5,0.4,0.5,0.6c0.1,1.6,0.1,3.1-0.8,4.5
				C654.5,118.1,654.4,118.1,654.2,118.1z"/>
			<path class="st1" d="M400.7,68c-1-1.5-2.8-2.1-3.2-3.7c0.1-0.1,0.2-0.2,0.3-0.3c0.8,1,1.7,2.1,2.5,3.1c0.1-0.1,0.3-0.2,0.4-0.3
				c0.6-0.4,1.2-0.8,1.8-1.3C402.7,66.9,401.5,67.2,400.7,68z"/>
			<path class="st1" d="M449.2,66.6c-0.3-0.8,0.3-0.9,0.8-1.1c0.5-0.2,1-0.5,1.7-0.9c0.5,0.1,1.2,0.2,2,0.3
				C453.1,65.8,450.4,66.9,449.2,66.6L449.2,66.6z"/>
			<path class="st1" d="M415.2,100.3c-2.4,0.4-5.1-2.5-5.4-4.3C411.7,97.5,413.5,99,415.2,100.3z"/>
			<path class="st1" d="M445.5,33.3c-1.1,0.3-2,0.6-2.9,0.8c-0.1-0.2-0.2-0.4-0.2-0.5c0.6-0.3,1.1-0.6,1.7-1
				c-0.2-0.9-0.4-1.9-0.7-2.9C445.2,30.4,444.6,32.2,445.5,33.3z"/>
			<path class="st1" d="M410.6,100.6c-2,0.2-4.4-1.9-4.8-4.3C407.5,97.8,409.1,99.2,410.6,100.6z"/>
			<path class="st1" d="M402.4,47.1c1.5-1.4-0.6-2.1-0.3-3.6c0.6,0.9,1.1,1.5,1.6,2.2c0.9-0.3,1.9-0.7,2.9-1
				c0.1,0.2,0.2,0.3,0.2,0.5c-1.4,0.7-2.8,1.4-4.1,2.2C402.6,47.2,402.5,47.1,402.4,47.1z"/>
			<path class="st1" d="M398.7,90.2c1,2.4,3,3.7,5.2,4.8C401.1,95.2,398.9,93.2,398.7,90.2z"/>
			<path class="st1" d="M404.7,51.6c-0.8,1.1-2.1,1.6-3.1,2.2c-0.7-1.2-1.3-2.2-1.9-3.2c0.1-0.1,0.2-0.2,0.4-0.3
				c0.6,0.7,1.2,1.4,1.9,2.2c0.8-0.4,1.6-0.8,2.5-1.3C404.5,51.4,404.6,51.5,404.7,51.6z"/>
			<path class="st1" d="M414.8,32c0.9-2.7,4-4.1,7-3.2C419.1,29.1,416.5,29.7,414.8,32z"/>
			<path class="st1" d="M432.1,70.9c0.5,0.4,1.1,0.9,1.6,1.3c-2.4-0.2-4.7-2-5.2-3.9C429.9,69.4,431,70.2,432.1,70.9
				C432.1,71,432.1,70.9,432.1,70.9z"/>
			<path class="st1" d="M453,49.1c-0.2,0.2-0.6,0.6-0.7,0.6c-1.3-1.1-2.6-2.2-3.7-3.5C450.5,46.6,451.8,47.8,453,49.1
				C453,49.1,453,49.1,453,49.1z"/>
			<path class="st1" d="M437.3,102.6c1.2,0.9,2.9,0.4,3.7,2c0.1,0.2,0.1,0.6,0,0.8c-0.1,0.2-0.6,0.3-0.7,0.2
				c-1.1-0.7-2.1-1.6-3.1-2.4c-0.1-0.1-0.1-0.2-0.1-0.3C437.2,102.8,437.2,102.7,437.3,102.6z"/>
			<path class="st1" d="M427.2,30c-2.6-0.1-4.8,1.1-6.8,2.7C420.1,30.8,423.5,29.5,427.2,30z"/>
			<path class="st1" d="M416.4,28c-2.5,0.5-5,1.1-6.6,3.8C410.1,29,413.2,27.2,416.4,28z"/>
			<path class="st1" d="M402.4,96.7c1.6,1.5,3,2.9,4.4,4.2C405.4,101.7,403,99.1,402.4,96.7z"/>
			<path class="st1" d="M439.1,88.2c0.6,1.2-0.6,3.1-2.4,3.9c-0.1-0.6-0.2-1.1-0.3-1.7C438,90.7,437.9,88.7,439.1,88.2z"/>
			<path class="st1" d="M428.8,74.8c1.5,1.1,3,2.2,4.8,3.6C431.3,78.2,428.9,76.5,428.8,74.8z"/>
			<path class="st1" d="M435.3,86.7c0-0.6,0-1.2,0-1.3c0.8-0.7,1.5-1.3,2.2-1.8c0.3-0.2,0.7-0.4,1-0.5c-0.1,0.4,0,0.8-0.2,1.1
				C437.3,85.8,436.5,86.4,435.3,86.7z"/>
			<path class="st1" d="M425.2,24.6c-2.6-0.3-4.4,1.3-6.4,2.8C419.1,25.1,422.2,23.8,425.2,24.6z"/>
			<path class="st1" d="M428,91.3c-2.1,0.1-4.5-1.6-4.8-3.5C424.9,89,426.4,90.1,428,91.3z"/>
			<path class="st1" d="M433.2,84.3c-1.7-0.1-3-1.2-4.1-2.4c-0.1-0.1,0-0.4,0-0.7c0.2,0,0.4-0.1,0.6,0c1.3,0.9,2.5,1.8,3.8,2.7
				C433.4,84.1,433.3,84.2,433.2,84.3z"/>
			<path class="st1" d="M395.7,84c0.6,0.7,1.2,1.7,2.1,2.4c0.8,0.7,1.7,1.3,2.8,2C398.2,88.8,396.1,86.6,395.7,84z"/>
			<path class="st1" d="M446.7,86.7c0.7,1.5-0.8,3.5-2.9,3.6C444.8,89.2,445.7,88,446.7,86.7z"/>
			<path class="st1" d="M449.9,62c0.4-1.3,1.7-1.1,2.6-1.5c0.5-0.2,1.2,0,1.9,0C453.4,61.6,451.1,62.3,449.9,62L449.9,62z"/>
			<path class="st1" d="M419.6,94.6c1.7,1.3,3.1,2.4,4.5,3.5C422.3,98.3,419.9,96.7,419.6,94.6z"/>
			<path class="st1" d="M489.6,52.7c1,1.2,1.9,2.3,2.9,3.4C490.4,56.4,489,54.3,489.6,52.7z"/>
			<path class="st1" d="M397.8,73.6c-0.3,1.2-1,1.6-1.9,1c-1.2-0.7-2.5-1.4-2.6-3.1c1.1,0.9,2.1,1.8,3.2,2.7
				C396.9,73.9,397.3,73.8,397.8,73.6z"/>
			<path class="st1" d="M418.3,33.5c-2,0.7-3.9,1.4-5.7,2C413.3,33.8,415.5,33,418.3,33.5z"/>
			<path class="st1" d="M396.1,59.5c0.6-0.4,1.2-0.7,1.8-1c0.1,0.1,0.2,0.2,0.3,0.4c-0.6,0.6-1.3,1.2-2,1.8c-0.9-1.1-1.7-2-2.5-3
				c0.1-0.1,0.3-0.3,0.4-0.4C394.7,58.1,395.4,58.8,396.1,59.5z"/>
			<path class="st1" d="M450.9,27.9c-0.8,0-1.8,0-2.9,0c0.8-1,0.8-1,5.5-1.3c0,0.1,0.1,0.2,0.1,0.3c-0.4,0.1-0.8,0.2-1.2,0.4
				C452,27.5,451.6,27.7,450.9,27.9z"/>
			<path class="st1" d="M430,86.7c1.6,1,2.9,1.9,4.5,2.9C432.7,89.9,430.4,88.5,430,86.7z"/>
			<path class="st1" d="M428.3,21.1c-1.6,0.8-3.1,1.6-4.7,2.4C424,21.7,426.5,20.5,428.3,21.1z"/>
			<path class="st1" d="M424.1,28.1c0.1-1.6,2.7-2.9,4.9-2.5C427.3,26.4,425.7,27.2,424.1,28.1z"/>
			<path class="st1" d="M449.9,61.9c-0.2,0.2-0.4,0.6-0.5,0.6c-1.1-0.7-2.2-1.3-3.2-2c-0.1-0.1-0.1-0.4-0.1-0.6
				c0.3,0,0.7-0.2,0.9-0.1C448,60.5,448.9,61.3,449.9,61.9C449.9,62,449.9,61.9,449.9,61.9z"/>
			<path class="st1" d="M414.5,101.8c1.4,1.1,2.8,2.2,4.2,3.3C417.5,105.5,415,103.9,414.5,101.8z"/>
			<path class="st1" d="M429.5,29.5c0.6-1.7,3-2.8,4.7-2.2C432.6,28.1,431.2,28.8,429.5,29.5z"/>
			<path class="st1" d="M435.8,94.9c-1.7,0.4-3.6-0.8-3.9-2.4C433.2,93.3,434.5,94.1,435.8,94.9z"/>
			<path class="st1" d="M425.4,93.7c1.4,1,2.7,2,4.1,3C427.8,97,425.6,95.4,425.4,93.7z"/>
			<path class="st1" d="M422.9,100.1c1.6,1.1,3,2.1,4.4,3.1C425.8,103.4,423.4,101.9,422.9,100.1z"/>
			<path class="st1" d="M428.1,24.5c0.7-1.7,2.8-2.7,4.8-2.2C431.3,23,429.8,23.7,428.1,24.5z"/>
			<path class="st1" d="M449.1,66.6c-0.2,0.2-0.5,0.6-0.6,0.5c-1-0.5-1.9-1.1-2.9-1.7c-0.1-0.1-0.1-0.4-0.2-0.7
				c0.3,0,0.6-0.2,0.8-0.1C447.3,65.3,448.2,66,449.1,66.6C449.2,66.6,449.1,66.6,449.1,66.6z"/>
			<path class="st1" d="M412.8,33c-1.9,0.7-3.5,1.3-5.1,2C408,33.5,410.4,32.4,412.8,33z"/>
			<path class="st1" d="M418.5,101.2c1.4,1,2.8,2,4.2,3C421.3,104.6,419,103.2,418.5,101.2z"/>
			<path class="st1" d="M410.9,102.1c1.5,1.3,2.8,2.3,4.1,3.4C413.8,106,411.4,104.2,410.9,102.1z"/>
			<path class="st1" d="M448.6,71.3C448.6,71.3,448.5,71.2,448.6,71.3c-0.2,0.2-0.5,0.6-0.5,0.6c-0.9-0.4-1.7-0.7-2.5-1.2
				c-0.2-0.1-0.3-0.6-0.4-0.9c0.3,0,0.7-0.1,0.9,0C446.9,70.2,447.8,70.7,448.6,71.3z"/>
			<path class="st1" d="M430.1,110.1c0.3,0.6,0.6,1.1,0.8,1.7c-0.7,0.2-1.4,0.4-2.1,0.6c0.2-0.8,0.3-1.5,0.5-2.3
				C429.5,110.2,429.8,110.2,430.1,110.1z"/>
			<path class="st1" d="M404.9,40.7c0.7-2,2.6-1.9,4.1-2.5c0.1,0.2,0.2,0.3,0.2,0.5C407.8,39.4,406.4,40.1,404.9,40.7z"/>
			<path class="st1" d="M397.9,81.4c-1.9,0-3.4-1.4-3.8-3.1C395.6,79.4,396.8,80.4,397.9,81.4z"/>
			<path class="st1" d="M440.4,93.7c0.4,1.2,0,2.2-1.4,3.2c-0.2-0.2-0.4-0.5-0.6-0.7c-0.2-0.2-0.4-0.3-0.7-0.6
				C439.7,96.3,439.2,93.9,440.4,93.7z"/>
			<path class="st1" d="M432.7,101.7c-1.8,0.1-3.8-1.1-4.1-2.6C429.9,100,431.1,100.8,432.7,101.7z"/>
			<path class="st1" d="M396.3,92c1.3,1,2.7,2.1,4.3,3.3C398.1,95.2,396.7,94,396.3,92z"/>
			<path class="st1" d="M407.7,32.9c-1.4,0.6-2.9,1.1-4.4,1.7C403.7,33.2,405.5,32.4,407.7,32.9z"/>
			<path class="st1" d="M575.9,131.9c0.3,1.7,0.7,3.5,1,5.2c-0.2,0-0.4,0.1-0.6,0.1c-0.3-1.8-0.5-3.5-0.8-5.3
				C575.6,131.9,575.8,131.9,575.9,131.9z"/>
			<path class="st1" d="M393.2,85.7c1.2,1,2.4,1.9,3.5,2.8C394.8,88.5,393.3,87.3,393.2,85.7z"/>
			<path class="st1" d="M450.1,23.2c-1.3,0.2-2.2,0.3-3.5,0.5c0.7-1.2,1.8-1.4,2.7-1.7C449.4,22,449.7,22.7,450.1,23.2z"/>
			<path class="st1" d="M437.1,24.4c-1.2,0.5-2.4,0.9-3.8,1.5C434,24.5,435.7,23.7,437.1,24.4z"/>
			<path class="st1" d="M428.2,112.7c-0.6,0.2-1,0.5-1.4,0.5c-0.4,0-0.9-0.2-1.1-0.5c-0.3-0.5,0-0.9,0.7-0.8c0.1,0,0.3-0.4,0.6-0.8
				C427.3,111.6,427.7,112.1,428.2,112.7z"/>
			<path class="st1" d="M438.7,90.9c1.5,0.8,2.8,1.5,4.1,2.2C441.2,93.5,439.2,92.4,438.7,90.9z"/>
			<path class="st1" d="M519.3,85.4c0.3-2.1,0.6-4.2,0.8-6.3c0.1,0,0.3,0,0.4,0.1c-0.2,2.1-0.5,4.2-0.7,6.3
				C519.6,85.4,519.5,85.4,519.3,85.4z"/>
			<path class="st1" d="M436,31.4c0.6-1.5,2.2-2.1,3.6-1.4C438.5,30.5,437.3,30.9,436,31.4z"/>
			<path class="st1" d="M447.3,20.3c-0.3,0.9-3.6,1.8-4.5,1.1C444.3,21.1,445.7,20.7,447.3,20.3z"/>
			<path class="st1" d="M434.3,97.8c1.2,0.7,2.4,1.4,3.9,2.3C436.5,100.3,434.8,99.3,434.3,97.8z"/>
			<path class="st1" d="M431.9,89.7c0.3,1.1-0.5,2.9-1.1,3.1c-0.2,0.1-0.5,0-0.6-0.1c-0.1-0.2-0.2-0.5-0.1-0.7
				C430.6,91.3,431.2,90.6,431.9,89.7z"/>
			<path class="st1" d="M404.2,38.8c-1.3,0.6-2.5,1.2-3.8,1.8C400.6,39.4,402.3,38.4,404.2,38.8z"/>
			<path class="st1" d="M433.8,19.6c-1.7-0.6-2.7,1.5-4.3,1.1C430.7,19.4,432.1,18.9,433.8,19.6z"/>
			<path class="st1" d="M472.2,43.2c0.3,1-0.1,1.9-0.9,2.4c-0.4,0.3-1.1,0.1-1.7,0.2c0-0.2,0-0.3,0-0.5c0.4-0.1,0.8-0.1,1.2-0.2
				c0.3-0.7,0.6-1.4,1-2.1C472,43.1,472.1,43.2,472.2,43.2z"/>
			<path class="st1" d="M412,105.7c-1.6,0.3-3.7-1.5-3.8-3.2c0.5,0.6,1,1.4,1.6,1.9C410.4,104.9,411.3,105.2,412,105.7z"/>
			<path class="st1" d="M400.5,98.3c1.3,0.9,2.4,1.7,3.6,2.5C402.5,101.1,401.4,100.4,400.5,98.3z"/>
			<path class="st1" d="M522.2,31.7c0.8-0.1,1.7-0.2,2.5-0.2c0.3,0,0.6,0.5,0.8,0.8c0.1,0.1-0.1,0.5-0.3,0.6c-0.3,0.1-0.9,0.1-0.9,0
				c-0.4-1.1-1.3-1-2.2-0.8C522.1,31.9,522.2,31.8,522.2,31.7z"/>
			<path class="st1" d="M401.5,45.1c-1.1,0.6-2.2,1.2-3.5,1.9c0.4-1.3,1.9-2.2,3.3-2.3C401.4,44.9,401.5,45,401.5,45.1z"/>
			<path class="st1" d="M431.6,111.3c0.4-0.8,0.7-1.4,1.2-2.4c0.4,0.6,0.9,1,0.8,1.4C433.5,111.1,432.7,111.4,431.6,111.3z"/>
			<path class="st1" d="M463.5,91.6c1.1,1.2,1.1,2.2,0,3.6C463.5,93.9,463.5,92.9,463.5,91.6z"/>
			<path class="st1" d="M436.6,20.7c-1,0.5-1.9,1.3-3.1,1.1c-0.1-0.2-0.1-0.3-0.2-0.5c1-0.4,2.1-0.8,3.1-1.2
				C436.5,20.3,436.5,20.5,436.6,20.7z"/>
			<path class="st1" d="M468,79.2c1.2,0.1,1.8,1,1.4,2.4C468.2,81.3,468.2,80.2,468,79.2z"/>
			<path class="st1" d="M442.6,26.7c-1.3,0.4-2.3,0.8-3.4,1.1C439.5,26.5,441.1,26,442.6,26.7z"/>
			<path class="st1" d="M393.6,82c-1-0.8-1.9-1.7-2.9-2.5c0.1-0.2,0.3-0.3,0.4-0.5c1,0.8,2,1.6,3,2.5
				C393.9,81.6,393.7,81.8,393.6,82z"/>
			<path class="st1" d="M399.4,34.9c1-1.4,2.4-2.1,4-1.7C402,33.8,400.8,34.3,399.4,34.9z"/>
			<path class="st1" d="M472.3,77.1c-1.3-0.2-1.5-1.1-1.7-2.1C471.7,74.9,472.3,75.6,472.3,77.1z"/>
			<path class="st1" d="M442.6,24.7c1-0.2,2-0.5,3.1-0.7c0,0.2,0.1,0.4,0.1,0.6c-0.9,0.7-2,0.6-3,0.8
				C442.7,25.2,442.6,25,442.6,24.7z"/>
			<path class="st1" d="M431.6,107.3c-1.7,0-2.9-0.8-3.9-1.9c0.1-0.1,0.1-0.2,0.2-0.4C429.1,105.8,430.3,106.6,431.6,107.3z"/>
			<path class="st1" d="M465,83.1c1.4,0.8,1.4,1.8,1.4,3.2C465.2,85.5,465,84.5,465,83.1z"/>
			<path class="st1" d="M655.8,108.5c0.6-0.4,0.9-0.9,1.2-0.8c0.4,0.1,0.6,0.5,1,0.8c-0.3,0.3-0.7,0.7-1.1,0.8
				C656.7,109.4,656.4,109,655.8,108.5z"/>
			<path class="st1" d="M474.1,72.5c-0.5-0.5-1-1-1.5-1.5c-0.1-0.1,0-0.5,0-0.7c0-0.1,0.3-0.1,0.4-0.1
				C473.8,70.8,474.6,71.2,474.1,72.5z"/>
			<path class="st1" d="M473.3,65.4c1.4-0.1,1.9,0.4,2.3,1.7C474.2,67.4,473.9,66.3,473.3,65.4z"/>
			<path class="st1" d="M437.7,22.8c1-0.3,2-0.6,3.3-1c-0.6,1.1-2,1.6-3.2,1.5C437.8,23.1,437.7,22.9,437.7,22.8z"/>
			<path class="st1" d="M390.1,71.8c0.7,0.8,1.4,1.7,2.1,2.5c-1.3-0.3-2.1-1-2.5-2.1C389.8,72.1,389.9,72,390.1,71.8z"/>
			<path class="st1" d="M574,222.3c-0.1-1.4-0.3-2.7-0.4-4.1c0.2,0,0.3,0,0.5,0C574.8,219.5,574.2,220.9,574,222.3z"/>
			<path class="st1" d="M399.5,51.9c-0.9,0.6-1.8,1.2-2.6,1.8c-0.1-0.2-0.3-0.4-0.4-0.6c0.9-0.6,1.8-1.2,2.6-1.8
				C399.2,51.6,399.3,51.7,399.5,51.9z"/>
			<path class="st1" d="M468.1,90.4c0-0.9,0-1.7,0-2.6C469.1,88.5,469.2,89.3,468.1,90.4z"/>
			<path class="st1" d="M445,30.1c0.8-0.3,1.6-0.5,2.3-0.7c0.2,0,0.5,0.2,0.6,0.3c0.1,0.1-0.1,0.5-0.2,0.5c-0.9,0.2-1.7,0.4-2.6,0.5
				C445.1,30.5,445.1,30.3,445,30.1z"/>
			<path class="st1" d="M440.2,100.5c0.4-0.1,0.9-0.2,1.2-0.4c0.3-0.2,0.4-0.7,0.7-1c0.2,0.1,0.3,0.1,0.5,0.2
				c-0.1,0.7-0.3,1.4-0.5,2.4C441.3,101.1,440.7,100.8,440.2,100.5z"/>
			<path class="st1" d="M395.6,67.4c-1.1-0.6-2-1.4-2.6-2.7C394.5,65.1,395.5,66.2,395.6,67.4L395.6,67.4z"/>
			<path class="st1" d="M391.1,86.5c0.9,0.6,1.8,1.3,2.7,1.9c-0.1,0.2-0.3,0.3-0.4,0.5c-0.9-0.7-1.8-1.4-2.7-2
				C390.9,86.8,391,86.7,391.1,86.5z"/>
			<path class="st1" d="M394.2,92.7c1.2,0.8,2.2,1.5,3.4,2.2C396.2,95.2,395,94.4,394.2,92.7z"/>
			<path class="st1" d="M469.8,68.7c0.9,0,1.8-0.1,2.6-0.1c0,0.2,0,0.3,0,0.5c-0.9,0.3-1.7,0.8-2.7,0.2
				C469.8,69.1,469.8,68.9,469.8,68.7z"/>
			<path class="st1" d="M475.4,78.5c0.2,0.7,0.5,1.4,0.8,2.2c-1.4-0.4-1.7-1-1.2-2.2C475.1,78.5,475.2,78.5,475.4,78.5z"/>
			<path class="st1" d="M473.1,64.1c-0.7,0.6-1.5,1.2-2.4,0.7c0-0.2-0.1-0.3-0.1-0.5c0.8-0.2,1.6-0.4,2.5-0.6
				C473,63.8,473,64,473.1,64.1z"/>
			<path class="st1" d="M432.3,97.8c0.5-0.8,0.9-1.4,1.3-2c0.1,0.1,0.3,0.1,0.4,0.2c-0.2,0.7-0.5,1.4-0.8,2
				C433.3,98,432.7,97.9,432.3,97.8z"/>
			<path class="st1" d="M472.7,85.9c-1.3-0.7-1-1.6-0.9-2.7C472.9,83.9,472.8,84.7,472.7,85.9z"/>
			<path class="st1" d="M477.3,73c0.4,0.6,0.8,1.2,1.2,1.8C477.2,75.2,476.9,74.8,477.3,73z"/>
			<path class="st1" d="M396.8,39.8c0.9-0.4,1.7-0.8,2.6-1.2c0.1,0.2,0.2,0.4,0.3,0.5c-0.8,0.4-1.7,0.9-2.5,1.3
				C397,40.2,396.9,40,396.8,39.8z"/>
			<path class="st1" d="M468.4,77.9c-0.9,0.2-1.7,0.4-2.4-0.3c0-0.2,0-0.3,0.1-0.5c0.8,0.1,1.6,0.2,2.4,0.3
				C468.4,77.6,468.4,77.8,468.4,77.9z"/>
			<path class="st1" d="M423.7,106c1.4,0.8,2.4,1.5,3.5,2.2C426.2,108.3,424.6,107.4,423.7,106z"/>
			<path class="st1" d="M470.7,73.6c-0.9,0-1.8,0-2.6,0c0-0.1,0-0.3,0-0.4c0.9,0,1.8,0,2.7,0C470.7,73.3,470.7,73.4,470.7,73.6z"/>
			<path class="st1" d="M470.2,55.2c0.7-0.4,1.3-0.8,2-1.2c0.1,0.1,0.2,0.3,0.2,0.4c-0.4,0.8-1,1.4-2,1.3
				C470.4,55.5,470.3,55.4,470.2,55.2z"/>
			<path class="st1" d="M396.8,45.6c-0.8,0.5-1.6,1-2.6,1.6C394.6,45.9,395.3,45.4,396.8,45.6z"/>
			<path class="st1" d="M469.6,65.1c-0.7-0.4-1.4-0.8-2.1-1.2c0.1-0.2,0.2-0.4,0.4-0.6c0.7,0.4,1.4,0.8,2.1,1.2
				C469.8,64.7,469.7,64.9,469.6,65.1z"/>
			<path class="st1" d="M487.7,288.5c0.6,0.9,0.6,0.9-1.3,2.4C486.8,290.1,487.2,289.4,487.7,288.5z"/>
			<path class="st1" d="M471.7,50.1c0.7,0.2,1.3,0.4,2.1,0.6C472.8,51.7,472.3,51.6,471.7,50.1z"/>
			<path class="st1" d="M443,100.8c0.4,0.5,0.8,0.9,1.1,1.4c0,0-0.3,0.3-0.5,0.5c-0.4-0.5-0.8-0.9-1.2-1.4
				C442.6,101.2,442.8,101,443,100.8z"/>
			<path class="st1" d="M475.6,61.1c-1.3,0.7-1.7,0.1-2-0.6c0.1-0.1,0.2-0.3,0.3-0.4C474.4,60.4,475,60.8,475.6,61.1z"/>
			<path class="st1" d="M470.7,59.7c0.7-0.2,1.4-0.5,2.1-0.7c0,0.1,0.1,0.3,0.1,0.4c-0.6,0.6-1.1,1.1-2,0.8
				C470.8,60,470.8,59.9,470.7,59.7z"/>
			<path class="st1" d="M470.8,49.7c0,0.1,0,0.2-0.1,0.2c-0.4,0.4-0.9,0.7-1.3,1.1c-0.1-0.2-0.3-0.5-0.2-0.5
				c0.4-0.4,0.9-0.8,1.4-1.2C470.6,49.4,470.7,49.5,470.8,49.7z"/>
			<path class="st1" d="M470.4,92.1c-0.1,0.7-0.2,1.4-0.3,2.2c-0.2,0-0.4,0-0.6-0.1c0.1-0.7,0.2-1.4,0.3-2.1
				C470,92,470.2,92,470.4,92.1z"/>
			<path class="st1" d="M467.2,67.5c0.6,0.5,1.1,0.9,1.7,1.4c-0.1,0.2-0.3,0.3-0.4,0.5c-0.6-0.4-1.2-0.9-1.8-1.3
				C466.8,67.9,467,67.7,467.2,67.5z"/>
			<path class="st1" d="M392.4,53.3c0.6-0.5,1.3-0.9,1.9-1.4c0.1,0.2,0.2,0.3,0.3,0.5c-0.6,0.5-1.3,0.9-1.9,1.4
				C392.7,53.6,392.6,53.4,392.4,53.3z"/>
			<path class="st1" d="M469.7,60.6c-0.7-0.3-1.3-0.6-2-0.9c0.1-0.2,0.2-0.4,0.3-0.6c0.7,0.3,1.3,0.6,2,0.9
				C469.9,60.2,469.8,60.4,469.7,60.6z"/>
			<path class="st1" d="M473,55c0.9,0.4,1.4,0.7,2.1,1C473.9,56.8,473.6,56.6,473,55z"/>
			<path class="st1" d="M390.9,67.3c-0.5-0.6-1-1.2-1.5-1.8c0.1-0.1,0.3-0.3,0.4-0.4c0.5,0.6,1.1,1.2,1.6,1.8
				C391.2,67.1,391,67.2,390.9,67.3z"/>
			<path class="st1" d="M468.9,44.5c-0.4,0.6-0.8,1.1-1.2,1.9c-0.4-1.2-0.3-1.4,0.9-2.1C468.7,44.4,468.8,44.5,468.9,44.5z"/>
			<path class="st1" d="M439.3,20.3c0.6-0.3,1.1-0.5,1.7-0.8c0.1,0.1,0.1,0.3,0.2,0.4C440.8,20.5,440.4,21,439.3,20.3z"/>
			<path class="st1" d="M403.1,29.1c-0.7,0.3-1.5,0.6-2.2,0.9c-0.1-0.1-0.1-0.2-0.2-0.3c0.7-0.4,1.4-0.8,2.2-1.2
				C402.9,28.7,403,28.9,403.1,29.1z"/>
			<path class="st1" d="M477.1,54.5c-0.5,0.6-1,1-1.6,1.7C475.5,54.6,475.7,54.4,477.1,54.5z"/>
			<path class="st1" d="M478.6,67.3c0.3,0.4,0.5,0.9,0.8,1.3c-0.2,0.1-0.4,0.2-0.6,0.3c-0.2-0.5-0.5-0.9-0.7-1.4
				C478.2,67.5,478.4,67.4,478.6,67.3z"/>
			<path class="st1" d="M395.6,67.4c0.6-0.5,1.2-1,2-1.7C397.1,67.4,396.4,67.9,395.6,67.4C395.6,67.4,395.6,67.4,395.6,67.4z"/>
			<path class="st1" d="M475,48.7c0,0,0,0.1,0,0.1c-0.3,0.5-0.6,1-1,1.5c-0.1-0.1-0.4-0.3-0.4-0.4c0.3-0.5,0.7-1,1-1.6
				C474.8,48.5,474.9,48.6,475,48.7z"/>
			<path class="st1" d="M458.4,101.7c0.3-0.6,0.5-1.3,0.8-1.9c0.2,0.1,0.3,0.1,0.5,0.2c-0.2,0.6-0.5,1.3-0.7,1.9
				C458.7,101.9,458.6,101.8,458.4,101.7z"/>
			<path class="st1" d="M424.7,113.3c-0.5,0-1,0.1-1.6,0.1c0,0,0-0.4-0.1-0.6c0.5-0.1,1-0.1,1.6-0.2
				C424.7,112.8,424.7,113.1,424.7,113.3z"/>
			<path class="st1" d="M401,100.8c-0.6-0.5-1.3-0.9-1.9-1.4c0.1-0.1,0.2-0.3,0.3-0.4c0.7,0.4,1.4,0.8,2,1.2
				C401.2,100.4,401.1,100.6,401,100.8z"/>
			<path d="M449.2,90.1c0.9-0.3,1.9-0.6,2.8-0.8c0.1,0.1,0.2,0.3,0.3,0.4c-0.4,0.6-0.7,1.6-1.2,1.7c-0.6,0.1-1.4-0.4-2.1-0.7
				C449.2,90.5,449.2,90.3,449.2,90.1z"/>
		</g>
	</g>
	<rect x="359" y="13" class="st2" width="404" height="397"/>
</g>
<g id="Artboard_4_">
	<path id="Combined-Shape-Copy-3_4_" class="st3" d="M947,195L947,195l0-19.4c0-23.8-14.1-40.1-39.4-40.1
		c-25.4,0-40.4,16.3-40.4,40.1V256H854v-81.3c0-30.5,20.3-51.7,53.5-51.7s52.5,21.2,52.5,51.7v6.9h0v28.8
		c0,23.8,15.1,40.1,40.4,40.1c25.4,0,40.4-16.3,40.4-40.1V130h13.1v81.3c0,30.5-20.3,51.7-53.5,51.7S947,241.8,947,211.3V195z"/>
</g>
<g id="Artboard_5_">
	<path id="Combined-Shape-Copy-3_5_" class="st3" d="M135,195L135,195l0-19.4c0-23.8-14.1-40.1-39.4-40.1
		c-25.4,0-40.4,16.3-40.4,40.1V256H42v-81.3c0-30.5,20.3-51.7,53.5-51.7s52.5,21.2,52.5,51.7v6.9h0v28.8c0,23.8,15.1,40.1,40.4,40.1
		c25.4,0,40.4-16.3,40.4-40.1V130H242v81.3c0,30.5-20.3,51.7-53.5,51.7S135,241.8,135,211.3V195z"/>
</g>
</svg>
