<?xml version="1.0" encoding="utf-8"?>
<!-- Generator: Adobe Illustrator 22.1.0, SVG Export Plug-In . SVG Version: 6.00 Build 0)  -->
<svg version="1.1" id="Layer_1" xmlns="http://www.w3.org/2000/svg" xmlns:xlink="http://www.w3.org/1999/xlink" x="0px" y="0px"
	 viewBox="0 0 200 200" style="enable-background:new 0 0 200 200;" xml:space="preserve">
<style type="text/css">
	.st0{fill:#231F20;}
</style>
<path class="st0" d="M160.2,155.2c1.4,1.4,1.4,3.6,0,5c-0.7,0.7-1.6,1-2.5,1c-0.9,0-1.8-0.3-2.5-1L100,105l-55.2,55.2
	c-0.7,0.7-1.6,1-2.5,1c-0.9,0-1.8-0.3-2.5-1c-1.4-1.4-1.4-3.6,0-5L95,100L39.8,44.8c-1.4-1.4-1.4-3.6,0-4.9s3.6-1.4,5,0L100,95
	l55.2-55.2c1.4-1.4,3.6-1.4,5,0s1.4,3.6,0,4.9L105,100L160.2,155.2z"/>
</svg>
